<?xml version="1.0" encoding="utf-8" standalone="no"?>
<!DOCTYPE svg PUBLIC "-//W3C//DTD SVG 1.1//EN"
  "http://www.w3.org/Graphics/SVG/1.1/DTD/svg11.dtd">
<svg xmlns:xlink="http://www.w3.org/1999/xlink" width="720pt" height="432pt" viewBox="0 0 720 432" xmlns="http://www.w3.org/2000/svg" version="1.1">
 <metadata>
  <rdf:RDF xmlns:dc="http://purl.org/dc/elements/1.1/" xmlns:cc="http://creativecommons.org/ns#" xmlns:rdf="http://www.w3.org/1999/02/22-rdf-syntax-ns#">
   <cc:Work>
    <dc:type rdf:resource="http://purl.org/dc/dcmitype/StillImage"/>
    <dc:date>2026-02-27T19:37:36.166796</dc:date>
    <dc:format>image/svg+xml</dc:format>
    <dc:creator>
     <cc:Agent>
      <dc:title>Matplotlib v3.10.8, https://matplotlib.org/</dc:title>
     </cc:Agent>
    </dc:creator>
   </cc:Work>
  </rdf:RDF>
 </metadata>
 <defs>
  <style type="text/css">*{stroke-linejoin: round; stroke-linecap: butt}</style>
 </defs>
 <g id="figure_1">
  <g id="patch_1">
   <path d="M 0 432 
L 720 432 
L 720 0 
L 0 0 
z
" style="fill: #ffffff"/>
  </g>
  <g id="axes_1">
   <g id="patch_2">
    <path d="M 80.75 368.44 
L 704.278636 368.44 
L 704.278636 15.12 
L 80.75 15.12 
z
" style="fill: #ffffff"/>
   </g>
   <g id="matplotlib.axis_1">
    <g id="xtick_1">
     <g id="line2d_1">
      <defs>
       <path id="m978743bd1c" d="M 0 0 
L 0 3.5 
" style="stroke: #000000; stroke-width: 0.8"/>
      </defs>
      <g>
       <use xlink:href="#m978743bd1c" x="109.092211" y="368.44" style="stroke: #000000; stroke-width: 0.8"/>
      </g>
     </g>
     <g id="text_1">
      <!-- 0.0000 -->
      <g transform="translate(83.09682 387.634844) scale(0.17 -0.17)">
       <defs>
        <path id="Helvetica-30" d="M 1731 4475 
Q 2600 4475 2988 3759 
Q 3288 3206 3288 2244 
Q 3288 1331 3016 734 
Q 2622 -122 1728 -122 
Q 922 -122 528 578 
Q 200 1163 200 2147 
Q 200 2909 397 3456 
Q 766 4475 1731 4475 
z
M 1725 391 
Q 2163 391 2422 778 
Q 2681 1166 2681 2222 
Q 2681 2984 2493 3476 
Q 2306 3969 1766 3969 
Q 1269 3969 1039 3501 
Q 809 3034 809 2125 
Q 809 1441 956 1025 
Q 1181 391 1725 391 
z
" transform="scale(0.015625)"/>
        <path id="Helvetica-2e" d="M 547 681 
L 1200 681 
L 1200 0 
L 547 0 
L 547 681 
z
" transform="scale(0.015625)"/>
       </defs>
       <use xlink:href="#Helvetica-30"/>
       <use xlink:href="#Helvetica-2e" transform="translate(55.615234 0)"/>
       <use xlink:href="#Helvetica-30" transform="translate(83.398438 0)"/>
       <use xlink:href="#Helvetica-30" transform="translate(139.013672 0)"/>
       <use xlink:href="#Helvetica-30" transform="translate(194.628906 0)"/>
       <use xlink:href="#Helvetica-30" transform="translate(250.244141 0)"/>
      </g>
     </g>
    </g>
    <g id="xtick_2">
     <g id="line2d_2">
      <g>
       <use xlink:href="#m978743bd1c" x="222.461054" y="368.44" style="stroke: #000000; stroke-width: 0.8"/>
      </g>
     </g>
     <g id="text_2">
      <!-- 0.0001 -->
      <g transform="translate(196.465663 387.634844) scale(0.17 -0.17)">
       <defs>
        <path id="Helvetica-31" d="M 613 3169 
L 613 3600 
Q 1222 3659 1462 3798 
Q 1703 3938 1822 4456 
L 2266 4456 
L 2266 0 
L 1666 0 
L 1666 3169 
L 613 3169 
z
" transform="scale(0.015625)"/>
       </defs>
       <use xlink:href="#Helvetica-30"/>
       <use xlink:href="#Helvetica-2e" transform="translate(55.615234 0)"/>
       <use xlink:href="#Helvetica-30" transform="translate(83.398438 0)"/>
       <use xlink:href="#Helvetica-30" transform="translate(139.013672 0)"/>
       <use xlink:href="#Helvetica-30" transform="translate(194.628906 0)"/>
       <use xlink:href="#Helvetica-31" transform="translate(250.244141 0)"/>
      </g>
     </g>
    </g>
    <g id="xtick_3">
     <g id="line2d_3">
      <g>
       <use xlink:href="#m978743bd1c" x="335.829897" y="368.44" style="stroke: #000000; stroke-width: 0.8"/>
      </g>
     </g>
     <g id="text_3">
      <!-- 0.0002 -->
      <g transform="translate(309.834506 387.634844) scale(0.17 -0.17)">
       <defs>
        <path id="Helvetica-32" d="M 200 0 
Q 231 578 439 1006 
Q 647 1434 1250 1784 
L 1850 2131 
Q 2253 2366 2416 2531 
Q 2672 2791 2672 3125 
Q 2672 3516 2437 3745 
Q 2203 3975 1813 3975 
Q 1234 3975 1013 3538 
Q 894 3303 881 2888 
L 309 2888 
Q 319 3472 525 3841 
Q 891 4491 1816 4491 
Q 2584 4491 2939 4075 
Q 3294 3659 3294 3150 
Q 3294 2613 2916 2231 
Q 2697 2009 2131 1694 
L 1703 1456 
Q 1397 1288 1222 1134 
Q 909 863 828 531 
L 3272 531 
L 3272 0 
L 200 0 
z
" transform="scale(0.015625)"/>
       </defs>
       <use xlink:href="#Helvetica-30"/>
       <use xlink:href="#Helvetica-2e" transform="translate(55.615234 0)"/>
       <use xlink:href="#Helvetica-30" transform="translate(83.398438 0)"/>
       <use xlink:href="#Helvetica-30" transform="translate(139.013672 0)"/>
       <use xlink:href="#Helvetica-30" transform="translate(194.628906 0)"/>
       <use xlink:href="#Helvetica-32" transform="translate(250.244141 0)"/>
      </g>
     </g>
    </g>
    <g id="xtick_4">
     <g id="line2d_4">
      <g>
       <use xlink:href="#m978743bd1c" x="449.19874" y="368.44" style="stroke: #000000; stroke-width: 0.8"/>
      </g>
     </g>
     <g id="text_4">
      <!-- 0.0003 -->
      <g transform="translate(423.203349 387.634844) scale(0.17 -0.17)">
       <defs>
        <path id="Helvetica-33" d="M 1663 -122 
Q 869 -122 511 314 
Q 153 750 153 1375 
L 741 1375 
Q 778 941 903 744 
Q 1122 391 1694 391 
Q 2138 391 2406 628 
Q 2675 866 2675 1241 
Q 2675 1703 2392 1887 
Q 2109 2072 1606 2072 
Q 1550 2072 1492 2070 
Q 1434 2069 1375 2066 
L 1375 2563 
Q 1463 2553 1522 2550 
Q 1581 2547 1650 2547 
Q 1966 2547 2169 2647 
Q 2525 2822 2525 3272 
Q 2525 3606 2287 3787 
Q 2050 3969 1734 3969 
Q 1172 3969 956 3594 
Q 838 3388 822 3006 
L 266 3006 
Q 266 3506 466 3856 
Q 809 4481 1675 4481 
Q 2359 4481 2734 4176 
Q 3109 3872 3109 3294 
Q 3109 2881 2888 2625 
Q 2750 2466 2531 2375 
Q 2884 2278 3082 2001 
Q 3281 1725 3281 1325 
Q 3281 684 2859 281 
Q 2438 -122 1663 -122 
z
" transform="scale(0.015625)"/>
       </defs>
       <use xlink:href="#Helvetica-30"/>
       <use xlink:href="#Helvetica-2e" transform="translate(55.615234 0)"/>
       <use xlink:href="#Helvetica-30" transform="translate(83.398438 0)"/>
       <use xlink:href="#Helvetica-30" transform="translate(139.013672 0)"/>
       <use xlink:href="#Helvetica-30" transform="translate(194.628906 0)"/>
       <use xlink:href="#Helvetica-33" transform="translate(250.244141 0)"/>
      </g>
     </g>
    </g>
    <g id="xtick_5">
     <g id="line2d_5">
      <g>
       <use xlink:href="#m978743bd1c" x="562.567583" y="368.44" style="stroke: #000000; stroke-width: 0.8"/>
      </g>
     </g>
     <g id="text_5">
      <!-- 0.0004 -->
      <g transform="translate(536.572192 387.634844) scale(0.17 -0.17)">
       <defs>
        <path id="Helvetica-34" d="M 2116 1584 
L 2116 3613 
L 681 1584 
L 2116 1584 
z
M 2125 0 
L 2125 1094 
L 163 1094 
L 163 1644 
L 2213 4488 
L 2688 4488 
L 2688 1584 
L 3347 1584 
L 3347 1094 
L 2688 1094 
L 2688 0 
L 2125 0 
z
" transform="scale(0.015625)"/>
       </defs>
       <use xlink:href="#Helvetica-30"/>
       <use xlink:href="#Helvetica-2e" transform="translate(55.615234 0)"/>
       <use xlink:href="#Helvetica-30" transform="translate(83.398438 0)"/>
       <use xlink:href="#Helvetica-30" transform="translate(139.013672 0)"/>
       <use xlink:href="#Helvetica-30" transform="translate(194.628906 0)"/>
       <use xlink:href="#Helvetica-34" transform="translate(250.244141 0)"/>
      </g>
     </g>
    </g>
    <g id="xtick_6">
     <g id="line2d_6">
      <g>
       <use xlink:href="#m978743bd1c" x="675.936426" y="368.44" style="stroke: #000000; stroke-width: 0.8"/>
      </g>
     </g>
     <g id="text_6">
      <!-- 0.0005 -->
      <g transform="translate(649.941035 387.634844) scale(0.17 -0.17)">
       <defs>
        <path id="Helvetica-35" d="M 791 1141 
Q 847 659 1238 475 
Q 1438 381 1700 381 
Q 2200 381 2440 700 
Q 2681 1019 2681 1406 
Q 2681 1875 2395 2131 
Q 2109 2388 1709 2388 
Q 1419 2388 1211 2275 
Q 1003 2163 856 1963 
L 369 1991 
L 709 4400 
L 3034 4400 
L 3034 3856 
L 1131 3856 
L 941 2613 
Q 1097 2731 1238 2791 
Q 1488 2894 1816 2894 
Q 2431 2894 2859 2497 
Q 3288 2100 3288 1491 
Q 3288 856 2895 371 
Q 2503 -113 1644 -113 
Q 1097 -113 676 195 
Q 256 503 206 1141 
L 791 1141 
z
" transform="scale(0.015625)"/>
       </defs>
       <use xlink:href="#Helvetica-30"/>
       <use xlink:href="#Helvetica-2e" transform="translate(55.615234 0)"/>
       <use xlink:href="#Helvetica-30" transform="translate(83.398438 0)"/>
       <use xlink:href="#Helvetica-30" transform="translate(139.013672 0)"/>
       <use xlink:href="#Helvetica-30" transform="translate(194.628906 0)"/>
       <use xlink:href="#Helvetica-35" transform="translate(250.244141 0)"/>
      </g>
     </g>
    </g>
    <g id="xtick_7">
     <g id="line2d_7">
      <defs>
       <path id="mfb742b2354" d="M 0 0 
L 0 2 
" style="stroke: #000000; stroke-width: 0.6"/>
      </defs>
      <g>
       <use xlink:href="#mfb742b2354" x="86.418442" y="368.44" style="stroke: #000000; stroke-width: 0.6"/>
      </g>
     </g>
    </g>
    <g id="xtick_8">
     <g id="line2d_8">
      <g>
       <use xlink:href="#mfb742b2354" x="131.765979" y="368.44" style="stroke: #000000; stroke-width: 0.6"/>
      </g>
     </g>
    </g>
    <g id="xtick_9">
     <g id="line2d_9">
      <g>
       <use xlink:href="#mfb742b2354" x="154.439748" y="368.44" style="stroke: #000000; stroke-width: 0.6"/>
      </g>
     </g>
    </g>
    <g id="xtick_10">
     <g id="line2d_10">
      <g>
       <use xlink:href="#mfb742b2354" x="177.113517" y="368.44" style="stroke: #000000; stroke-width: 0.6"/>
      </g>
     </g>
    </g>
    <g id="xtick_11">
     <g id="line2d_11">
      <g>
       <use xlink:href="#mfb742b2354" x="199.787285" y="368.44" style="stroke: #000000; stroke-width: 0.6"/>
      </g>
     </g>
    </g>
    <g id="xtick_12">
     <g id="line2d_12">
      <g>
       <use xlink:href="#mfb742b2354" x="245.134822" y="368.44" style="stroke: #000000; stroke-width: 0.6"/>
      </g>
     </g>
    </g>
    <g id="xtick_13">
     <g id="line2d_13">
      <g>
       <use xlink:href="#mfb742b2354" x="267.808591" y="368.44" style="stroke: #000000; stroke-width: 0.6"/>
      </g>
     </g>
    </g>
    <g id="xtick_14">
     <g id="line2d_14">
      <g>
       <use xlink:href="#mfb742b2354" x="290.48236" y="368.44" style="stroke: #000000; stroke-width: 0.6"/>
      </g>
     </g>
    </g>
    <g id="xtick_15">
     <g id="line2d_15">
      <g>
       <use xlink:href="#mfb742b2354" x="313.156128" y="368.44" style="stroke: #000000; stroke-width: 0.6"/>
      </g>
     </g>
    </g>
    <g id="xtick_16">
     <g id="line2d_16">
      <g>
       <use xlink:href="#mfb742b2354" x="358.503665" y="368.44" style="stroke: #000000; stroke-width: 0.6"/>
      </g>
     </g>
    </g>
    <g id="xtick_17">
     <g id="line2d_17">
      <g>
       <use xlink:href="#mfb742b2354" x="381.177434" y="368.44" style="stroke: #000000; stroke-width: 0.6"/>
      </g>
     </g>
    </g>
    <g id="xtick_18">
     <g id="line2d_18">
      <g>
       <use xlink:href="#mfb742b2354" x="403.851202" y="368.44" style="stroke: #000000; stroke-width: 0.6"/>
      </g>
     </g>
    </g>
    <g id="xtick_19">
     <g id="line2d_19">
      <g>
       <use xlink:href="#mfb742b2354" x="426.524971" y="368.44" style="stroke: #000000; stroke-width: 0.6"/>
      </g>
     </g>
    </g>
    <g id="xtick_20">
     <g id="line2d_20">
      <g>
       <use xlink:href="#mfb742b2354" x="471.872508" y="368.44" style="stroke: #000000; stroke-width: 0.6"/>
      </g>
     </g>
    </g>
    <g id="xtick_21">
     <g id="line2d_21">
      <g>
       <use xlink:href="#mfb742b2354" x="494.546277" y="368.44" style="stroke: #000000; stroke-width: 0.6"/>
      </g>
     </g>
    </g>
    <g id="xtick_22">
     <g id="line2d_22">
      <g>
       <use xlink:href="#mfb742b2354" x="517.220045" y="368.44" style="stroke: #000000; stroke-width: 0.6"/>
      </g>
     </g>
    </g>
    <g id="xtick_23">
     <g id="line2d_23">
      <g>
       <use xlink:href="#mfb742b2354" x="539.893814" y="368.44" style="stroke: #000000; stroke-width: 0.6"/>
      </g>
     </g>
    </g>
    <g id="xtick_24">
     <g id="line2d_24">
      <g>
       <use xlink:href="#mfb742b2354" x="585.241351" y="368.44" style="stroke: #000000; stroke-width: 0.6"/>
      </g>
     </g>
    </g>
    <g id="xtick_25">
     <g id="line2d_25">
      <g>
       <use xlink:href="#mfb742b2354" x="607.91512" y="368.44" style="stroke: #000000; stroke-width: 0.6"/>
      </g>
     </g>
    </g>
    <g id="xtick_26">
     <g id="line2d_26">
      <g>
       <use xlink:href="#mfb742b2354" x="630.588888" y="368.44" style="stroke: #000000; stroke-width: 0.6"/>
      </g>
     </g>
    </g>
    <g id="xtick_27">
     <g id="line2d_27">
      <g>
       <use xlink:href="#mfb742b2354" x="653.262657" y="368.44" style="stroke: #000000; stroke-width: 0.6"/>
      </g>
     </g>
    </g>
    <g id="xtick_28">
     <g id="line2d_28">
      <g>
       <use xlink:href="#mfb742b2354" x="698.610194" y="368.44" style="stroke: #000000; stroke-width: 0.6"/>
      </g>
     </g>
    </g>
    <g id="text_7">
     <!-- $\epsilon$ -->
     <g transform="translate(388.004318 410.959844) scale(0.22 -0.22)">
      <defs>
       <path id="Cmmi10-b2" d="M 788 903 
Q 788 688 866 503 
Q 944 319 1101 208 
Q 1259 97 1472 97 
Q 1616 97 1778 159 
Q 1941 222 2080 297 
Q 2219 372 2222 372 
Q 2256 372 2276 333 
Q 2297 294 2297 256 
Q 2297 222 2278 213 
Q 1878 -72 1466 -72 
Q 1128 -72 856 86 
Q 584 244 436 525 
Q 288 806 288 1141 
Q 288 1472 422 1770 
Q 556 2069 793 2291 
Q 1031 2513 1331 2636 
Q 1631 2759 1959 2759 
L 2322 2759 
Q 2419 2759 2419 2663 
Q 2419 2609 2383 2571 
Q 2347 2534 2297 2534 
L 1947 2534 
Q 1691 2534 1483 2421 
Q 1275 2309 1134 2109 
Q 994 1909 916 1656 
L 2047 1656 
Q 2091 1656 2117 1629 
Q 2144 1603 2144 1563 
Q 2144 1509 2109 1471 
Q 2075 1434 2022 1434 
L 856 1434 
Q 788 1103 788 903 
z
" transform="scale(0.015625)"/>
      </defs>
      <use xlink:href="#Cmmi10-b2" transform="translate(0 0.890625)"/>
     </g>
    </g>
   </g>
   <g id="matplotlib.axis_2">
    <g id="ytick_1">
     <g id="line2d_29">
      <defs>
       <path id="m7311bf15ff" d="M 0 0 
L -3.5 0 
" style="stroke: #000000; stroke-width: 0.8"/>
      </defs>
      <g>
       <use xlink:href="#m7311bf15ff" x="80.75" y="366.530424" style="stroke: #000000; stroke-width: 0.8"/>
      </g>
     </g>
     <g id="text_8">
      <!-- 0.76 -->
      <g transform="translate(40.666406 372.627846) scale(0.17 -0.17)">
       <defs>
        <path id="Helvetica-37" d="M 3347 4400 
L 3347 3909 
Q 3131 3700 2773 3181 
Q 2416 2663 2141 2063 
Q 1869 1478 1728 997 
Q 1638 688 1494 0 
L 872 0 
Q 1084 1281 1809 2550 
Q 2238 3294 2709 3834 
L 234 3834 
L 234 4400 
L 3347 4400 
z
" transform="scale(0.015625)"/>
        <path id="Helvetica-36" d="M 1872 4494 
Q 2622 4494 2917 4105 
Q 3213 3716 3213 3303 
L 2656 3303 
Q 2606 3569 2497 3719 
Q 2294 4000 1881 4000 
Q 1409 4000 1131 3564 
Q 853 3128 822 2316 
Q 1016 2600 1309 2741 
Q 1578 2866 1909 2866 
Q 2472 2866 2890 2506 
Q 3309 2147 3309 1434 
Q 3309 825 2912 354 
Q 2516 -116 1781 -116 
Q 1153 -116 697 361 
Q 241 838 241 1966 
Q 241 2800 444 3381 
Q 834 4494 1872 4494 
z
M 1831 384 
Q 2275 384 2495 682 
Q 2716 981 2716 1388 
Q 2716 1731 2519 2042 
Q 2322 2353 1803 2353 
Q 1441 2353 1167 2112 
Q 894 1872 894 1388 
Q 894 963 1142 673 
Q 1391 384 1831 384 
z
" transform="scale(0.015625)"/>
       </defs>
       <use xlink:href="#Helvetica-30"/>
       <use xlink:href="#Helvetica-2e" transform="translate(55.615234 0)"/>
       <use xlink:href="#Helvetica-37" transform="translate(83.398438 0)"/>
       <use xlink:href="#Helvetica-36" transform="translate(139.013672 0)"/>
      </g>
     </g>
    </g>
    <g id="ytick_2">
     <g id="line2d_30">
      <g>
       <use xlink:href="#m7311bf15ff" x="80.75" y="317.866341" style="stroke: #000000; stroke-width: 0.8"/>
      </g>
     </g>
     <g id="text_9">
      <!-- 0.78 -->
      <g transform="translate(40.666406 323.963763) scale(0.17 -0.17)">
       <defs>
        <path id="Helvetica-38" d="M 1741 2600 
Q 2113 2600 2322 2808 
Q 2531 3016 2531 3303 
Q 2531 3553 2331 3762 
Q 2131 3972 1722 3972 
Q 1316 3972 1134 3762 
Q 953 3553 953 3272 
Q 953 2956 1187 2778 
Q 1422 2600 1741 2600 
z
M 1775 384 
Q 2166 384 2423 595 
Q 2681 806 2681 1225 
Q 2681 1659 2415 1884 
Q 2150 2109 1734 2109 
Q 1331 2109 1076 1879 
Q 822 1650 822 1244 
Q 822 894 1055 639 
Q 1288 384 1775 384 
z
M 975 2384 
Q 741 2484 609 2619 
Q 363 2869 363 3269 
Q 363 3769 725 4128 
Q 1088 4488 1753 4488 
Q 2397 4488 2762 4148 
Q 3128 3809 3128 3356 
Q 3128 2938 2916 2678 
Q 2797 2531 2547 2391 
Q 2825 2263 2984 2097 
Q 3281 1784 3281 1284 
Q 3281 694 2884 283 
Q 2488 -128 1763 -128 
Q 1109 -128 657 226 
Q 206 581 206 1256 
Q 206 1653 400 1942 
Q 594 2231 975 2384 
z
" transform="scale(0.015625)"/>
       </defs>
       <use xlink:href="#Helvetica-30"/>
       <use xlink:href="#Helvetica-2e" transform="translate(55.615234 0)"/>
       <use xlink:href="#Helvetica-37" transform="translate(83.398438 0)"/>
       <use xlink:href="#Helvetica-38" transform="translate(139.013672 0)"/>
      </g>
     </g>
    </g>
    <g id="ytick_3">
     <g id="line2d_31">
      <g>
       <use xlink:href="#m7311bf15ff" x="80.75" y="269.202258" style="stroke: #000000; stroke-width: 0.8"/>
      </g>
     </g>
     <g id="text_10">
      <!-- 0.80 -->
      <g transform="translate(40.666406 275.29968) scale(0.17 -0.17)">
       <use xlink:href="#Helvetica-30"/>
       <use xlink:href="#Helvetica-2e" transform="translate(55.615234 0)"/>
       <use xlink:href="#Helvetica-38" transform="translate(83.398438 0)"/>
       <use xlink:href="#Helvetica-30" transform="translate(139.013672 0)"/>
      </g>
     </g>
    </g>
    <g id="ytick_4">
     <g id="line2d_32">
      <g>
       <use xlink:href="#m7311bf15ff" x="80.75" y="220.538175" style="stroke: #000000; stroke-width: 0.8"/>
      </g>
     </g>
     <g id="text_11">
      <!-- 0.82 -->
      <g transform="translate(40.666406 226.635597) scale(0.17 -0.17)">
       <use xlink:href="#Helvetica-30"/>
       <use xlink:href="#Helvetica-2e" transform="translate(55.615234 0)"/>
       <use xlink:href="#Helvetica-38" transform="translate(83.398438 0)"/>
       <use xlink:href="#Helvetica-32" transform="translate(139.013672 0)"/>
      </g>
     </g>
    </g>
    <g id="ytick_5">
     <g id="line2d_33">
      <g>
       <use xlink:href="#m7311bf15ff" x="80.75" y="171.874092" style="stroke: #000000; stroke-width: 0.8"/>
      </g>
     </g>
     <g id="text_12">
      <!-- 0.84 -->
      <g transform="translate(40.666406 177.971514) scale(0.17 -0.17)">
       <use xlink:href="#Helvetica-30"/>
       <use xlink:href="#Helvetica-2e" transform="translate(55.615234 0)"/>
       <use xlink:href="#Helvetica-38" transform="translate(83.398438 0)"/>
       <use xlink:href="#Helvetica-34" transform="translate(139.013672 0)"/>
      </g>
     </g>
    </g>
    <g id="ytick_6">
     <g id="line2d_34">
      <g>
       <use xlink:href="#m7311bf15ff" x="80.75" y="123.210009" style="stroke: #000000; stroke-width: 0.8"/>
      </g>
     </g>
     <g id="text_13">
      <!-- 0.86 -->
      <g transform="translate(40.666406 129.307431) scale(0.17 -0.17)">
       <use xlink:href="#Helvetica-30"/>
       <use xlink:href="#Helvetica-2e" transform="translate(55.615234 0)"/>
       <use xlink:href="#Helvetica-38" transform="translate(83.398438 0)"/>
       <use xlink:href="#Helvetica-36" transform="translate(139.013672 0)"/>
      </g>
     </g>
    </g>
    <g id="ytick_7">
     <g id="line2d_35">
      <g>
       <use xlink:href="#m7311bf15ff" x="80.75" y="74.545926" style="stroke: #000000; stroke-width: 0.8"/>
      </g>
     </g>
     <g id="text_14">
      <!-- 0.88 -->
      <g transform="translate(40.666406 80.643348) scale(0.17 -0.17)">
       <use xlink:href="#Helvetica-30"/>
       <use xlink:href="#Helvetica-2e" transform="translate(55.615234 0)"/>
       <use xlink:href="#Helvetica-38" transform="translate(83.398438 0)"/>
       <use xlink:href="#Helvetica-38" transform="translate(139.013672 0)"/>
      </g>
     </g>
    </g>
    <g id="ytick_8">
     <g id="line2d_36">
      <g>
       <use xlink:href="#m7311bf15ff" x="80.75" y="25.881843" style="stroke: #000000; stroke-width: 0.8"/>
      </g>
     </g>
     <g id="text_15">
      <!-- 0.90 -->
      <g transform="translate(40.666406 31.979265) scale(0.17 -0.17)">
       <defs>
        <path id="Helvetica-39" d="M 850 1081 
Q 875 616 1209 438 
Q 1381 344 1597 344 
Q 2000 344 2284 680 
Q 2569 1016 2688 2044 
Q 2500 1747 2223 1626 
Q 1947 1506 1628 1506 
Q 981 1506 604 1909 
Q 228 2313 228 2947 
Q 228 3556 600 4018 
Q 972 4481 1697 4481 
Q 2675 4481 3047 3600 
Q 3253 3116 3253 2388 
Q 3253 1566 3006 931 
Q 2597 -125 1619 -125 
Q 963 -125 622 219 
Q 281 563 281 1081 
L 850 1081 
z
M 1703 2000 
Q 2038 2000 2314 2220 
Q 2591 2441 2591 2991 
Q 2591 3484 2342 3726 
Q 2094 3969 1709 3969 
Q 1297 3969 1055 3692 
Q 813 3416 813 2953 
Q 813 2516 1025 2258 
Q 1238 2000 1703 2000 
z
" transform="scale(0.015625)"/>
       </defs>
       <use xlink:href="#Helvetica-30"/>
       <use xlink:href="#Helvetica-2e" transform="translate(55.615234 0)"/>
       <use xlink:href="#Helvetica-39" transform="translate(83.398438 0)"/>
       <use xlink:href="#Helvetica-30" transform="translate(139.013672 0)"/>
      </g>
     </g>
    </g>
    <g id="ytick_9">
     <g id="line2d_37">
      <defs>
       <path id="m0dcbb384ae" d="M 0 0 
L -2 0 
" style="stroke: #000000; stroke-width: 0.6"/>
      </defs>
      <g>
       <use xlink:href="#m0dcbb384ae" x="80.75" y="354.364403" style="stroke: #000000; stroke-width: 0.6"/>
      </g>
     </g>
    </g>
    <g id="ytick_10">
     <g id="line2d_38">
      <g>
       <use xlink:href="#m0dcbb384ae" x="80.75" y="342.198382" style="stroke: #000000; stroke-width: 0.6"/>
      </g>
     </g>
    </g>
    <g id="ytick_11">
     <g id="line2d_39">
      <g>
       <use xlink:href="#m0dcbb384ae" x="80.75" y="330.032362" style="stroke: #000000; stroke-width: 0.6"/>
      </g>
     </g>
    </g>
    <g id="ytick_12">
     <g id="line2d_40">
      <g>
       <use xlink:href="#m0dcbb384ae" x="80.75" y="305.70032" style="stroke: #000000; stroke-width: 0.6"/>
      </g>
     </g>
    </g>
    <g id="ytick_13">
     <g id="line2d_41">
      <g>
       <use xlink:href="#m0dcbb384ae" x="80.75" y="293.534299" style="stroke: #000000; stroke-width: 0.6"/>
      </g>
     </g>
    </g>
    <g id="ytick_14">
     <g id="line2d_42">
      <g>
       <use xlink:href="#m0dcbb384ae" x="80.75" y="281.368279" style="stroke: #000000; stroke-width: 0.6"/>
      </g>
     </g>
    </g>
    <g id="ytick_15">
     <g id="line2d_43">
      <g>
       <use xlink:href="#m0dcbb384ae" x="80.75" y="257.036237" style="stroke: #000000; stroke-width: 0.6"/>
      </g>
     </g>
    </g>
    <g id="ytick_16">
     <g id="line2d_44">
      <g>
       <use xlink:href="#m0dcbb384ae" x="80.75" y="244.870217" style="stroke: #000000; stroke-width: 0.6"/>
      </g>
     </g>
    </g>
    <g id="ytick_17">
     <g id="line2d_45">
      <g>
       <use xlink:href="#m0dcbb384ae" x="80.75" y="232.704196" style="stroke: #000000; stroke-width: 0.6"/>
      </g>
     </g>
    </g>
    <g id="ytick_18">
     <g id="line2d_46">
      <g>
       <use xlink:href="#m0dcbb384ae" x="80.75" y="208.372154" style="stroke: #000000; stroke-width: 0.6"/>
      </g>
     </g>
    </g>
    <g id="ytick_19">
     <g id="line2d_47">
      <g>
       <use xlink:href="#m0dcbb384ae" x="80.75" y="196.206134" style="stroke: #000000; stroke-width: 0.6"/>
      </g>
     </g>
    </g>
    <g id="ytick_20">
     <g id="line2d_48">
      <g>
       <use xlink:href="#m0dcbb384ae" x="80.75" y="184.040113" style="stroke: #000000; stroke-width: 0.6"/>
      </g>
     </g>
    </g>
    <g id="ytick_21">
     <g id="line2d_49">
      <g>
       <use xlink:href="#m0dcbb384ae" x="80.75" y="159.708071" style="stroke: #000000; stroke-width: 0.6"/>
      </g>
     </g>
    </g>
    <g id="ytick_22">
     <g id="line2d_50">
      <g>
       <use xlink:href="#m0dcbb384ae" x="80.75" y="147.542051" style="stroke: #000000; stroke-width: 0.6"/>
      </g>
     </g>
    </g>
    <g id="ytick_23">
     <g id="line2d_51">
      <g>
       <use xlink:href="#m0dcbb384ae" x="80.75" y="135.37603" style="stroke: #000000; stroke-width: 0.6"/>
      </g>
     </g>
    </g>
    <g id="ytick_24">
     <g id="line2d_52">
      <g>
       <use xlink:href="#m0dcbb384ae" x="80.75" y="111.043989" style="stroke: #000000; stroke-width: 0.6"/>
      </g>
     </g>
    </g>
    <g id="ytick_25">
     <g id="line2d_53">
      <g>
       <use xlink:href="#m0dcbb384ae" x="80.75" y="98.877968" style="stroke: #000000; stroke-width: 0.6"/>
      </g>
     </g>
    </g>
    <g id="ytick_26">
     <g id="line2d_54">
      <g>
       <use xlink:href="#m0dcbb384ae" x="80.75" y="86.711947" style="stroke: #000000; stroke-width: 0.6"/>
      </g>
     </g>
    </g>
    <g id="ytick_27">
     <g id="line2d_55">
      <g>
       <use xlink:href="#m0dcbb384ae" x="80.75" y="62.379906" style="stroke: #000000; stroke-width: 0.6"/>
      </g>
     </g>
    </g>
    <g id="ytick_28">
     <g id="line2d_56">
      <g>
       <use xlink:href="#m0dcbb384ae" x="80.75" y="50.213885" style="stroke: #000000; stroke-width: 0.6"/>
      </g>
     </g>
    </g>
    <g id="ytick_29">
     <g id="line2d_57">
      <g>
       <use xlink:href="#m0dcbb384ae" x="80.75" y="38.047864" style="stroke: #000000; stroke-width: 0.6"/>
      </g>
     </g>
    </g>
    <g id="text_16">
     <!-- $\mathcal{F}$ -->
     <g transform="translate(32.080781 199.7) rotate(-90) scale(0.22 -0.22)">
      <defs>
       <path id="Cmsy10-46" d="M 109 288 
Q 109 400 290 508 
Q 472 616 594 628 
L 634 628 
Q 656 616 739 480 
Q 822 344 942 255 
Q 1063 166 1281 166 
Q 1325 222 1356 275 
Q 1816 1125 2138 2009 
Q 2313 2491 2452 3005 
Q 2591 3519 2669 3994 
L 2400 3994 
Q 1763 3994 1594 3397 
Q 1531 3284 1389 3200 
Q 1247 3116 1113 3103 
L 1075 3103 
Q 1031 3131 1031 3169 
Q 1128 3509 1414 3784 
Q 1700 4059 2078 4215 
Q 2456 4372 2809 4372 
L 4684 4372 
Q 5306 4372 5306 4128 
Q 5306 3988 5137 3873 
Q 4969 3759 4806 3744 
L 4775 3744 
Q 4728 3769 4728 3781 
Q 4731 3800 4734 3822 
Q 4738 3844 4738 3853 
Q 4738 3994 4206 3994 
L 3194 3994 
Q 3013 3097 2725 2303 
L 4341 2303 
Q 4384 2281 4384 2247 
Q 4344 2094 4194 1986 
Q 4044 1878 3878 1863 
L 3841 1863 
Q 3794 1888 3794 1913 
L 3794 1925 
L 2584 1925 
Q 2303 1206 1919 494 
Q 1759 209 1465 -2 
Q 1172 -213 878 -213 
L 844 -213 
Q 594 -213 394 -80 
Q 194 53 109 288 
z
" transform="scale(0.015625)"/>
      </defs>
      <use xlink:href="#Cmsy10-46" transform="translate(0 0.6875)"/>
     </g>
    </g>
   </g>
   <g id="line2d_58">
    <path d="M 109.092211 98.028094 
L 137.434421 105.438926 
L 165.776632 114.541696 
L 194.118843 122.521201 
L 222.461054 130.86867 
L 250.803264 139.516784 
L 279.145475 147.441419 
L 307.487686 156.494519 
L 335.829897 163.144675 
L 364.172107 172.439977 
L 392.514318 178.787135 
L 420.856529 187.75928 
L 449.19874 196.287069 
L 477.54095 203.191879 
L 505.883161 212.632874 
L 534.225372 217.720645 
L 562.567583 224.718258 
L 590.909793 233.173973 
L 619.252004 239.627452 
L 647.594215 245.853171 
L 675.936426 256.081639 
" clip-path="url(#pfde3d1f853)" style="fill: none; stroke: #e6b800; stroke-width: 1.5; stroke-linecap: square"/>
    <defs>
     <path id="m5519e88bef" d="M 0 1.25 
C 0.331504 1.25 0.649475 1.118292 0.883883 0.883883 
C 1.118292 0.649475 1.25 0.331504 1.25 0 
C 1.25 -0.331504 1.118292 -0.649475 0.883883 -0.883883 
C 0.649475 -1.118292 0.331504 -1.25 0 -1.25 
C -0.331504 -1.25 -0.649475 -1.118292 -0.883883 -0.883883 
C -1.118292 -0.649475 -1.25 -0.331504 -1.25 0 
C -1.25 0.331504 -1.118292 0.649475 -0.883883 0.883883 
C -0.649475 1.118292 -0.331504 1.25 0 1.25 
z
" style="stroke: #e6b800"/>
    </defs>
    <g clip-path="url(#pfde3d1f853)">
     <use xlink:href="#m5519e88bef" x="109.092211" y="98.028094" style="fill: #e6b800; stroke: #e6b800"/>
     <use xlink:href="#m5519e88bef" x="137.434421" y="105.438926" style="fill: #e6b800; stroke: #e6b800"/>
     <use xlink:href="#m5519e88bef" x="165.776632" y="114.541696" style="fill: #e6b800; stroke: #e6b800"/>
     <use xlink:href="#m5519e88bef" x="194.118843" y="122.521201" style="fill: #e6b800; stroke: #e6b800"/>
     <use xlink:href="#m5519e88bef" x="222.461054" y="130.86867" style="fill: #e6b800; stroke: #e6b800"/>
     <use xlink:href="#m5519e88bef" x="250.803264" y="139.516784" style="fill: #e6b800; stroke: #e6b800"/>
     <use xlink:href="#m5519e88bef" x="279.145475" y="147.441419" style="fill: #e6b800; stroke: #e6b800"/>
     <use xlink:href="#m5519e88bef" x="307.487686" y="156.494519" style="fill: #e6b800; stroke: #e6b800"/>
     <use xlink:href="#m5519e88bef" x="335.829897" y="163.144675" style="fill: #e6b800; stroke: #e6b800"/>
     <use xlink:href="#m5519e88bef" x="364.172107" y="172.439977" style="fill: #e6b800; stroke: #e6b800"/>
     <use xlink:href="#m5519e88bef" x="392.514318" y="178.787135" style="fill: #e6b800; stroke: #e6b800"/>
     <use xlink:href="#m5519e88bef" x="420.856529" y="187.75928" style="fill: #e6b800; stroke: #e6b800"/>
     <use xlink:href="#m5519e88bef" x="449.19874" y="196.287069" style="fill: #e6b800; stroke: #e6b800"/>
     <use xlink:href="#m5519e88bef" x="477.54095" y="203.191879" style="fill: #e6b800; stroke: #e6b800"/>
     <use xlink:href="#m5519e88bef" x="505.883161" y="212.632874" style="fill: #e6b800; stroke: #e6b800"/>
     <use xlink:href="#m5519e88bef" x="534.225372" y="217.720645" style="fill: #e6b800; stroke: #e6b800"/>
     <use xlink:href="#m5519e88bef" x="562.567583" y="224.718258" style="fill: #e6b800; stroke: #e6b800"/>
     <use xlink:href="#m5519e88bef" x="590.909793" y="233.173973" style="fill: #e6b800; stroke: #e6b800"/>
     <use xlink:href="#m5519e88bef" x="619.252004" y="239.627452" style="fill: #e6b800; stroke: #e6b800"/>
     <use xlink:href="#m5519e88bef" x="647.594215" y="245.853171" style="fill: #e6b800; stroke: #e6b800"/>
     <use xlink:href="#m5519e88bef" x="675.936426" y="256.081639" style="fill: #e6b800; stroke: #e6b800"/>
    </g>
   </g>
   <g id="line2d_59">
    <path d="M 109.092211 67.380817 
L 137.434421 80.261641 
L 165.776632 92.569438 
L 194.118843 105.459728 
L 222.461054 119.305778 
L 250.803264 129.219681 
L 279.145475 141.393338 
L 307.487686 155.586622 
L 335.829897 165.556365 
L 364.172107 178.758426 
L 392.514318 191.044068 
L 420.856529 199.273918 
L 449.19874 213.026258 
L 477.54095 222.577055 
L 505.883161 237.611584 
L 534.225372 246.325528 
L 562.567583 257.512601 
L 590.909793 265.876689 
L 619.252004 275.859993 
L 647.594215 288.746057 
L 675.936426 298.497966 
" clip-path="url(#pfde3d1f853)" style="fill: none; stroke: #ecca40; stroke-width: 1.5; stroke-linecap: square"/>
    <defs>
     <path id="m8c4f24da33" d="M 0 1.25 
C 0.331504 1.25 0.649475 1.118292 0.883883 0.883883 
C 1.118292 0.649475 1.25 0.331504 1.25 0 
C 1.25 -0.331504 1.118292 -0.649475 0.883883 -0.883883 
C 0.649475 -1.118292 0.331504 -1.25 0 -1.25 
C -0.331504 -1.25 -0.649475 -1.118292 -0.883883 -0.883883 
C -1.118292 -0.649475 -1.25 -0.331504 -1.25 0 
C -1.25 0.331504 -1.118292 0.649475 -0.883883 0.883883 
C -0.649475 1.118292 -0.331504 1.25 0 1.25 
z
" style="stroke: #ecca40"/>
    </defs>
    <g clip-path="url(#pfde3d1f853)">
     <use xlink:href="#m8c4f24da33" x="109.092211" y="67.380817" style="fill: #ecca40; stroke: #ecca40"/>
     <use xlink:href="#m8c4f24da33" x="137.434421" y="80.261641" style="fill: #ecca40; stroke: #ecca40"/>
     <use xlink:href="#m8c4f24da33" x="165.776632" y="92.569438" style="fill: #ecca40; stroke: #ecca40"/>
     <use xlink:href="#m8c4f24da33" x="194.118843" y="105.459728" style="fill: #ecca40; stroke: #ecca40"/>
     <use xlink:href="#m8c4f24da33" x="222.461054" y="119.305778" style="fill: #ecca40; stroke: #ecca40"/>
     <use xlink:href="#m8c4f24da33" x="250.803264" y="129.219681" style="fill: #ecca40; stroke: #ecca40"/>
     <use xlink:href="#m8c4f24da33" x="279.145475" y="141.393338" style="fill: #ecca40; stroke: #ecca40"/>
     <use xlink:href="#m8c4f24da33" x="307.487686" y="155.586622" style="fill: #ecca40; stroke: #ecca40"/>
     <use xlink:href="#m8c4f24da33" x="335.829897" y="165.556365" style="fill: #ecca40; stroke: #ecca40"/>
     <use xlink:href="#m8c4f24da33" x="364.172107" y="178.758426" style="fill: #ecca40; stroke: #ecca40"/>
     <use xlink:href="#m8c4f24da33" x="392.514318" y="191.044068" style="fill: #ecca40; stroke: #ecca40"/>
     <use xlink:href="#m8c4f24da33" x="420.856529" y="199.273918" style="fill: #ecca40; stroke: #ecca40"/>
     <use xlink:href="#m8c4f24da33" x="449.19874" y="213.026258" style="fill: #ecca40; stroke: #ecca40"/>
     <use xlink:href="#m8c4f24da33" x="477.54095" y="222.577055" style="fill: #ecca40; stroke: #ecca40"/>
     <use xlink:href="#m8c4f24da33" x="505.883161" y="237.611584" style="fill: #ecca40; stroke: #ecca40"/>
     <use xlink:href="#m8c4f24da33" x="534.225372" y="246.325528" style="fill: #ecca40; stroke: #ecca40"/>
     <use xlink:href="#m8c4f24da33" x="562.567583" y="257.512601" style="fill: #ecca40; stroke: #ecca40"/>
     <use xlink:href="#m8c4f24da33" x="590.909793" y="265.876689" style="fill: #ecca40; stroke: #ecca40"/>
     <use xlink:href="#m8c4f24da33" x="619.252004" y="275.859993" style="fill: #ecca40; stroke: #ecca40"/>
     <use xlink:href="#m8c4f24da33" x="647.594215" y="288.746057" style="fill: #ecca40; stroke: #ecca40"/>
     <use xlink:href="#m8c4f24da33" x="675.936426" y="298.497966" style="fill: #ecca40; stroke: #ecca40"/>
    </g>
   </g>
   <g id="line2d_60">
    <path d="M 109.092211 59.678258 
L 137.434421 77.251536 
L 165.776632 94.221472 
L 194.118843 109.717871 
L 222.461054 127.200328 
L 250.803264 144.109221 
L 279.145475 160.187453 
L 307.487686 176.273826 
L 335.829897 190.252651 
L 364.172107 202.192267 
L 392.514318 218.75342 
L 420.856529 233.335208 
L 449.19874 249.76655 
L 477.54095 261.006587 
L 505.883161 273.033692 
L 534.225372 287.986993 
L 562.567583 298.727298 
L 590.909793 315.774976 
L 619.252004 328.15789 
L 647.594215 336.600702 
L 675.936426 352.38 
" clip-path="url(#pfde3d1f853)" style="fill: none; stroke: #f2dc80; stroke-width: 1.5; stroke-linecap: square"/>
    <defs>
     <path id="mea93cf070c" d="M 0 1.25 
C 0.331504 1.25 0.649475 1.118292 0.883883 0.883883 
C 1.118292 0.649475 1.25 0.331504 1.25 0 
C 1.25 -0.331504 1.118292 -0.649475 0.883883 -0.883883 
C 0.649475 -1.118292 0.331504 -1.25 0 -1.25 
C -0.331504 -1.25 -0.649475 -1.118292 -0.883883 -0.883883 
C -1.118292 -0.649475 -1.25 -0.331504 -1.25 0 
C -1.25 0.331504 -1.118292 0.649475 -0.883883 0.883883 
C -0.649475 1.118292 -0.331504 1.25 0 1.25 
z
" style="stroke: #f2dc80"/>
    </defs>
    <g clip-path="url(#pfde3d1f853)">
     <use xlink:href="#mea93cf070c" x="109.092211" y="59.678258" style="fill: #f2dc80; stroke: #f2dc80"/>
     <use xlink:href="#mea93cf070c" x="137.434421" y="77.251536" style="fill: #f2dc80; stroke: #f2dc80"/>
     <use xlink:href="#mea93cf070c" x="165.776632" y="94.221472" style="fill: #f2dc80; stroke: #f2dc80"/>
     <use xlink:href="#mea93cf070c" x="194.118843" y="109.717871" style="fill: #f2dc80; stroke: #f2dc80"/>
     <use xlink:href="#mea93cf070c" x="222.461054" y="127.200328" style="fill: #f2dc80; stroke: #f2dc80"/>
     <use xlink:href="#mea93cf070c" x="250.803264" y="144.109221" style="fill: #f2dc80; stroke: #f2dc80"/>
     <use xlink:href="#mea93cf070c" x="279.145475" y="160.187453" style="fill: #f2dc80; stroke: #f2dc80"/>
     <use xlink:href="#mea93cf070c" x="307.487686" y="176.273826" style="fill: #f2dc80; stroke: #f2dc80"/>
     <use xlink:href="#mea93cf070c" x="335.829897" y="190.252651" style="fill: #f2dc80; stroke: #f2dc80"/>
     <use xlink:href="#mea93cf070c" x="364.172107" y="202.192267" style="fill: #f2dc80; stroke: #f2dc80"/>
     <use xlink:href="#mea93cf070c" x="392.514318" y="218.75342" style="fill: #f2dc80; stroke: #f2dc80"/>
     <use xlink:href="#mea93cf070c" x="420.856529" y="233.335208" style="fill: #f2dc80; stroke: #f2dc80"/>
     <use xlink:href="#mea93cf070c" x="449.19874" y="249.76655" style="fill: #f2dc80; stroke: #f2dc80"/>
     <use xlink:href="#mea93cf070c" x="477.54095" y="261.006587" style="fill: #f2dc80; stroke: #f2dc80"/>
     <use xlink:href="#mea93cf070c" x="505.883161" y="273.033692" style="fill: #f2dc80; stroke: #f2dc80"/>
     <use xlink:href="#mea93cf070c" x="534.225372" y="287.986993" style="fill: #f2dc80; stroke: #f2dc80"/>
     <use xlink:href="#mea93cf070c" x="562.567583" y="298.727298" style="fill: #f2dc80; stroke: #f2dc80"/>
     <use xlink:href="#mea93cf070c" x="590.909793" y="315.774976" style="fill: #f2dc80; stroke: #f2dc80"/>
     <use xlink:href="#mea93cf070c" x="619.252004" y="328.15789" style="fill: #f2dc80; stroke: #f2dc80"/>
     <use xlink:href="#mea93cf070c" x="647.594215" y="336.600702" style="fill: #f2dc80; stroke: #f2dc80"/>
     <use xlink:href="#mea93cf070c" x="675.936426" y="352.38" style="fill: #f2dc80; stroke: #f2dc80"/>
    </g>
   </g>
   <g id="line2d_61">
    <path d="M 80.75 199.859199 
L 704.278636 199.859199 
" clip-path="url(#pfde3d1f853)" style="fill: none; stroke-dasharray: 5.55,2.4; stroke-dashoffset: 0; stroke: #808080; stroke-width: 1.5"/>
   </g>
   <g id="line2d_62">
    <path d="M 80.75 31.18 
L 704.278636 31.18 
" clip-path="url(#pfde3d1f853)" style="fill: none; stroke-dasharray: 5.55,2.4; stroke-dashoffset: 0; stroke: #000000; stroke-width: 1.5"/>
   </g>
   <g id="patch_3">
    <path d="M 80.75 368.44 
L 80.75 15.12 
" style="fill: none; stroke: #000000; stroke-width: 0.8; stroke-linejoin: miter; stroke-linecap: square"/>
   </g>
   <g id="patch_4">
    <path d="M 704.278636 368.44 
L 704.278636 15.12 
" style="fill: none; stroke: #000000; stroke-width: 0.8; stroke-linejoin: miter; stroke-linecap: square"/>
   </g>
   <g id="patch_5">
    <path d="M 80.75 368.44 
L 704.278636 368.44 
" style="fill: none; stroke: #000000; stroke-width: 0.8; stroke-linejoin: miter; stroke-linecap: square"/>
   </g>
   <g id="patch_6">
    <path d="M 80.75 15.12 
L 704.278636 15.12 
" style="fill: none; stroke: #000000; stroke-width: 0.8; stroke-linejoin: miter; stroke-linecap: square"/>
   </g>
  </g>
 </g>
 <defs>
  <clipPath id="pfde3d1f853">
   <rect x="80.75" y="15.12" width="623.528636" height="353.32"/>
  </clipPath>
 </defs>
</svg>
