<?xml version="1.0" encoding="utf-8" standalone="no"?>
<!DOCTYPE svg PUBLIC "-//W3C//DTD SVG 1.1//EN"
  "http://www.w3.org/Graphics/SVG/1.1/DTD/svg11.dtd">
<svg xmlns:xlink="http://www.w3.org/1999/xlink" width="220pt" height="320pt" viewBox="0 0 220 320" xmlns="http://www.w3.org/2000/svg" version="1.1">
 <metadata>
  <rdf:RDF xmlns:dc="http://purl.org/dc/elements/1.1/" xmlns:cc="http://creativecommons.org/ns#" xmlns:rdf="http://www.w3.org/1999/02/22-rdf-syntax-ns#">
   <cc:Work>
    <dc:type rdf:resource="http://purl.org/dc/dcmitype/StillImage"/>
    <dc:date>2026-03-16T22:33:12.117761</dc:date>
    <dc:format>image/svg+xml</dc:format>
    <dc:creator>
     <cc:Agent>
      <dc:title>Matplotlib v3.10.8, https://matplotlib.org/</dc:title>
     </cc:Agent>
    </dc:creator>
   </cc:Work>
  </rdf:RDF>
 </metadata>
 <defs>
  <style type="text/css">*{stroke-linejoin: round; stroke-linecap: butt}</style>
 </defs>
 <g id="figure_1">
  <g id="patch_1">
   <path d="M 0 320 
L 220 320 
L 220 0 
L 0 0 
z
" style="fill: #ffffff"/>
  </g>
  <g id="axes_1">
   <g id="patch_2">
    <path d="M 67.477054 267.772994 
L 208.641253 267.772994 
L 208.641253 16.12374 
L 67.477054 16.12374 
z
" style="fill: #ffffff"/>
   </g>
   <g id="matplotlib.axis_1">
    <g id="xtick_1">
     <g id="line2d_1">
      <defs>
       <path id="m7201d133af" d="M 0 0 
L 0 3.5 
" style="stroke: #000000"/>
      </defs>
      <g>
       <use xlink:href="#m7201d133af" x="130.929648" y="267.772994" style="stroke: #000000"/>
      </g>
     </g>
     <g id="text_1">
      <!-- $\mathdefault{20}$ -->
      <g transform="translate(122.620901 285.420474) scale(0.15 -0.15)">
       <defs>
        <path id="NimbusSanL-Regu-32" d="M 3238 556 
L 851 556 
C 909 928 1114 1165 1670 1493 
L 2310 1839 
C 2944 2185 3270 2653 3270 3211 
C 3270 3589 3117 3942 2848 4185 
C 2579 4428 2246 4544 1818 4544 
C 1242 4544 813 4339 563 3955 
C 403 3711 333 3429 320 2967 
L 883 2967 
C 902 3275 941 3461 1018 3608 
C 1165 3884 1459 4051 1798 4051 
C 2310 4051 2694 3685 2694 3198 
C 2694 2839 2483 2531 2080 2300 
L 1491 1967 
C 544 1428 269 999 218 0 
L 3238 0 
L 3238 556 
z
" transform="scale(0.015625)"/>
        <path id="NimbusSanL-Regu-30" d="M 1760 4544 
C 1338 4544 954 4358 717 4044 
C 422 3649 275 3043 275 2207 
C 275 683 787 -128 1760 -128 
C 2720 -128 3245 683 3245 2169 
C 3245 3049 3104 3636 2803 4044 
C 2566 4364 2189 4544 1760 4544 
z
M 1760 4044 
C 2368 4044 2669 3432 2669 2220 
C 2669 938 2374 339 1747 339 
C 1152 339 851 964 851 2201 
C 851 3438 1152 4044 1760 4044 
z
" transform="scale(0.015625)"/>
       </defs>
       <use xlink:href="#NimbusSanL-Regu-32" transform="scale(0.996264)"/>
       <use xlink:href="#NimbusSanL-Regu-30" transform="translate(55.391677 0) scale(0.996264)"/>
      </g>
     </g>
    </g>
    <g id="xtick_2">
     <g id="line2d_2">
      <g>
       <use xlink:href="#m7201d133af" x="202.224699" y="267.772994" style="stroke: #000000"/>
      </g>
     </g>
     <g id="text_2">
      <!-- $\mathdefault{40}$ -->
      <g transform="translate(193.915952 285.420474) scale(0.15 -0.15)">
       <defs>
        <path id="NimbusSanL-Regu-34" d="M 2093 1088 
L 2093 0 
L 2656 0 
L 2656 1088 
L 3328 1088 
L 3328 1593 
L 2656 1593 
L 2656 4537 
L 2240 4537 
L 179 1683 
L 179 1088 
L 2093 1088 
z
M 2093 1593 
L 672 1593 
L 2093 3577 
L 2093 1593 
z
" transform="scale(0.015625)"/>
       </defs>
       <use xlink:href="#NimbusSanL-Regu-34" transform="scale(0.996264)"/>
       <use xlink:href="#NimbusSanL-Regu-30" transform="translate(55.391677 0) scale(0.996264)"/>
      </g>
     </g>
    </g>
    <g id="xtick_3">
     <g id="line2d_3">
      <defs>
       <path id="m1d90f8c550" d="M 0 0 
L 0 2 
" style="stroke: #000000; stroke-width: 0.8"/>
      </defs>
      <g>
       <use xlink:href="#m1d90f8c550" x="71.517107" y="267.772994" style="stroke: #000000; stroke-width: 0.8"/>
      </g>
     </g>
    </g>
    <g id="xtick_4">
     <g id="line2d_4">
      <g>
       <use xlink:href="#m1d90f8c550" x="83.399615" y="267.772994" style="stroke: #000000; stroke-width: 0.8"/>
      </g>
     </g>
    </g>
    <g id="xtick_5">
     <g id="line2d_5">
      <g>
       <use xlink:href="#m1d90f8c550" x="95.282123" y="267.772994" style="stroke: #000000; stroke-width: 0.8"/>
      </g>
     </g>
    </g>
    <g id="xtick_6">
     <g id="line2d_6">
      <g>
       <use xlink:href="#m1d90f8c550" x="107.164632" y="267.772994" style="stroke: #000000; stroke-width: 0.8"/>
      </g>
     </g>
    </g>
    <g id="xtick_7">
     <g id="line2d_7">
      <g>
       <use xlink:href="#m1d90f8c550" x="119.04714" y="267.772994" style="stroke: #000000; stroke-width: 0.8"/>
      </g>
     </g>
    </g>
    <g id="xtick_8">
     <g id="line2d_8">
      <g>
       <use xlink:href="#m1d90f8c550" x="142.812157" y="267.772994" style="stroke: #000000; stroke-width: 0.8"/>
      </g>
     </g>
    </g>
    <g id="xtick_9">
     <g id="line2d_9">
      <g>
       <use xlink:href="#m1d90f8c550" x="154.694665" y="267.772994" style="stroke: #000000; stroke-width: 0.8"/>
      </g>
     </g>
    </g>
    <g id="xtick_10">
     <g id="line2d_10">
      <g>
       <use xlink:href="#m1d90f8c550" x="166.577173" y="267.772994" style="stroke: #000000; stroke-width: 0.8"/>
      </g>
     </g>
    </g>
    <g id="xtick_11">
     <g id="line2d_11">
      <g>
       <use xlink:href="#m1d90f8c550" x="178.459682" y="267.772994" style="stroke: #000000; stroke-width: 0.8"/>
      </g>
     </g>
    </g>
    <g id="xtick_12">
     <g id="line2d_12">
      <g>
       <use xlink:href="#m1d90f8c550" x="190.34219" y="267.772994" style="stroke: #000000; stroke-width: 0.8"/>
      </g>
     </g>
    </g>
    <g id="text_3">
     <!-- Preparation depth $D$ -->
     <g transform="translate(57.909823 305.380431) scale(0.18 -0.18)">
      <defs>
       <path id="NimbusSanL-Regu-50" d="M 1178 1984 
L 2643 1984 
C 3008 1984 3296 2092 3546 2316 
C 3827 2572 3949 2873 3949 3302 
C 3949 4179 3430 4672 2509 4672 
L 582 4672 
L 582 0 
L 1178 0 
L 1178 1984 
z
M 1178 2508 
L 1178 4147 
L 2419 4147 
C 2989 4147 3328 3839 3328 3327 
C 3328 2816 2989 2508 2419 2508 
L 1178 2508 
z
" transform="scale(0.015625)"/>
       <path id="NimbusSanL-Regu-72" d="M 442 3328 
L 442 0 
L 979 0 
L 979 1727 
C 979 2203 1101 2514 1357 2698 
C 1523 2819 1683 2857 2054 2863 
L 2054 3404 
C 1965 3449 1920 3456 1850 3456 
C 1504 3456 1242 3251 934 2750 
L 934 3328 
L 442 3328 
z
" transform="scale(0.015625)"/>
       <path id="NimbusSanL-Regu-65" d="M 3283 1484 
C 3283 1998 3245 2311 3149 2565 
C 2931 3123 2419 3456 1792 3456 
C 858 3456 256 2734 256 1619 
C 256 545 838 -128 1779 -128 
C 2547 -128 3078 307 3213 1018 
L 2675 1018 
C 2528 588 2227 364 1798 364 
C 1459 364 1171 514 992 787 
C 864 974 819 1161 813 1484 
L 3283 1484 
z
M 826 1920 
C 870 2552 1248 2963 1786 2963 
C 2310 2963 2714 2519 2714 1959 
C 2714 1946 2714 1933 2707 1920 
L 826 1920 
z
" transform="scale(0.015625)"/>
       <path id="NimbusSanL-Regu-70" d="M 346 -1408 
L 883 -1408 
L 883 371 
C 1165 25 1478 -128 1914 -128 
C 2778 -128 3347 568 3347 1632 
C 3347 2752 2797 3456 1907 3456 
C 1453 3456 1088 3251 838 2854 
L 838 3359 
L 346 3359 
L 346 -1408 
z
M 1818 2956 
C 2406 2956 2790 2440 2790 1644 
C 2790 887 2400 371 1818 371 
C 1254 371 883 880 883 1663 
C 883 2447 1254 2956 1818 2956 
z
" transform="scale(0.015625)"/>
       <path id="NimbusSanL-Regu-61" d="M 3424 332 
C 3366 320 3341 320 3309 320 
C 3123 320 3021 415 3021 581 
L 3021 2542 
C 3021 3135 2586 3456 1760 3456 
C 1274 3456 870 3315 646 3065 
C 493 2893 429 2702 416 2370 
L 954 2370 
C 998 2778 1242 2963 1741 2963 
C 2221 2963 2490 2784 2490 2466 
L 2490 2326 
C 2490 2103 2355 2007 1933 1956 
C 1178 1861 1062 1835 858 1753 
C 467 1593 269 1294 269 861 
C 269 256 691 -128 1370 -128 
C 1792 -128 2131 19 2509 364 
C 2547 25 2714 -128 3059 -128 
C 3168 -128 3251 -116 3424 -71 
L 3424 332 
z
M 2490 1071 
C 2490 893 2438 785 2278 638 
C 2061 441 1798 339 1485 339 
C 1069 339 826 536 826 874 
C 826 1224 1062 1402 1632 1485 
C 2195 1562 2310 1587 2490 1670 
L 2490 1071 
z
" transform="scale(0.015625)"/>
       <path id="NimbusSanL-Regu-74" d="M 1626 3328 
L 1075 3328 
L 1075 4249 
L 544 4249 
L 544 3328 
L 90 3328 
L 90 2892 
L 544 2892 
L 544 402 
C 544 64 774 -128 1190 -128 
C 1318 -128 1446 -116 1626 -84 
L 1626 364 
C 1555 345 1472 339 1370 339 
C 1139 339 1075 402 1075 634 
L 1075 2892 
L 1626 2892 
L 1626 3328 
z
" transform="scale(0.015625)"/>
       <path id="NimbusSanL-Regu-69" d="M 960 3358 
L 429 3358 
L 429 0 
L 960 0 
L 960 3358 
z
M 960 4672 
L 422 4672 
L 422 3999 
L 960 3999 
L 960 4672 
z
" transform="scale(0.015625)"/>
       <path id="NimbusSanL-Regu-6f" d="M 1741 3456 
C 800 3456 230 2784 230 1663 
C 230 543 794 -128 1747 -128 
C 2688 -128 3264 543 3264 1638 
C 3264 2791 2707 3456 1741 3456 
z
M 1747 2963 
C 2349 2963 2707 2472 2707 1644 
C 2707 861 2336 364 1747 364 
C 1152 364 787 855 787 1663 
C 787 2466 1152 2963 1747 2963 
z
" transform="scale(0.015625)"/>
       <path id="NimbusSanL-Regu-6e" d="M 448 3328 
L 448 0 
L 986 0 
L 986 1835 
C 986 2539 1344 2988 1894 2988 
C 2317 2988 2586 2732 2586 2328 
L 2586 0 
L 3117 0 
L 3117 2539 
C 3117 3097 2701 3456 2054 3456 
C 1555 3456 1235 3263 941 2796 
L 941 3328 
L 448 3328 
z
" transform="scale(0.015625)"/>
       <path id="NimbusSanL-Regu-64" d="M 3168 4672 
L 2637 4672 
L 2637 2937 
C 2413 3276 2054 3456 1606 3456 
C 736 3456 166 2759 166 1695 
C 166 568 723 -128 1626 -128 
C 2086 -128 2406 44 2694 460 
L 2694 19 
L 3168 19 
L 3168 4672 
z
M 1696 2956 
C 2272 2956 2637 2447 2637 1651 
C 2637 880 2266 371 1702 371 
C 1114 371 723 887 723 1663 
C 723 2440 1114 2956 1696 2956 
z
" transform="scale(0.015625)"/>
       <path id="NimbusSanL-Regu-68" d="M 448 4672 
L 448 0 
L 979 0 
L 979 1853 
C 979 2539 1338 2988 1888 2988 
C 2061 2988 2234 2930 2362 2834 
C 2515 2725 2579 2565 2579 2328 
L 2579 0 
L 3110 0 
L 3110 2539 
C 3110 3103 2707 3456 2054 3456 
C 1581 3456 1293 3308 979 2898 
L 979 4672 
L 448 4672 
z
" transform="scale(0.015625)"/>
       <path id="NimbusSanL-ReguItal-44" d="M 570 0 
L 2374 0 
C 3066 0 3648 288 4115 858 
C 4550 1390 4858 2326 4858 3127 
C 4858 3595 4666 4070 4365 4339 
C 4122 4556 3782 4672 3366 4672 
L 1562 4672 
L 570 0 
z
M 1280 524 
L 2054 4147 
L 3149 4147 
C 3834 4147 4243 3743 4243 3076 
C 4243 2486 4038 1717 3782 1313 
C 3450 800 2963 524 2381 524 
L 1280 524 
z
" transform="scale(0.015625)"/>
      </defs>
      <use xlink:href="#NimbusSanL-Regu-50" transform="scale(0.996264)"/>
      <use xlink:href="#NimbusSanL-Regu-72" transform="translate(66.450031 0) scale(0.996264)"/>
      <use xlink:href="#NimbusSanL-Regu-65" transform="translate(99.625261 0) scale(0.996264)"/>
      <use xlink:href="#NimbusSanL-Regu-70" transform="translate(155.016938 0) scale(0.996264)"/>
      <use xlink:href="#NimbusSanL-Regu-61" transform="translate(210.408615 0) scale(0.996264)"/>
      <use xlink:href="#NimbusSanL-Regu-72" transform="translate(265.800292 0) scale(0.996264)"/>
      <use xlink:href="#NimbusSanL-Regu-61" transform="translate(297.979425 0) scale(0.996264)"/>
      <use xlink:href="#NimbusSanL-Regu-74" transform="translate(353.371102 0) scale(0.996264)"/>
      <use xlink:href="#NimbusSanL-Regu-69" transform="translate(381.066271 0) scale(0.996264)"/>
      <use xlink:href="#NimbusSanL-Regu-6f" transform="translate(403.183056 0) scale(0.996264)"/>
      <use xlink:href="#NimbusSanL-Regu-6e" transform="translate(458.574733 0) scale(0.996264)"/>
      <use xlink:href="#NimbusSanL-Regu-64" transform="translate(541.661579 0) scale(0.996264)"/>
      <use xlink:href="#NimbusSanL-Regu-65" transform="translate(597.053256 0) scale(0.996264)"/>
      <use xlink:href="#NimbusSanL-Regu-70" transform="translate(652.444933 0) scale(0.996264)"/>
      <use xlink:href="#NimbusSanL-Regu-74" transform="translate(707.83661 0) scale(0.996264)"/>
      <use xlink:href="#NimbusSanL-Regu-68" transform="translate(735.53178 0) scale(0.996264)"/>
      <use xlink:href="#NimbusSanL-ReguItal-44" transform="translate(818.618626 0) scale(0.996264)"/>
     </g>
    </g>
   </g>
   <g id="matplotlib.axis_2">
    <g id="ytick_1">
     <g id="line2d_13">
      <defs>
       <path id="mb573d480dc" d="M 0 0 
L -3.5 0 
" style="stroke: #000000"/>
      </defs>
      <g>
       <use xlink:href="#mb573d480dc" x="67.477054" y="267.772994" style="stroke: #000000"/>
      </g>
     </g>
     <g id="text_4">
      <!-- $\mathdefault{0.65}$ -->
      <g transform="translate(31.396546 273.096734) scale(0.15 -0.15)">
       <defs>
        <path id="NimbusSanL-Regu-2e" d="M 1222 665 
L 557 665 
L 557 0 
L 1222 0 
L 1222 665 
z
" transform="scale(0.015625)"/>
        <path id="NimbusSanL-Regu-36" d="M 3187 3352 
C 3078 4102 2592 4544 1901 4544 
C 1402 4544 954 4300 685 3895 
C 403 3449 275 2887 275 2064 
C 275 1312 390 832 659 434 
C 902 70 1299 -128 1798 -128 
C 2662 -128 3283 510 3283 1388 
C 3283 2221 2707 2816 1894 2816 
C 1446 2816 1094 2643 851 2310 
C 858 3423 1216 4044 1862 4044 
C 2259 4044 2534 3792 2624 3352 
L 3187 3352 
z
M 1824 2316 
C 2368 2316 2707 1944 2707 1343 
C 2707 781 2323 371 1805 371 
C 1280 371 883 800 883 1375 
C 883 1931 1267 2316 1824 2316 
z
" transform="scale(0.015625)"/>
        <path id="NimbusSanL-Regu-35" d="M 3046 4544 
L 704 4544 
L 365 2076 
L 883 2076 
C 1146 2387 1363 2496 1715 2496 
C 2323 2496 2707 2082 2707 1414 
C 2707 765 2330 371 1715 371 
C 1222 371 922 619 787 1128 
L 224 1128 
C 301 759 365 581 499 415 
C 755 70 1216 -128 1728 -128 
C 2643 -128 3283 536 3283 1490 
C 3283 2381 2688 2995 1818 2995 
C 1498 2995 1242 2912 979 2720 
L 1158 3987 
L 3046 3987 
L 3046 4544 
z
" transform="scale(0.015625)"/>
       </defs>
       <use xlink:href="#NimbusSanL-Regu-30" transform="scale(0.996264)"/>
       <use xlink:href="#NimbusSanL-Regu-2e" transform="translate(55.391677 0) scale(0.996264)"/>
       <use xlink:href="#NimbusSanL-Regu-36" transform="translate(83.086847 0) scale(0.996264)"/>
       <use xlink:href="#NimbusSanL-Regu-35" transform="translate(138.478524 0) scale(0.996264)"/>
      </g>
     </g>
    </g>
    <g id="ytick_2">
     <g id="line2d_14">
      <g>
       <use xlink:href="#mb573d480dc" x="67.477054" y="231.823101" style="stroke: #000000"/>
      </g>
     </g>
     <g id="text_5">
      <!-- $\mathdefault{0.70}$ -->
      <g transform="translate(31.396546 237.146841) scale(0.15 -0.15)">
       <defs>
        <path id="NimbusSanL-Regu-37" d="M 3328 4544 
L 294 4544 
L 294 3987 
L 2746 3987 
C 1664 2442 1222 1493 883 0 
L 1485 0 
C 1734 1454 2304 2704 3328 4070 
L 3328 4544 
z
" transform="scale(0.015625)"/>
       </defs>
       <use xlink:href="#NimbusSanL-Regu-30" transform="scale(0.996264)"/>
       <use xlink:href="#NimbusSanL-Regu-2e" transform="translate(55.391677 0) scale(0.996264)"/>
       <use xlink:href="#NimbusSanL-Regu-37" transform="translate(83.086847 0) scale(0.996264)"/>
       <use xlink:href="#NimbusSanL-Regu-30" transform="translate(138.478524 0) scale(0.996264)"/>
      </g>
     </g>
    </g>
    <g id="ytick_3">
     <g id="line2d_15">
      <g>
       <use xlink:href="#mb573d480dc" x="67.477054" y="195.873207" style="stroke: #000000"/>
      </g>
     </g>
     <g id="text_6">
      <!-- $\mathdefault{0.75}$ -->
      <g transform="translate(31.396546 201.196947) scale(0.15 -0.15)">
       <use xlink:href="#NimbusSanL-Regu-30" transform="scale(0.996264)"/>
       <use xlink:href="#NimbusSanL-Regu-2e" transform="translate(55.391677 0) scale(0.996264)"/>
       <use xlink:href="#NimbusSanL-Regu-37" transform="translate(83.086847 0) scale(0.996264)"/>
       <use xlink:href="#NimbusSanL-Regu-35" transform="translate(138.478524 0) scale(0.996264)"/>
      </g>
     </g>
    </g>
    <g id="ytick_4">
     <g id="line2d_16">
      <g>
       <use xlink:href="#mb573d480dc" x="67.477054" y="159.923314" style="stroke: #000000"/>
      </g>
     </g>
     <g id="text_7">
      <!-- $\mathdefault{0.80}$ -->
      <g transform="translate(31.396546 165.247054) scale(0.15 -0.15)">
       <defs>
        <path id="NimbusSanL-Regu-38" d="M 2502 2399 
C 2970 2681 3123 2910 3123 3337 
C 3123 4044 2566 4544 1760 4544 
C 960 4544 397 4044 397 3337 
C 397 2917 550 2687 1011 2399 
C 493 2150 237 1774 237 1276 
C 237 447 864 -128 1760 -128 
C 2656 -128 3283 447 3283 1270 
C 3283 1774 3027 2150 2502 2399 
z
M 1760 4044 
C 2240 4044 2547 3764 2547 3324 
C 2547 2904 2234 2624 1760 2624 
C 1286 2624 973 2904 973 3331 
C 973 3764 1286 4044 1760 4044 
z
M 1760 2150 
C 2323 2150 2707 1793 2707 1264 
C 2707 728 2323 371 1747 371 
C 1197 371 813 734 813 1264 
C 813 1793 1197 2150 1760 2150 
z
" transform="scale(0.015625)"/>
       </defs>
       <use xlink:href="#NimbusSanL-Regu-30" transform="scale(0.996264)"/>
       <use xlink:href="#NimbusSanL-Regu-2e" transform="translate(55.391677 0) scale(0.996264)"/>
       <use xlink:href="#NimbusSanL-Regu-38" transform="translate(83.086847 0) scale(0.996264)"/>
       <use xlink:href="#NimbusSanL-Regu-30" transform="translate(138.478524 0) scale(0.996264)"/>
      </g>
     </g>
    </g>
    <g id="ytick_5">
     <g id="line2d_17">
      <g>
       <use xlink:href="#mb573d480dc" x="67.477054" y="123.97342" style="stroke: #000000"/>
      </g>
     </g>
     <g id="text_8">
      <!-- $\mathdefault{0.85}$ -->
      <g transform="translate(31.396546 129.297161) scale(0.15 -0.15)">
       <use xlink:href="#NimbusSanL-Regu-30" transform="scale(0.996264)"/>
       <use xlink:href="#NimbusSanL-Regu-2e" transform="translate(55.391677 0) scale(0.996264)"/>
       <use xlink:href="#NimbusSanL-Regu-38" transform="translate(83.086847 0) scale(0.996264)"/>
       <use xlink:href="#NimbusSanL-Regu-35" transform="translate(138.478524 0) scale(0.996264)"/>
      </g>
     </g>
    </g>
    <g id="ytick_6">
     <g id="line2d_18">
      <g>
       <use xlink:href="#mb573d480dc" x="67.477054" y="88.023527" style="stroke: #000000"/>
      </g>
     </g>
     <g id="text_9">
      <!-- $\mathdefault{0.90}$ -->
      <g transform="translate(31.396546 93.347267) scale(0.15 -0.15)">
       <defs>
        <path id="NimbusSanL-Regu-39" d="M 339 1063 
C 448 313 934 -128 1626 -128 
C 2125 -128 2579 115 2842 519 
C 3130 966 3258 1528 3258 2351 
C 3258 3103 3142 3583 2874 3981 
C 2624 4345 2227 4544 1728 4544 
C 864 4544 243 3906 243 3027 
C 243 2193 819 1600 1638 1600 
C 2067 1600 2381 1753 2675 2105 
C 2669 992 2310 371 1664 371 
C 1267 371 992 623 902 1063 
L 339 1063 
z
M 1722 4051 
C 2246 4051 2643 3621 2643 3040 
C 2643 2490 2253 2099 1702 2099 
C 1158 2099 819 2471 819 3072 
C 819 3640 1203 4051 1722 4051 
z
" transform="scale(0.015625)"/>
       </defs>
       <use xlink:href="#NimbusSanL-Regu-30" transform="scale(0.996264)"/>
       <use xlink:href="#NimbusSanL-Regu-2e" transform="translate(55.391677 0) scale(0.996264)"/>
       <use xlink:href="#NimbusSanL-Regu-39" transform="translate(83.086847 0) scale(0.996264)"/>
       <use xlink:href="#NimbusSanL-Regu-30" transform="translate(138.478524 0) scale(0.996264)"/>
      </g>
     </g>
    </g>
    <g id="ytick_7">
     <g id="line2d_19">
      <g>
       <use xlink:href="#mb573d480dc" x="67.477054" y="52.073634" style="stroke: #000000"/>
      </g>
     </g>
     <g id="text_10">
      <!-- $\mathdefault{0.95}$ -->
      <g transform="translate(31.396546 57.397374) scale(0.15 -0.15)">
       <use xlink:href="#NimbusSanL-Regu-30" transform="scale(0.996264)"/>
       <use xlink:href="#NimbusSanL-Regu-2e" transform="translate(55.391677 0) scale(0.996264)"/>
       <use xlink:href="#NimbusSanL-Regu-39" transform="translate(83.086847 0) scale(0.996264)"/>
       <use xlink:href="#NimbusSanL-Regu-35" transform="translate(138.478524 0) scale(0.996264)"/>
      </g>
     </g>
    </g>
    <g id="ytick_8">
     <g id="line2d_20">
      <g>
       <use xlink:href="#mb573d480dc" x="67.477054" y="16.12374" style="stroke: #000000"/>
      </g>
     </g>
     <g id="text_11">
      <!-- $\mathdefault{1.00}$ -->
      <g transform="translate(31.396546 21.44748) scale(0.15 -0.15)">
       <defs>
        <path id="NimbusSanL-Regu-31" d="M 1658 3232 
L 1658 0 
L 2221 0 
L 2221 4537 
L 1850 4537 
C 1651 3840 1523 3744 653 3635 
L 653 3232 
L 1658 3232 
z
" transform="scale(0.015625)"/>
       </defs>
       <use xlink:href="#NimbusSanL-Regu-31" transform="scale(0.996264)"/>
       <use xlink:href="#NimbusSanL-Regu-2e" transform="translate(55.391677 0) scale(0.996264)"/>
       <use xlink:href="#NimbusSanL-Regu-30" transform="translate(83.086847 0) scale(0.996264)"/>
       <use xlink:href="#NimbusSanL-Regu-30" transform="translate(138.478524 0) scale(0.996264)"/>
      </g>
     </g>
    </g>
    <g id="ytick_9">
     <g id="line2d_21">
      <defs>
       <path id="m0717748930" d="M 0 0 
L -2 0 
" style="stroke: #000000; stroke-width: 0.8"/>
      </defs>
      <g>
       <use xlink:href="#m0717748930" x="67.477054" y="261.781345" style="stroke: #000000; stroke-width: 0.8"/>
      </g>
     </g>
    </g>
    <g id="ytick_10">
     <g id="line2d_22">
      <g>
       <use xlink:href="#m0717748930" x="67.477054" y="255.789696" style="stroke: #000000; stroke-width: 0.8"/>
      </g>
     </g>
    </g>
    <g id="ytick_11">
     <g id="line2d_23">
      <g>
       <use xlink:href="#m0717748930" x="67.477054" y="249.798047" style="stroke: #000000; stroke-width: 0.8"/>
      </g>
     </g>
    </g>
    <g id="ytick_12">
     <g id="line2d_24">
      <g>
       <use xlink:href="#m0717748930" x="67.477054" y="243.806398" style="stroke: #000000; stroke-width: 0.8"/>
      </g>
     </g>
    </g>
    <g id="ytick_13">
     <g id="line2d_25">
      <g>
       <use xlink:href="#m0717748930" x="67.477054" y="237.81475" style="stroke: #000000; stroke-width: 0.8"/>
      </g>
     </g>
    </g>
    <g id="ytick_14">
     <g id="line2d_26">
      <g>
       <use xlink:href="#m0717748930" x="67.477054" y="225.831452" style="stroke: #000000; stroke-width: 0.8"/>
      </g>
     </g>
    </g>
    <g id="ytick_15">
     <g id="line2d_27">
      <g>
       <use xlink:href="#m0717748930" x="67.477054" y="219.839803" style="stroke: #000000; stroke-width: 0.8"/>
      </g>
     </g>
    </g>
    <g id="ytick_16">
     <g id="line2d_28">
      <g>
       <use xlink:href="#m0717748930" x="67.477054" y="213.848154" style="stroke: #000000; stroke-width: 0.8"/>
      </g>
     </g>
    </g>
    <g id="ytick_17">
     <g id="line2d_29">
      <g>
       <use xlink:href="#m0717748930" x="67.477054" y="207.856505" style="stroke: #000000; stroke-width: 0.8"/>
      </g>
     </g>
    </g>
    <g id="ytick_18">
     <g id="line2d_30">
      <g>
       <use xlink:href="#m0717748930" x="67.477054" y="201.864856" style="stroke: #000000; stroke-width: 0.8"/>
      </g>
     </g>
    </g>
    <g id="ytick_19">
     <g id="line2d_31">
      <g>
       <use xlink:href="#m0717748930" x="67.477054" y="189.881558" style="stroke: #000000; stroke-width: 0.8"/>
      </g>
     </g>
    </g>
    <g id="ytick_20">
     <g id="line2d_32">
      <g>
       <use xlink:href="#m0717748930" x="67.477054" y="183.889909" style="stroke: #000000; stroke-width: 0.8"/>
      </g>
     </g>
    </g>
    <g id="ytick_21">
     <g id="line2d_33">
      <g>
       <use xlink:href="#m0717748930" x="67.477054" y="177.898261" style="stroke: #000000; stroke-width: 0.8"/>
      </g>
     </g>
    </g>
    <g id="ytick_22">
     <g id="line2d_34">
      <g>
       <use xlink:href="#m0717748930" x="67.477054" y="171.906612" style="stroke: #000000; stroke-width: 0.8"/>
      </g>
     </g>
    </g>
    <g id="ytick_23">
     <g id="line2d_35">
      <g>
       <use xlink:href="#m0717748930" x="67.477054" y="165.914963" style="stroke: #000000; stroke-width: 0.8"/>
      </g>
     </g>
    </g>
    <g id="ytick_24">
     <g id="line2d_36">
      <g>
       <use xlink:href="#m0717748930" x="67.477054" y="153.931665" style="stroke: #000000; stroke-width: 0.8"/>
      </g>
     </g>
    </g>
    <g id="ytick_25">
     <g id="line2d_37">
      <g>
       <use xlink:href="#m0717748930" x="67.477054" y="147.940016" style="stroke: #000000; stroke-width: 0.8"/>
      </g>
     </g>
    </g>
    <g id="ytick_26">
     <g id="line2d_38">
      <g>
       <use xlink:href="#m0717748930" x="67.477054" y="141.948367" style="stroke: #000000; stroke-width: 0.8"/>
      </g>
     </g>
    </g>
    <g id="ytick_27">
     <g id="line2d_39">
      <g>
       <use xlink:href="#m0717748930" x="67.477054" y="135.956718" style="stroke: #000000; stroke-width: 0.8"/>
      </g>
     </g>
    </g>
    <g id="ytick_28">
     <g id="line2d_40">
      <g>
       <use xlink:href="#m0717748930" x="67.477054" y="129.965069" style="stroke: #000000; stroke-width: 0.8"/>
      </g>
     </g>
    </g>
    <g id="ytick_29">
     <g id="line2d_41">
      <g>
       <use xlink:href="#m0717748930" x="67.477054" y="117.981772" style="stroke: #000000; stroke-width: 0.8"/>
      </g>
     </g>
    </g>
    <g id="ytick_30">
     <g id="line2d_42">
      <g>
       <use xlink:href="#m0717748930" x="67.477054" y="111.990123" style="stroke: #000000; stroke-width: 0.8"/>
      </g>
     </g>
    </g>
    <g id="ytick_31">
     <g id="line2d_43">
      <g>
       <use xlink:href="#m0717748930" x="67.477054" y="105.998474" style="stroke: #000000; stroke-width: 0.8"/>
      </g>
     </g>
    </g>
    <g id="ytick_32">
     <g id="line2d_44">
      <g>
       <use xlink:href="#m0717748930" x="67.477054" y="100.006825" style="stroke: #000000; stroke-width: 0.8"/>
      </g>
     </g>
    </g>
    <g id="ytick_33">
     <g id="line2d_45">
      <g>
       <use xlink:href="#m0717748930" x="67.477054" y="94.015176" style="stroke: #000000; stroke-width: 0.8"/>
      </g>
     </g>
    </g>
    <g id="ytick_34">
     <g id="line2d_46">
      <g>
       <use xlink:href="#m0717748930" x="67.477054" y="82.031878" style="stroke: #000000; stroke-width: 0.8"/>
      </g>
     </g>
    </g>
    <g id="ytick_35">
     <g id="line2d_47">
      <g>
       <use xlink:href="#m0717748930" x="67.477054" y="76.040229" style="stroke: #000000; stroke-width: 0.8"/>
      </g>
     </g>
    </g>
    <g id="ytick_36">
     <g id="line2d_48">
      <g>
       <use xlink:href="#m0717748930" x="67.477054" y="70.04858" style="stroke: #000000; stroke-width: 0.8"/>
      </g>
     </g>
    </g>
    <g id="ytick_37">
     <g id="line2d_49">
      <g>
       <use xlink:href="#m0717748930" x="67.477054" y="64.056931" style="stroke: #000000; stroke-width: 0.8"/>
      </g>
     </g>
    </g>
    <g id="ytick_38">
     <g id="line2d_50">
      <g>
       <use xlink:href="#m0717748930" x="67.477054" y="58.065283" style="stroke: #000000; stroke-width: 0.8"/>
      </g>
     </g>
    </g>
    <g id="ytick_39">
     <g id="line2d_51">
      <g>
       <use xlink:href="#m0717748930" x="67.477054" y="46.081985" style="stroke: #000000; stroke-width: 0.8"/>
      </g>
     </g>
    </g>
    <g id="ytick_40">
     <g id="line2d_52">
      <g>
       <use xlink:href="#m0717748930" x="67.477054" y="40.090336" style="stroke: #000000; stroke-width: 0.8"/>
      </g>
     </g>
    </g>
    <g id="ytick_41">
     <g id="line2d_53">
      <g>
       <use xlink:href="#m0717748930" x="67.477054" y="34.098687" style="stroke: #000000; stroke-width: 0.8"/>
      </g>
     </g>
    </g>
    <g id="ytick_42">
     <g id="line2d_54">
      <g>
       <use xlink:href="#m0717748930" x="67.477054" y="28.107038" style="stroke: #000000; stroke-width: 0.8"/>
      </g>
     </g>
    </g>
    <g id="ytick_43">
     <g id="line2d_55">
      <g>
       <use xlink:href="#m0717748930" x="67.477054" y="22.115389" style="stroke: #000000; stroke-width: 0.8"/>
      </g>
     </g>
    </g>
    <g id="text_12">
     <!-- Fidelity $\mathcal{F}$ -->
     <g transform="translate(23.576976 179.281695) rotate(-90) scale(0.18 -0.18)">
      <defs>
       <path id="NimbusSanL-Regu-46" d="M 1171 2112 
L 3398 2112 
L 3398 2636 
L 1171 2636 
L 1171 4147 
L 3706 4147 
L 3706 4672 
L 576 4672 
L 576 0 
L 1171 0 
L 1171 2112 
z
" transform="scale(0.015625)"/>
       <path id="NimbusSanL-Regu-6c" d="M 973 4672 
L 435 4672 
L 435 0 
L 973 0 
L 973 4672 
z
" transform="scale(0.015625)"/>
       <path id="NimbusSanL-Regu-79" d="M 2483 3328 
L 1555 724 
L 698 3328 
L 128 3328 
L 1261 -29 
L 1056 -558 
C 973 -794 851 -884 627 -884 
C 550 -884 461 -871 346 -845 
L 346 -1325 
C 454 -1383 563 -1408 704 -1408 
C 877 -1408 1062 -1351 1203 -1248 
C 1370 -1127 1466 -986 1568 -718 
L 3059 3328 
L 2483 3328 
z
" transform="scale(0.015625)"/>
       <path id="CMSY10-46" d="M 5312 4102 
C 5312 4396 4819 4352 4621 4352 
L 2208 4352 
C 1888 4352 1318 4166 1216 3820 
C 1229 3782 1242 3775 1280 3775 
C 1421 3775 1613 3891 1702 3987 
C 1901 3987 2093 3999 2291 3999 
L 2688 3999 
C 2688 3999 2662 3884 2662 3878 
C 2413 2707 2035 1721 1754 1112 
C 1715 1031 1370 243 1280 166 
C 998 166 787 320 672 569 
C 653 608 653 633 608 633 
C 461 633 109 428 109 320 
C 109 307 115 294 122 281 
C 237 -20 525 -192 838 -192 
C 1165 -192 1542 44 1747 281 
C 1958 524 2381 1547 2547 1920 
L 3782 1920 
C 3776 1913 3770 1907 3770 1900 
C 3770 1876 3808 1857 3834 1857 
C 3974 1857 4339 2035 4339 2233 
C 4339 2278 4294 2272 4218 2272 
L 2682 2272 
C 2848 2847 3066 3411 3181 3999 
L 4026 3999 
C 4186 3999 4634 4031 4749 3891 
C 4762 3852 4742 3788 4762 3756 
C 4774 3743 4794 3737 4813 3737 
C 4966 3737 5312 3929 5312 4102 
z
" transform="scale(0.015625)"/>
      </defs>
      <use xlink:href="#NimbusSanL-Regu-46" transform="scale(0.996264)"/>
      <use xlink:href="#NimbusSanL-Regu-69" transform="translate(60.871631 0) scale(0.996264)"/>
      <use xlink:href="#NimbusSanL-Regu-64" transform="translate(82.988415 0) scale(0.996264)"/>
      <use xlink:href="#NimbusSanL-Regu-65" transform="translate(138.380092 0) scale(0.996264)"/>
      <use xlink:href="#NimbusSanL-Regu-6c" transform="translate(193.771769 0) scale(0.996264)"/>
      <use xlink:href="#NimbusSanL-Regu-69" transform="translate(215.888553 0) scale(0.996264)"/>
      <use xlink:href="#NimbusSanL-Regu-74" transform="translate(238.005338 0) scale(0.996264)"/>
      <use xlink:href="#NimbusSanL-Regu-79" transform="translate(265.700507 0) scale(0.996264)"/>
      <use xlink:href="#CMSY10-46" transform="translate(343.208877 0) scale(0.996264)"/>
     </g>
    </g>
   </g>
   <g id="line2d_56">
    <path d="M 73.893608 55.817914 
L 82.277046 74.361961 
L 90.660485 92.399782 
L 99.043923 109.945195 
L 107.427361 127.011643 
L 116.455679 144.870237 
L 125.483996 162.20437 
L 134.512314 179.029445 
L 143.540632 195.360412 
L 152.56895 211.211782 
L 161.597268 226.597638 
L 170.625586 241.531652 
L 179.653904 256.027093 
L 188.682222 270.096841 
L 197.71054 283.753398 
L 202.224699 290.430536 
L 202.224699 290.430536 
" clip-path="url(#pcee0e6c61d)" style="fill: none; stroke: #79add2; stroke-width: 2; stroke-linecap: square"/>
   </g>
   <g id="line2d_57">
    <path d="M 73.893608 63.166916 
L 83.566806 80.969285 
L 93.240004 98.300008 
L 102.913202 115.171582 
L 112.586399 131.596171 
L 122.259597 147.585616 
L 131.932795 163.151446 
L 141.605993 178.304884 
L 151.27919 193.056856 
L 160.952388 207.417998 
L 170.625586 221.398665 
L 180.298784 235.008936 
L 189.971981 248.258624 
L 200.290059 262.004942 
L 202.224699 264.538834 
L 202.224699 264.538834 
" clip-path="url(#pcee0e6c61d)" style="fill: none; stroke: #e7bb79; stroke-width: 2; stroke-linecap: square"/>
   </g>
   <g id="line2d_58">
    <path d="M 73.893608 66.224607 
L 84.211686 83.37943 
L 94.529764 100.094293 
L 104.847841 116.38048 
L 115.165919 132.248984 
L 125.483996 147.710517 
L 135.802074 162.775517 
L 146.120152 177.454154 
L 156.438229 191.756336 
L 166.756307 205.691718 
L 177.074384 219.269707 
L 187.392462 232.499469 
L 198.355419 246.184523 
L 202.224699 250.925052 
L 202.224699 250.925052 
" clip-path="url(#pcee0e6c61d)" style="fill: none; stroke: #dc9bc7; stroke-width: 2; stroke-linecap: square"/>
   </g>
   <g id="line2d_59">
    <path d="M 73.893608 66.679151 
L 84.211686 82.789174 
L 94.529764 98.510933 
L 105.492721 114.80034 
L 116.455679 130.67294 
L 127.418636 146.139395 
L 138.381593 161.2101 
L 149.344551 175.89518 
L 160.307508 190.204502 
L 171.270466 204.147682 
L 182.233423 217.734087 
L 193.196381 230.972848 
L 202.224699 241.620616 
L 202.224699 241.620616 
" clip-path="url(#pcee0e6c61d)" style="fill: none; stroke: #92ba8d; stroke-width: 2; stroke-linecap: square"/>
   </g>
   <g id="patch_3">
    <path d="M 67.477054 267.772994 
L 67.477054 16.12374 
" style="fill: none; stroke: #000000; stroke-linejoin: miter; stroke-linecap: square"/>
   </g>
   <g id="patch_4">
    <path d="M 67.477054 267.772994 
L 208.641253 267.772994 
" style="fill: none; stroke: #000000; stroke-linejoin: miter; stroke-linecap: square"/>
   </g>
   <g id="PathCollection_1">
    <defs>
     <path id="mb913e0c6f8" d="M 0 2.5 
C 0.663008 2.5 1.29895 2.236584 1.767767 1.767767 
C 2.236584 1.29895 2.5 0.663008 2.5 0 
C 2.5 -0.663008 2.236584 -1.29895 1.767767 -1.767767 
C 1.29895 -2.236584 0.663008 -2.5 0 -2.5 
C -0.663008 -2.5 -1.29895 -2.236584 -1.767767 -1.767767 
C -2.236584 -1.29895 -2.5 -0.663008 -2.5 0 
C -2.5 0.663008 -2.236584 1.29895 -1.767767 1.767767 
C -1.29895 2.236584 -0.663008 2.5 0 2.5 
z
" style="stroke: #1f77b4"/>
    </defs>
    <g clip-path="url(#pcee0e6c61d)">
     <use xlink:href="#mb913e0c6f8" x="73.893608" y="52.398721" style="fill: #1f77b4; stroke: #1f77b4"/>
     <use xlink:href="#mb913e0c6f8" x="88.152618" y="86.302368" style="fill: #1f77b4; stroke: #1f77b4"/>
     <use xlink:href="#mb913e0c6f8" x="102.411628" y="117.898289" style="fill: #1f77b4; stroke: #1f77b4"/>
     <use xlink:href="#mb913e0c6f8" x="116.670638" y="147.360968" style="fill: #1f77b4; stroke: #1f77b4"/>
     <use xlink:href="#mb913e0c6f8" x="130.929648" y="174.836444" style="fill: #1f77b4; stroke: #1f77b4"/>
     <use xlink:href="#mb913e0c6f8" x="145.188658" y="200.459405" style="fill: #1f77b4; stroke: #1f77b4"/>
     <use xlink:href="#mb913e0c6f8" x="159.447668" y="224.355085" style="fill: #1f77b4; stroke: #1f77b4"/>
     <use xlink:href="#mb913e0c6f8" x="173.706678" y="246.640133" style="fill: #1f77b4; stroke: #1f77b4"/>
     <use xlink:href="#mb913e0c6f8" x="187.965689" y="267.42327" style="fill: #1f77b4; stroke: #1f77b4"/>
     <use xlink:href="#mb913e0c6f8" x="202.224699" y="286.805849" style="fill: #1f77b4; stroke: #1f77b4"/>
    </g>
   </g>
   <g id="PathCollection_2">
    <defs>
     <path id="m2027a15261" d="M 0 2.5 
C 0.663008 2.5 1.29895 2.236584 1.767767 1.767767 
C 2.236584 1.29895 2.5 0.663008 2.5 0 
C 2.5 -0.663008 2.236584 -1.29895 1.767767 -1.767767 
C 1.29895 -2.236584 0.663008 -2.5 0 -2.5 
C -0.663008 -2.5 -1.29895 -2.236584 -1.767767 -1.767767 
C -2.236584 -1.29895 -2.5 -0.663008 -2.5 0 
C -2.5 0.663008 -2.236584 1.29895 -1.767767 1.767767 
C -1.29895 2.236584 -0.663008 2.5 0 2.5 
z
" style="stroke: #d78e20"/>
    </defs>
    <g clip-path="url(#pcee0e6c61d)">
     <use xlink:href="#m2027a15261" x="73.893608" y="65.500389" style="fill: #d78e20; stroke: #d78e20"/>
    </g>
   </g>
   <g id="PathCollection_3">
    <g clip-path="url(#pcee0e6c61d)">
     <use xlink:href="#m2027a15261" x="88.152618" y="90.140206" style="fill: #d78e20; stroke: #d78e20"/>
    </g>
   </g>
   <g id="PathCollection_4">
    <g clip-path="url(#pcee0e6c61d)">
     <use xlink:href="#m2027a15261" x="102.411628" y="112.835125" style="fill: #d78e20; stroke: #d78e20"/>
    </g>
   </g>
   <g id="PathCollection_5">
    <g clip-path="url(#pcee0e6c61d)">
     <use xlink:href="#m2027a15261" x="116.670638" y="138.104688" style="fill: #d78e20; stroke: #d78e20"/>
    </g>
   </g>
   <g id="PathCollection_6">
    <g clip-path="url(#pcee0e6c61d)">
     <use xlink:href="#m2027a15261" x="130.929648" y="158.952491" style="fill: #d78e20; stroke: #d78e20"/>
    </g>
   </g>
   <g id="PathCollection_7">
    <g clip-path="url(#pcee0e6c61d)">
     <use xlink:href="#m2027a15261" x="145.188658" y="182.569633" style="fill: #d78e20; stroke: #d78e20"/>
    </g>
   </g>
   <g id="PathCollection_8">
    <g clip-path="url(#pcee0e6c61d)">
     <use xlink:href="#m2027a15261" x="159.447668" y="203.121863" style="fill: #d78e20; stroke: #d78e20"/>
    </g>
   </g>
   <g id="PathCollection_9">
    <g clip-path="url(#pcee0e6c61d)">
     <use xlink:href="#m2027a15261" x="173.706678" y="226.897378" style="fill: #d78e20; stroke: #d78e20"/>
    </g>
   </g>
   <g id="PathCollection_10">
    <g clip-path="url(#pcee0e6c61d)">
     <use xlink:href="#m2027a15261" x="187.965689" y="247.7819" style="fill: #d78e20; stroke: #d78e20"/>
    </g>
   </g>
   <g id="PathCollection_11">
    <g clip-path="url(#pcee0e6c61d)">
     <use xlink:href="#m2027a15261" x="202.224699" y="265.726997" style="fill: #d78e20; stroke: #d78e20"/>
    </g>
   </g>
   <g id="PathCollection_12">
    <defs>
     <path id="m1fb17f0caa" d="M 0 2.5 
C 0.663008 2.5 1.29895 2.236584 1.767767 1.767767 
C 2.236584 1.29895 2.5 0.663008 2.5 0 
C 2.5 -0.663008 2.236584 -1.29895 1.767767 -1.767767 
C 1.29895 -2.236584 0.663008 -2.5 0 -2.5 
C -0.663008 -2.5 -1.29895 -2.236584 -1.767767 -1.767767 
C -2.236584 -1.29895 -2.5 -0.663008 -2.5 0 
C -2.5 0.663008 -2.236584 1.29895 -1.767767 1.767767 
C -1.29895 2.236584 -0.663008 2.5 0 2.5 
z
" style="stroke: #c459a1"/>
    </defs>
    <g clip-path="url(#pcee0e6c61d)">
     <use xlink:href="#m1fb17f0caa" x="73.893608" y="66.197621" style="fill: #c459a1; stroke: #c459a1"/>
    </g>
   </g>
   <g id="PathCollection_13">
    <g clip-path="url(#pcee0e6c61d)">
     <use xlink:href="#m1fb17f0caa" x="88.152618" y="90.697653" style="fill: #c459a1; stroke: #c459a1"/>
    </g>
   </g>
   <g id="PathCollection_14">
    <g clip-path="url(#pcee0e6c61d)">
     <use xlink:href="#m1fb17f0caa" x="102.411628" y="114.004685" style="fill: #c459a1; stroke: #c459a1"/>
    </g>
   </g>
   <g id="PathCollection_15">
    <g clip-path="url(#pcee0e6c61d)">
     <use xlink:href="#m1fb17f0caa" x="116.670638" y="133.259186" style="fill: #c459a1; stroke: #c459a1"/>
    </g>
   </g>
   <g id="PathCollection_16">
    <defs>
     <path id="me96ba8a795" d="M -2.5 2.5 
L 2.5 2.5 
L 2.5 -2.5 
L -2.5 -2.5 
z
" style="stroke: #c459a1"/>
    </defs>
    <g clip-path="url(#pcee0e6c61d)">
     <use xlink:href="#me96ba8a795" x="130.929648" y="155.488756" style="fill: #c459a1; stroke: #c459a1"/>
    </g>
   </g>
   <g id="PathCollection_17">
    <g clip-path="url(#pcee0e6c61d)">
     <use xlink:href="#me96ba8a795" x="145.188658" y="174.30115" style="fill: #c459a1; stroke: #c459a1"/>
    </g>
   </g>
   <g id="PathCollection_18">
    <g clip-path="url(#pcee0e6c61d)">
     <use xlink:href="#me96ba8a795" x="159.447668" y="196.455112" style="fill: #c459a1; stroke: #c459a1"/>
    </g>
   </g>
   <g id="PathCollection_19">
    <g clip-path="url(#pcee0e6c61d)">
     <use xlink:href="#me96ba8a795" x="173.706678" y="212.290684" style="fill: #c459a1; stroke: #c459a1"/>
    </g>
   </g>
   <g id="PathCollection_20">
    <g clip-path="url(#pcee0e6c61d)">
     <use xlink:href="#me96ba8a795" x="187.965689" y="234.083516" style="fill: #c459a1; stroke: #c459a1"/>
    </g>
   </g>
   <g id="PathCollection_21">
    <g clip-path="url(#pcee0e6c61d)">
     <use xlink:href="#me96ba8a795" x="202.224699" y="253.136842" style="fill: #c459a1; stroke: #c459a1"/>
    </g>
   </g>
   <g id="PathCollection_22">
    <defs>
     <path id="m34539fec6d" d="M 0 2.5 
C 0.663008 2.5 1.29895 2.236584 1.767767 1.767767 
C 2.236584 1.29895 2.5 0.663008 2.5 0 
C 2.5 -0.663008 2.236584 -1.29895 1.767767 -1.767767 
C 1.29895 -2.236584 0.663008 -2.5 0 -2.5 
C -0.663008 -2.5 -1.29895 -2.236584 -1.767767 -1.767767 
C -2.236584 -1.29895 -2.5 -0.663008 -2.5 0 
C -2.5 0.663008 -2.236584 1.29895 -1.767767 1.767767 
C -1.29895 2.236584 -0.663008 2.5 0 2.5 
z
" style="stroke: #498c41"/>
    </defs>
    <g clip-path="url(#pcee0e6c61d)">
     <use xlink:href="#m34539fec6d" x="73.893608" y="66.657294" style="fill: #498c41; stroke: #498c41"/>
    </g>
   </g>
   <g id="PathCollection_23">
    <g clip-path="url(#pcee0e6c61d)">
     <use xlink:href="#m34539fec6d" x="88.152618" y="90.408617" style="fill: #498c41; stroke: #498c41"/>
    </g>
   </g>
   <g id="PathCollection_24">
    <g clip-path="url(#pcee0e6c61d)">
     <use xlink:href="#m34539fec6d" x="102.411628" y="112.152523" style="fill: #498c41; stroke: #498c41"/>
    </g>
   </g>
   <g id="PathCollection_25">
    <defs>
     <path id="m3a5ec5f2fa" d="M -2.5 2.5 
L 2.5 2.5 
L 2.5 -2.5 
L -2.5 -2.5 
z
" style="stroke: #498c41"/>
    </defs>
    <g clip-path="url(#pcee0e6c61d)">
     <use xlink:href="#m3a5ec5f2fa" x="116.670638" y="130.089569" style="fill: #498c41; stroke: #498c41"/>
    </g>
   </g>
   <g id="PathCollection_26">
    <g clip-path="url(#pcee0e6c61d)">
     <use xlink:href="#m3a5ec5f2fa" x="130.929648" y="148.285987" style="fill: #498c41; stroke: #498c41"/>
    </g>
   </g>
   <g id="PathCollection_27">
    <g clip-path="url(#pcee0e6c61d)">
     <use xlink:href="#m3a5ec5f2fa" x="145.188658" y="169.327419" style="fill: #498c41; stroke: #498c41"/>
    </g>
   </g>
   <g id="PathCollection_28">
    <g clip-path="url(#pcee0e6c61d)">
     <use xlink:href="#m3a5ec5f2fa" x="159.447668" y="187.147516" style="fill: #498c41; stroke: #498c41"/>
    </g>
   </g>
   <g id="PathCollection_29">
    <g clip-path="url(#pcee0e6c61d)">
     <use xlink:href="#m3a5ec5f2fa" x="173.706678" y="207.641684" style="fill: #498c41; stroke: #498c41"/>
    </g>
   </g>
   <g id="PathCollection_30">
    <g clip-path="url(#pcee0e6c61d)">
     <use xlink:href="#m3a5ec5f2fa" x="187.965689" y="224.747132" style="fill: #498c41; stroke: #498c41"/>
    </g>
   </g>
   <g id="PathCollection_31">
    <g clip-path="url(#pcee0e6c61d)">
     <use xlink:href="#m3a5ec5f2fa" x="202.224699" y="244.344585" style="fill: #498c41; stroke: #498c41"/>
    </g>
   </g>
   <g id="text_13">
    <!-- $D_{\mathrm{th}}=9.4$ -->
    <g transform="translate(71.71198 31.516851) scale(0.1105 -0.1105)">
     <defs>
      <path id="NimbusSanL-Regu-3d" d="M 3418 2240 
L 320 2240 
L 320 1792 
L 3418 1792 
L 3418 2240 
z
M 3418 1152 
L 320 1152 
L 320 704 
L 3418 704 
L 3418 1152 
z
" transform="scale(0.015625)"/>
     </defs>
     <use xlink:href="#NimbusSanL-ReguItal-44" transform="scale(0.996264)"/>
     <use xlink:href="#NimbusSanL-Regu-74" transform="translate(71.929985 -16.069485) scale(0.697382)"/>
     <use xlink:href="#NimbusSanL-Regu-68" transform="translate(91.316514 -16.069485) scale(0.697382)"/>
     <use xlink:href="#NimbusSanL-Regu-3d" transform="translate(158.262655 0) scale(0.996264)"/>
     <use xlink:href="#NimbusSanL-Regu-39" transform="translate(244.118157 0) scale(0.996264)"/>
     <use xlink:href="#NimbusSanL-Regu-2e" transform="translate(299.509834 0) scale(0.996264)"/>
     <use xlink:href="#NimbusSanL-Regu-34" transform="translate(327.205003 0) scale(0.996264)"/>
    </g>
    <!-- $\mathcal{F}_{\mathrm{ceil}}=0.887$ -->
    <g transform="translate(71.71198 45.627085) scale(0.1105 -0.1105)">
     <defs>
      <path id="NimbusSanL-Regu-63" d="M 3014 2237 
C 2989 2561 2918 2771 2790 2956 
C 2560 3270 2157 3456 1690 3456 
C 787 3456 198 2740 198 1632 
C 198 555 774 -128 1683 -128 
C 2483 -128 2989 352 3053 1167 
L 2515 1167 
C 2426 632 2150 364 1696 364 
C 1107 364 755 842 755 1632 
C 755 2466 1101 2963 1683 2963 
C 2131 2963 2413 2701 2477 2237 
L 3014 2237 
z
" transform="scale(0.015625)"/>
     </defs>
     <use xlink:href="#CMSY10-46" transform="scale(0.996264)"/>
     <use xlink:href="#NimbusSanL-Regu-63" transform="translate(71.606278 -16.069485) scale(0.697382)"/>
     <use xlink:href="#NimbusSanL-Regu-65" transform="translate(106.475366 -16.069485) scale(0.697382)"/>
     <use xlink:href="#NimbusSanL-Regu-69" transform="translate(145.249367 -16.069485) scale(0.697382)"/>
     <use xlink:href="#NimbusSanL-Regu-6c" transform="translate(160.731045 -16.069485) scale(0.697382)"/>
     <use xlink:href="#NimbusSanL-Regu-3d" transform="translate(204.384863 0) scale(0.996264)"/>
     <use xlink:href="#NimbusSanL-Regu-30" transform="translate(290.240365 0) scale(0.996264)"/>
     <use xlink:href="#NimbusSanL-Regu-2e" transform="translate(345.632041 0) scale(0.996264)"/>
     <use xlink:href="#NimbusSanL-Regu-38" transform="translate(373.327211 0) scale(0.996264)"/>
     <use xlink:href="#NimbusSanL-Regu-38" transform="translate(428.718888 0) scale(0.996264)"/>
     <use xlink:href="#NimbusSanL-Regu-37" transform="translate(484.110565 0) scale(0.996264)"/>
    </g>
   </g>
   <g id="legend_1">
    <g id="line2d_60">
     <path d="M 102.571222 32.741228 
L 112.321222 32.741228 
L 122.071222 32.741228 
" style="fill: none; stroke: #79add2; stroke-width: 2; stroke-linecap: square"/>
    </g>
    <g id="text_14">
     <!-- Unamplified -->
     <g transform="translate(128.571222 37.291228) scale(0.13 -0.13)">
      <defs>
       <path id="NimbusSanL-Regu-55" d="M 3533 4672 
L 3533 1404 
C 3533 779 3078 396 2330 396 
C 1984 396 1702 479 1478 639 
C 1248 817 1139 1053 1139 1404 
L 1139 4672 
L 544 4672 
L 544 1404 
C 544 460 1222 -128 2330 -128 
C 3424 -128 4128 473 4128 1404 
L 4128 4672 
L 3533 4672 
z
" transform="scale(0.015625)"/>
       <path id="NimbusSanL-Regu-6d" d="M 448 3328 
L 448 0 
L 986 0 
L 986 2089 
C 986 2597 1338 2988 1773 2988 
C 2170 2988 2394 2744 2394 2315 
L 2394 0 
L 2931 0 
L 2931 2109 
C 2931 2597 3283 2988 3718 2988 
C 4109 2988 4339 2738 4339 2315 
L 4339 0 
L 4877 0 
L 4877 2520 
C 4877 3123 4531 3456 3904 3456 
C 3456 3456 3187 3321 2874 2943 
C 2675 3302 2406 3456 1971 3456 
C 1523 3456 1229 3289 941 2886 
L 941 3328 
L 448 3328 
z
" transform="scale(0.015625)"/>
       <path id="NimbusSanL-Regu-2" d="M 1613 3328 
L 1056 3328 
L 1056 3860 
C 1056 4087 1184 4204 1427 4204 
C 1472 4204 1491 4204 1613 4198 
L 1613 4639 
C 1491 4665 1421 4672 1312 4672 
C 819 4672 525 4390 525 3905 
L 525 3328 
L 77 3328 
L 77 2892 
L 525 2892 
L 525 0 
L 1056 0 
L 1056 2892 
L 1613 2892 
L 1613 3328 
z
M 2790 3328 
L 2259 3328 
L 2259 0 
L 2790 0 
L 2790 3328 
z
M 2790 4672 
L 2259 4672 
L 2259 3999 
L 2790 3999 
L 2790 4672 
z
" transform="scale(0.015625)"/>
      </defs>
      <use xlink:href="#NimbusSanL-Regu-55" transform="scale(0.996264)"/>
      <use xlink:href="#NimbusSanL-Regu-6e" transform="translate(71.929985 0) scale(0.996264)"/>
      <use xlink:href="#NimbusSanL-Regu-61" transform="translate(127.321662 0) scale(0.996264)"/>
      <use xlink:href="#NimbusSanL-Regu-6d" transform="translate(182.713339 0) scale(0.996264)"/>
      <use xlink:href="#NimbusSanL-Regu-70" transform="translate(265.701769 0) scale(0.996264)"/>
      <use xlink:href="#NimbusSanL-Regu-6c" transform="translate(321.093446 0) scale(0.996264)"/>
      <use xlink:href="#NimbusSanL-Regu-69" transform="translate(343.21023 0) scale(0.996264)"/>
      <use xlink:href="#NimbusSanL-Regu-2" transform="translate(365.327015 0) scale(0.996264)"/>
      <use xlink:href="#NimbusSanL-Regu-65" transform="translate(415.140215 0) scale(0.996264)"/>
      <use xlink:href="#NimbusSanL-Regu-64" transform="translate(470.531892 0) scale(0.996264)"/>
     </g>
    </g>
    <g id="line2d_61">
     <path d="M 102.571222 49.92762 
L 112.321222 49.92762 
L 122.071222 49.92762 
" style="fill: none; stroke: #d78e20; stroke-width: 2; stroke-linecap: square"/>
    </g>
    <g id="text_15">
     <!-- $n=3$ -->
     <g transform="translate(128.571222 54.47762) scale(0.13 -0.13)">
      <defs>
       <path id="NimbusSanL-ReguItal-6e" d="M 1158 3328 
L 448 0 
L 986 0 
L 1376 1835 
C 1530 2558 1978 2995 2554 2995 
C 2874 2995 3110 2770 3110 2475 
C 3110 2437 3098 2340 3072 2238 
L 2598 0 
L 3136 0 
L 3648 2411 
C 3667 2494 3674 2571 3674 2655 
C 3674 3142 3334 3456 2803 3456 
C 2317 3456 1894 3283 1562 2943 
L 1645 3328 
L 1158 3328 
z
" transform="scale(0.015625)"/>
       <path id="NimbusSanL-Regu-33" d="M 1414 2093 
L 1485 2093 
L 1722 2099 
C 2342 2099 2662 1819 2662 1276 
C 2662 709 2310 371 1722 371 
C 1107 371 806 677 768 1334 
L 205 1334 
C 230 970 294 734 403 530 
C 634 96 1082 -128 1702 -128 
C 2637 -128 3238 428 3238 1283 
C 3238 1857 3014 2176 2470 2361 
C 2893 2526 3104 2845 3104 3298 
C 3104 4076 2586 4544 1722 4544 
C 806 4544 320 4044 301 3081 
L 864 3081 
C 870 3356 896 3509 966 3649 
C 1094 3898 1376 4051 1728 4051 
C 2227 4051 2528 3757 2528 3279 
C 2528 2960 2413 2769 2163 2667 
C 2010 2603 1811 2577 1414 2571 
L 1414 2093 
z
" transform="scale(0.015625)"/>
      </defs>
      <use xlink:href="#NimbusSanL-ReguItal-6e" transform="scale(0.996264)"/>
      <use xlink:href="#NimbusSanL-Regu-3d" transform="translate(84.708725 0) scale(0.996264)"/>
      <use xlink:href="#NimbusSanL-Regu-33" transform="translate(170.564226 0) scale(0.996264)"/>
     </g>
    </g>
    <g id="line2d_62">
     <path d="M 102.571222 67.114013 
L 112.321222 67.114013 
L 122.071222 67.114013 
" style="fill: none; stroke: #c459a1; stroke-width: 2; stroke-linecap: square"/>
    </g>
    <g id="text_16">
     <!-- $n=5$ -->
     <g transform="translate(128.571222 71.664013) scale(0.13 -0.13)">
      <use xlink:href="#NimbusSanL-ReguItal-6e" transform="scale(0.996264)"/>
      <use xlink:href="#NimbusSanL-Regu-3d" transform="translate(84.708725 0) scale(0.996264)"/>
      <use xlink:href="#NimbusSanL-Regu-35" transform="translate(170.564226 0) scale(0.996264)"/>
     </g>
    </g>
    <g id="line2d_63">
     <path d="M 102.571222 84.300406 
L 112.321222 84.300406 
L 122.071222 84.300406 
" style="fill: none; stroke: #498c41; stroke-width: 2; stroke-linecap: square"/>
    </g>
    <g id="text_17">
     <!-- $n=7$ -->
     <g transform="translate(128.571222 88.850406) scale(0.13 -0.13)">
      <use xlink:href="#NimbusSanL-ReguItal-6e" transform="scale(0.996264)"/>
      <use xlink:href="#NimbusSanL-Regu-3d" transform="translate(84.708725 0) scale(0.996264)"/>
      <use xlink:href="#NimbusSanL-Regu-37" transform="translate(170.564226 0) scale(0.996264)"/>
     </g>
    </g>
   </g>
   <g id="legend_2">
    <g id="line2d_64">
     <path d="M 149.705464 107.996333 
L 156.205464 107.996333 
L 162.705464 107.996333 
" style="fill: none"/>
     <defs>
      <path id="mc94b9c4513" d="M 0 2.5 
C 0.663008 2.5 1.29895 2.236584 1.767767 1.767767 
C 2.236584 1.29895 2.5 0.663008 2.5 0 
C 2.5 -0.663008 2.236584 -1.29895 1.767767 -1.767767 
C 1.29895 -2.236584 0.663008 -2.5 0 -2.5 
C -0.663008 -2.5 -1.29895 -2.236584 -1.767767 -1.767767 
C -2.236584 -1.29895 -2.5 -0.663008 -2.5 0 
C -2.5 0.663008 -2.236584 1.29895 -1.767767 1.767767 
C -1.29895 2.236584 -0.663008 2.5 0 2.5 
z
" style="stroke: #000000"/>
     </defs>
     <g>
      <use xlink:href="#mc94b9c4513" x="156.205464" y="107.996333" style="stroke: #000000"/>
     </g>
    </g>
    <g id="text_18">
     <!-- $r=1$ -->
     <g transform="translate(169.205464 112.546333) scale(0.13 -0.13)">
      <defs>
       <path id="NimbusSanL-ReguItal-72" d="M 1152 3328 
L 442 0 
L 979 0 
L 1350 1727 
C 1517 2501 1971 2888 2675 2863 
L 2790 3404 
C 2707 3449 2656 3456 2586 3456 
C 2214 3456 1926 3289 1530 2834 
L 1638 3328 
L 1152 3328 
z
" transform="scale(0.015625)"/>
      </defs>
      <use xlink:href="#NimbusSanL-ReguItal-72" transform="scale(0.996264)"/>
      <use xlink:href="#NimbusSanL-Regu-3d" transform="translate(72.105869 0) scale(0.996264)"/>
      <use xlink:href="#NimbusSanL-Regu-31" transform="translate(157.961371 0) scale(0.996264)"/>
     </g>
    </g>
    <g id="line2d_65">
     <path d="M 149.705464 125.182725 
L 156.205464 125.182725 
L 162.705464 125.182725 
" style="fill: none"/>
     <defs>
      <path id="m1ba76c378a" d="M -2.5 2.5 
L 2.5 2.5 
L 2.5 -2.5 
L -2.5 -2.5 
z
" style="stroke: #000000; stroke-linejoin: miter"/>
     </defs>
     <g>
      <use xlink:href="#m1ba76c378a" x="156.205464" y="125.182725" style="stroke: #000000; stroke-linejoin: miter"/>
     </g>
    </g>
    <g id="text_19">
     <!-- $r=2$ -->
     <g transform="translate(169.205464 129.732725) scale(0.13 -0.13)">
      <use xlink:href="#NimbusSanL-ReguItal-72" transform="scale(0.996264)"/>
      <use xlink:href="#NimbusSanL-Regu-3d" transform="translate(72.105869 0) scale(0.996264)"/>
      <use xlink:href="#NimbusSanL-Regu-32" transform="translate(157.961371 0) scale(0.996264)"/>
     </g>
    </g>
    <g id="line2d_66">
     <path d="M 149.705464 142.369118 
L 156.205464 142.369118 
L 162.705464 142.369118 
" style="fill: none"/>
     <defs>
      <path id="mabd337fbad" d="M -0 3.535534 
L 3.535534 0 
L 0 -3.535534 
L -3.535534 -0 
z
" style="stroke: #000000; stroke-linejoin: miter"/>
     </defs>
     <g>
      <use xlink:href="#mabd337fbad" x="156.205464" y="142.369118" style="stroke: #000000; stroke-linejoin: miter"/>
     </g>
    </g>
    <g id="text_20">
     <!-- $r=3$ -->
     <g transform="translate(169.205464 146.919118) scale(0.13 -0.13)">
      <use xlink:href="#NimbusSanL-ReguItal-72" transform="scale(0.996264)"/>
      <use xlink:href="#NimbusSanL-Regu-3d" transform="translate(72.105869 0) scale(0.996264)"/>
      <use xlink:href="#NimbusSanL-Regu-33" transform="translate(157.961371 0) scale(0.996264)"/>
     </g>
    </g>
    <g id="line2d_67">
     <path d="M 149.705464 159.55551 
L 156.205464 159.55551 
L 162.705464 159.55551 
" style="fill: none"/>
     <defs>
      <path id="m4241848e16" d="M 0 -2.5 
L -2.5 2.5 
L 2.5 2.5 
z
" style="stroke: #000000; stroke-linejoin: miter"/>
     </defs>
     <g>
      <use xlink:href="#m4241848e16" x="156.205464" y="159.55551" style="stroke: #000000; stroke-linejoin: miter"/>
     </g>
    </g>
    <g id="text_21">
     <!-- $r=4$ -->
     <g transform="translate(169.205464 164.10551) scale(0.13 -0.13)">
      <use xlink:href="#NimbusSanL-ReguItal-72" transform="scale(0.996264)"/>
      <use xlink:href="#NimbusSanL-Regu-3d" transform="translate(72.105869 0) scale(0.996264)"/>
      <use xlink:href="#NimbusSanL-Regu-34" transform="translate(157.961371 0) scale(0.996264)"/>
     </g>
    </g>
   </g>
  </g>
 </g>
 <defs>
  <clipPath id="pcee0e6c61d">
   <rect x="67.477054" y="16.12374" width="141.164199" height="251.649254"/>
  </clipPath>
 </defs>
</svg>
