<?xml version="1.0" encoding="utf-8" standalone="no"?>
<!DOCTYPE svg PUBLIC "-//W3C//DTD SVG 1.1//EN"
  "http://www.w3.org/Graphics/SVG/1.1/DTD/svg11.dtd">
<svg xmlns:xlink="http://www.w3.org/1999/xlink" width="500pt" height="320pt" viewBox="0 0 500 320" xmlns="http://www.w3.org/2000/svg" version="1.1">
 <metadata>
  <rdf:RDF xmlns:dc="http://purl.org/dc/elements/1.1/" xmlns:cc="http://creativecommons.org/ns#" xmlns:rdf="http://www.w3.org/1999/02/22-rdf-syntax-ns#">
   <cc:Work>
    <dc:type rdf:resource="http://purl.org/dc/dcmitype/StillImage"/>
    <dc:date>2026-03-14T13:45:06.673635</dc:date>
    <dc:format>image/svg+xml</dc:format>
    <dc:creator>
     <cc:Agent>
      <dc:title>Matplotlib v3.10.8, https://matplotlib.org/</dc:title>
     </cc:Agent>
    </dc:creator>
   </cc:Work>
  </rdf:RDF>
 </metadata>
 <defs>
  <style type="text/css">*{stroke-linejoin: round; stroke-linecap: butt}</style>
 </defs>
 <g id="figure_1">
  <g id="patch_1">
   <path d="M 0 320 
L 500 320 
L 500 0 
L 0 0 
z
" style="fill: #ffffff"/>
  </g>
  <g id="axes_1">
   <g id="patch_2">
    <path d="M 68.966281 267.772994 
L 489.2 267.772994 
L 489.2 10.8 
L 68.966281 10.8 
z
" style="fill: #ffffff"/>
   </g>
   <g id="matplotlib.axis_1">
    <g id="xtick_1">
     <g id="line2d_1">
      <defs>
       <path id="med0f4990c5" d="M 0 0 
L 0 3.5 
" style="stroke: #000000"/>
      </defs>
      <g>
       <use xlink:href="#med0f4990c5" x="88.067814" y="267.772994" style="stroke: #000000"/>
      </g>
     </g>
     <g id="text_1">
      <!-- 1 -->
      <g transform="translate(83.913441 285.420474) scale(0.15 -0.15)">
       <defs>
        <path id="NimbusSanL-Regu-31" d="M 1658 3232 
L 1658 0 
L 2221 0 
L 2221 4537 
L 1850 4537 
C 1651 3840 1523 3744 653 3635 
L 653 3232 
L 1658 3232 
z
" transform="scale(0.015625)"/>
       </defs>
       <use xlink:href="#NimbusSanL-Regu-31" transform="scale(0.996264)"/>
      </g>
     </g>
    </g>
    <g id="xtick_2">
     <g id="line2d_2">
      <g>
       <use xlink:href="#med0f4990c5" x="113.536524" y="267.772994" style="stroke: #000000"/>
      </g>
     </g>
     <g id="text_2">
      <!-- 2 -->
      <g transform="translate(109.382151 285.420474) scale(0.15 -0.15)">
       <defs>
        <path id="NimbusSanL-Regu-32" d="M 3238 556 
L 851 556 
C 909 928 1114 1165 1670 1493 
L 2310 1839 
C 2944 2185 3270 2653 3270 3211 
C 3270 3589 3117 3942 2848 4185 
C 2579 4428 2246 4544 1818 4544 
C 1242 4544 813 4339 563 3955 
C 403 3711 333 3429 320 2967 
L 883 2967 
C 902 3275 941 3461 1018 3608 
C 1165 3884 1459 4051 1798 4051 
C 2310 4051 2694 3685 2694 3198 
C 2694 2839 2483 2531 2080 2300 
L 1491 1967 
C 544 1428 269 999 218 0 
L 3238 0 
L 3238 556 
z
" transform="scale(0.015625)"/>
       </defs>
       <use xlink:href="#NimbusSanL-Regu-32" transform="scale(0.996264)"/>
      </g>
     </g>
    </g>
    <g id="xtick_3">
     <g id="line2d_3">
      <g>
       <use xlink:href="#med0f4990c5" x="139.005234" y="267.772994" style="stroke: #000000"/>
      </g>
     </g>
     <g id="text_3">
      <!-- 3 -->
      <g transform="translate(134.850861 285.420474) scale(0.15 -0.15)">
       <defs>
        <path id="NimbusSanL-Regu-33" d="M 1414 2093 
L 1485 2093 
L 1722 2099 
C 2342 2099 2662 1819 2662 1276 
C 2662 709 2310 371 1722 371 
C 1107 371 806 677 768 1334 
L 205 1334 
C 230 970 294 734 403 530 
C 634 96 1082 -128 1702 -128 
C 2637 -128 3238 428 3238 1283 
C 3238 1857 3014 2176 2470 2361 
C 2893 2526 3104 2845 3104 3298 
C 3104 4076 2586 4544 1722 4544 
C 806 4544 320 4044 301 3081 
L 864 3081 
C 870 3356 896 3509 966 3649 
C 1094 3898 1376 4051 1728 4051 
C 2227 4051 2528 3757 2528 3279 
C 2528 2960 2413 2769 2163 2667 
C 2010 2603 1811 2577 1414 2571 
L 1414 2093 
z
" transform="scale(0.015625)"/>
       </defs>
       <use xlink:href="#NimbusSanL-Regu-33" transform="scale(0.996264)"/>
      </g>
     </g>
    </g>
    <g id="xtick_4">
     <g id="line2d_4">
      <g>
       <use xlink:href="#med0f4990c5" x="164.473945" y="267.772994" style="stroke: #000000"/>
      </g>
     </g>
     <g id="text_4">
      <!-- 4 -->
      <g transform="translate(160.319571 285.420474) scale(0.15 -0.15)">
       <defs>
        <path id="NimbusSanL-Regu-34" d="M 2093 1088 
L 2093 0 
L 2656 0 
L 2656 1088 
L 3328 1088 
L 3328 1593 
L 2656 1593 
L 2656 4537 
L 2240 4537 
L 179 1683 
L 179 1088 
L 2093 1088 
z
M 2093 1593 
L 672 1593 
L 2093 3577 
L 2093 1593 
z
" transform="scale(0.015625)"/>
       </defs>
       <use xlink:href="#NimbusSanL-Regu-34" transform="scale(0.996264)"/>
      </g>
     </g>
    </g>
    <g id="xtick_5">
     <g id="line2d_5">
      <g>
       <use xlink:href="#med0f4990c5" x="189.942655" y="267.772994" style="stroke: #000000"/>
      </g>
     </g>
     <g id="text_5">
      <!-- 5 -->
      <g transform="translate(185.788281 285.420474) scale(0.15 -0.15)">
       <defs>
        <path id="NimbusSanL-Regu-35" d="M 3046 4544 
L 704 4544 
L 365 2076 
L 883 2076 
C 1146 2387 1363 2496 1715 2496 
C 2323 2496 2707 2082 2707 1414 
C 2707 765 2330 371 1715 371 
C 1222 371 922 619 787 1128 
L 224 1128 
C 301 759 365 581 499 415 
C 755 70 1216 -128 1728 -128 
C 2643 -128 3283 536 3283 1490 
C 3283 2381 2688 2995 1818 2995 
C 1498 2995 1242 2912 979 2720 
L 1158 3987 
L 3046 3987 
L 3046 4544 
z
" transform="scale(0.015625)"/>
       </defs>
       <use xlink:href="#NimbusSanL-Regu-35" transform="scale(0.996264)"/>
      </g>
     </g>
    </g>
    <g id="xtick_6">
     <g id="line2d_6">
      <g>
       <use xlink:href="#med0f4990c5" x="215.411365" y="267.772994" style="stroke: #000000"/>
      </g>
     </g>
     <g id="text_6">
      <!-- 6 -->
      <g transform="translate(211.256992 285.420474) scale(0.15 -0.15)">
       <defs>
        <path id="NimbusSanL-Regu-36" d="M 3187 3352 
C 3078 4102 2592 4544 1901 4544 
C 1402 4544 954 4300 685 3895 
C 403 3449 275 2887 275 2064 
C 275 1312 390 832 659 434 
C 902 70 1299 -128 1798 -128 
C 2662 -128 3283 510 3283 1388 
C 3283 2221 2707 2816 1894 2816 
C 1446 2816 1094 2643 851 2310 
C 858 3423 1216 4044 1862 4044 
C 2259 4044 2534 3792 2624 3352 
L 3187 3352 
z
M 1824 2316 
C 2368 2316 2707 1944 2707 1343 
C 2707 781 2323 371 1805 371 
C 1280 371 883 800 883 1375 
C 883 1931 1267 2316 1824 2316 
z
" transform="scale(0.015625)"/>
       </defs>
       <use xlink:href="#NimbusSanL-Regu-36" transform="scale(0.996264)"/>
      </g>
     </g>
    </g>
    <g id="xtick_7">
     <g id="line2d_7">
      <g>
       <use xlink:href="#med0f4990c5" x="240.880075" y="267.772994" style="stroke: #000000"/>
      </g>
     </g>
     <g id="text_7">
      <!-- 7 -->
      <g transform="translate(236.725702 285.420474) scale(0.15 -0.15)">
       <defs>
        <path id="NimbusSanL-Regu-37" d="M 3328 4544 
L 294 4544 
L 294 3987 
L 2746 3987 
C 1664 2442 1222 1493 883 0 
L 1485 0 
C 1734 1454 2304 2704 3328 4070 
L 3328 4544 
z
" transform="scale(0.015625)"/>
       </defs>
       <use xlink:href="#NimbusSanL-Regu-37" transform="scale(0.996264)"/>
      </g>
     </g>
    </g>
    <g id="xtick_8">
     <g id="line2d_8">
      <g>
       <use xlink:href="#med0f4990c5" x="266.348786" y="267.772994" style="stroke: #000000"/>
      </g>
     </g>
     <g id="text_8">
      <!-- 8 -->
      <g transform="translate(262.194412 285.420474) scale(0.15 -0.15)">
       <defs>
        <path id="NimbusSanL-Regu-38" d="M 2502 2399 
C 2970 2681 3123 2910 3123 3337 
C 3123 4044 2566 4544 1760 4544 
C 960 4544 397 4044 397 3337 
C 397 2917 550 2687 1011 2399 
C 493 2150 237 1774 237 1276 
C 237 447 864 -128 1760 -128 
C 2656 -128 3283 447 3283 1270 
C 3283 1774 3027 2150 2502 2399 
z
M 1760 4044 
C 2240 4044 2547 3764 2547 3324 
C 2547 2904 2234 2624 1760 2624 
C 1286 2624 973 2904 973 3331 
C 973 3764 1286 4044 1760 4044 
z
M 1760 2150 
C 2323 2150 2707 1793 2707 1264 
C 2707 728 2323 371 1747 371 
C 1197 371 813 734 813 1264 
C 813 1793 1197 2150 1760 2150 
z
" transform="scale(0.015625)"/>
       </defs>
       <use xlink:href="#NimbusSanL-Regu-38" transform="scale(0.996264)"/>
      </g>
     </g>
    </g>
    <g id="xtick_9">
     <g id="line2d_9">
      <g>
       <use xlink:href="#med0f4990c5" x="291.817496" y="267.772994" style="stroke: #000000"/>
      </g>
     </g>
     <g id="text_9">
      <!-- 9 -->
      <g transform="translate(287.663122 285.420474) scale(0.15 -0.15)">
       <defs>
        <path id="NimbusSanL-Regu-39" d="M 339 1063 
C 448 313 934 -128 1626 -128 
C 2125 -128 2579 115 2842 519 
C 3130 966 3258 1528 3258 2351 
C 3258 3103 3142 3583 2874 3981 
C 2624 4345 2227 4544 1728 4544 
C 864 4544 243 3906 243 3027 
C 243 2193 819 1600 1638 1600 
C 2067 1600 2381 1753 2675 2105 
C 2669 992 2310 371 1664 371 
C 1267 371 992 623 902 1063 
L 339 1063 
z
M 1722 4051 
C 2246 4051 2643 3621 2643 3040 
C 2643 2490 2253 2099 1702 2099 
C 1158 2099 819 2471 819 3072 
C 819 3640 1203 4051 1722 4051 
z
" transform="scale(0.015625)"/>
       </defs>
       <use xlink:href="#NimbusSanL-Regu-39" transform="scale(0.996264)"/>
      </g>
     </g>
    </g>
    <g id="xtick_10">
     <g id="line2d_10">
      <g>
       <use xlink:href="#med0f4990c5" x="317.286206" y="267.772994" style="stroke: #000000"/>
      </g>
     </g>
     <g id="text_10">
      <!-- 10 -->
      <g transform="translate(308.977459 285.420474) scale(0.15 -0.15)">
       <defs>
        <path id="NimbusSanL-Regu-30" d="M 1760 4544 
C 1338 4544 954 4358 717 4044 
C 422 3649 275 3043 275 2207 
C 275 683 787 -128 1760 -128 
C 2720 -128 3245 683 3245 2169 
C 3245 3049 3104 3636 2803 4044 
C 2566 4364 2189 4544 1760 4544 
z
M 1760 4044 
C 2368 4044 2669 3432 2669 2220 
C 2669 938 2374 339 1747 339 
C 1152 339 851 964 851 2201 
C 851 3438 1152 4044 1760 4044 
z
" transform="scale(0.015625)"/>
       </defs>
       <use xlink:href="#NimbusSanL-Regu-31" transform="scale(0.996264)"/>
       <use xlink:href="#NimbusSanL-Regu-30" transform="translate(55.391677 0) scale(0.996264)"/>
      </g>
     </g>
    </g>
    <g id="xtick_11">
     <g id="line2d_11">
      <g>
       <use xlink:href="#med0f4990c5" x="342.754916" y="267.772994" style="stroke: #000000"/>
      </g>
     </g>
     <g id="text_11">
      <!-- 11 -->
      <g transform="translate(334.446169 285.420474) scale(0.15 -0.15)">
       <use xlink:href="#NimbusSanL-Regu-31" transform="scale(0.996264)"/>
       <use xlink:href="#NimbusSanL-Regu-31" transform="translate(55.391677 0) scale(0.996264)"/>
      </g>
     </g>
    </g>
    <g id="xtick_12">
     <g id="line2d_12">
      <g>
       <use xlink:href="#med0f4990c5" x="368.223626" y="267.772994" style="stroke: #000000"/>
      </g>
     </g>
     <g id="text_12">
      <!-- 12 -->
      <g transform="translate(359.914879 285.420474) scale(0.15 -0.15)">
       <use xlink:href="#NimbusSanL-Regu-31" transform="scale(0.996264)"/>
       <use xlink:href="#NimbusSanL-Regu-32" transform="translate(55.391677 0) scale(0.996264)"/>
      </g>
     </g>
    </g>
    <g id="xtick_13">
     <g id="line2d_13">
      <g>
       <use xlink:href="#med0f4990c5" x="393.692337" y="267.772994" style="stroke: #000000"/>
      </g>
     </g>
     <g id="text_13">
      <!-- 13 -->
      <g transform="translate(385.38359 285.420474) scale(0.15 -0.15)">
       <use xlink:href="#NimbusSanL-Regu-31" transform="scale(0.996264)"/>
       <use xlink:href="#NimbusSanL-Regu-33" transform="translate(55.391677 0) scale(0.996264)"/>
      </g>
     </g>
    </g>
    <g id="xtick_14">
     <g id="line2d_14">
      <g>
       <use xlink:href="#med0f4990c5" x="419.161047" y="267.772994" style="stroke: #000000"/>
      </g>
     </g>
     <g id="text_14">
      <!-- 14 -->
      <g transform="translate(410.8523 285.420474) scale(0.15 -0.15)">
       <use xlink:href="#NimbusSanL-Regu-31" transform="scale(0.996264)"/>
       <use xlink:href="#NimbusSanL-Regu-34" transform="translate(55.391677 0) scale(0.996264)"/>
      </g>
     </g>
    </g>
    <g id="xtick_15">
     <g id="line2d_15">
      <g>
       <use xlink:href="#med0f4990c5" x="444.629757" y="267.772994" style="stroke: #000000"/>
      </g>
     </g>
     <g id="text_15">
      <!-- 15 -->
      <g transform="translate(436.32101 285.420474) scale(0.15 -0.15)">
       <use xlink:href="#NimbusSanL-Regu-31" transform="scale(0.996264)"/>
       <use xlink:href="#NimbusSanL-Regu-35" transform="translate(55.391677 0) scale(0.996264)"/>
      </g>
     </g>
    </g>
    <g id="xtick_16">
     <g id="line2d_16">
      <g>
       <use xlink:href="#med0f4990c5" x="470.098467" y="267.772994" style="stroke: #000000"/>
      </g>
     </g>
     <g id="text_16">
      <!-- 16 -->
      <g transform="translate(461.78972 285.420474) scale(0.15 -0.15)">
       <use xlink:href="#NimbusSanL-Regu-31" transform="scale(0.996264)"/>
       <use xlink:href="#NimbusSanL-Regu-36" transform="translate(55.391677 0) scale(0.996264)"/>
      </g>
     </g>
    </g>
    <g id="text_17">
     <!-- $i$ -->
     <g transform="translate(277.092634 305.380431) scale(0.18 -0.18)">
      <defs>
       <path id="NimbusSanL-ReguItal-69" d="M 1670 3358 
L 1133 3358 
L 422 0 
L 960 0 
L 1670 3358 
z
M 1952 4672 
L 1414 4672 
L 1274 4012 
L 1811 4012 
L 1952 4672 
z
" transform="scale(0.015625)"/>
      </defs>
      <use xlink:href="#NimbusSanL-ReguItal-69" transform="scale(0.996264)"/>
     </g>
    </g>
   </g>
   <g id="matplotlib.axis_2">
    <g id="ytick_1">
     <g id="line2d_17">
      <defs>
       <path id="mce750009ea" d="M 0 0 
L -3.5 0 
" style="stroke: #000000"/>
      </defs>
      <g>
       <use xlink:href="#mce750009ea" x="68.966281" y="225.328598" style="stroke: #000000"/>
      </g>
     </g>
     <g id="text_18">
      <!-- $\mathdefault{10^{-8}}$ -->
      <g transform="translate(31.396546 230.652338) scale(0.15 -0.15)">
       <defs>
        <path id="CMSY10-0" d="M 4218 1472 
C 4326 1472 4442 1472 4442 1600 
C 4442 1728 4326 1728 4218 1728 
L 755 1728 
C 646 1728 531 1728 531 1600 
C 531 1472 646 1472 755 1472 
L 4218 1472 
z
" transform="scale(0.015625)"/>
       </defs>
       <use xlink:href="#NimbusSanL-Regu-31" transform="scale(0.996264)"/>
       <use xlink:href="#NimbusSanL-Regu-30" transform="translate(55.391677 0) scale(0.996264)"/>
       <use xlink:href="#CMSY10-0" transform="translate(110.783354 36.153639) scale(0.697382)"/>
       <use xlink:href="#NimbusSanL-Regu-38" transform="translate(165.024347 36.153639) scale(0.697382)"/>
      </g>
     </g>
    </g>
    <g id="ytick_2">
     <g id="line2d_18">
      <g>
       <use xlink:href="#mce750009ea" x="68.966281" y="174.100988" style="stroke: #000000"/>
      </g>
     </g>
     <g id="text_19">
      <!-- $\mathdefault{10^{-6}}$ -->
      <g transform="translate(31.396546 179.424728) scale(0.15 -0.15)">
       <use xlink:href="#NimbusSanL-Regu-31" transform="scale(0.996264)"/>
       <use xlink:href="#NimbusSanL-Regu-30" transform="translate(55.391677 0) scale(0.996264)"/>
       <use xlink:href="#CMSY10-0" transform="translate(110.783354 36.153639) scale(0.697382)"/>
       <use xlink:href="#NimbusSanL-Regu-36" transform="translate(165.024347 36.153639) scale(0.697382)"/>
      </g>
     </g>
    </g>
    <g id="ytick_3">
     <g id="line2d_19">
      <g>
       <use xlink:href="#mce750009ea" x="68.966281" y="122.873378" style="stroke: #000000"/>
      </g>
     </g>
     <g id="text_20">
      <!-- $\mathdefault{10^{-4}}$ -->
      <g transform="translate(31.396546 128.197119) scale(0.15 -0.15)">
       <use xlink:href="#NimbusSanL-Regu-31" transform="scale(0.996264)"/>
       <use xlink:href="#NimbusSanL-Regu-30" transform="translate(55.391677 0) scale(0.996264)"/>
       <use xlink:href="#CMSY10-0" transform="translate(110.783354 36.153639) scale(0.697382)"/>
       <use xlink:href="#NimbusSanL-Regu-34" transform="translate(165.024347 36.153639) scale(0.697382)"/>
      </g>
     </g>
    </g>
    <g id="ytick_4">
     <g id="line2d_20">
      <g>
       <use xlink:href="#mce750009ea" x="68.966281" y="71.645769" style="stroke: #000000"/>
      </g>
     </g>
     <g id="text_21">
      <!-- $\mathdefault{10^{-2}}$ -->
      <g transform="translate(31.396546 76.969509) scale(0.15 -0.15)">
       <use xlink:href="#NimbusSanL-Regu-31" transform="scale(0.996264)"/>
       <use xlink:href="#NimbusSanL-Regu-30" transform="translate(55.391677 0) scale(0.996264)"/>
       <use xlink:href="#CMSY10-0" transform="translate(110.783354 36.153639) scale(0.697382)"/>
       <use xlink:href="#NimbusSanL-Regu-32" transform="translate(165.024347 36.153639) scale(0.697382)"/>
      </g>
     </g>
    </g>
    <g id="ytick_5">
     <g id="line2d_21">
      <g>
       <use xlink:href="#mce750009ea" x="68.966281" y="20.418159" style="stroke: #000000"/>
      </g>
     </g>
     <g id="text_22">
      <!-- $\mathdefault{10^{0}}$ -->
      <g transform="translate(39.532692 25.741899) scale(0.15 -0.15)">
       <use xlink:href="#NimbusSanL-Regu-31" transform="scale(0.996264)"/>
       <use xlink:href="#NimbusSanL-Regu-30" transform="translate(55.391677 0) scale(0.996264)"/>
       <use xlink:href="#NimbusSanL-Regu-30" transform="translate(110.783354 36.153639) scale(0.697382)"/>
      </g>
     </g>
    </g>
    <g id="text_23">
     <!-- $p_i$ -->
     <g transform="translate(23.576976 145.665097) rotate(-90) scale(0.18 -0.18)">
      <defs>
       <path id="NimbusSanL-ReguItal-70" d="M 45 -1345 
L 582 -1345 
L 966 453 
C 1165 38 1427 -128 1882 -128 
C 2381 -128 2861 102 3187 504 
C 3533 925 3750 1587 3750 2211 
C 3750 2975 3322 3456 2637 3456 
C 2355 3456 2074 3372 1818 3206 
C 1613 3078 1536 2995 1453 2822 
L 1568 3359 
L 1050 3359 
L 45 -1345 
z
M 2426 2963 
C 2906 2963 3187 2631 3187 2084 
C 3187 1740 3078 1326 2906 1008 
C 2669 574 2349 364 1933 364 
C 1466 364 1171 683 1171 1192 
C 1171 1574 1280 1988 1472 2319 
C 1709 2746 2029 2963 2426 2963 
z
" transform="scale(0.015625)"/>
      </defs>
      <use xlink:href="#NimbusSanL-ReguItal-70" transform="scale(0.996264)"/>
      <use xlink:href="#NimbusSanL-ReguItal-69" transform="translate(55.391692 -16.0695) scale(0.697382)"/>
     </g>
    </g>
   </g>
   <g id="line2d_22">
    <path d="M 88.067814 321 
L 88.067814 22.480591 
" clip-path="url(#p773779964a)" style="fill: none; stroke: #7594c0; stroke-linecap: square"/>
   </g>
   <g id="line2d_23">
    <defs>
     <path id="m5707a65822" d="M 0 2.5 
C 0.663008 2.5 1.29895 2.236584 1.767767 1.767767 
C 2.236584 1.29895 2.5 0.663008 2.5 0 
C 2.5 -0.663008 2.236584 -1.29895 1.767767 -1.767767 
C 1.29895 -2.236584 0.663008 -2.5 0 -2.5 
C -0.663008 -2.5 -1.29895 -2.236584 -1.767767 -1.767767 
C -2.236584 -1.29895 -2.5 -0.663008 -2.5 0 
C -2.5 0.663008 -2.236584 1.29895 -1.767767 1.767767 
C -1.29895 2.236584 -0.663008 2.5 0 2.5 
z
" style="stroke: #4a6995"/>
    </defs>
    <g clip-path="url(#p773779964a)">
     <use xlink:href="#m5707a65822" x="88.067814" y="22.480591" style="fill: #4a6995; stroke: #4a6995"/>
    </g>
   </g>
   <g id="line2d_24">
    <path d="M 113.536524 321 
L 113.536524 44.011002 
" clip-path="url(#p773779964a)" style="fill: none; stroke: #7594c0; stroke-linecap: square"/>
   </g>
   <g id="line2d_25">
    <g clip-path="url(#p773779964a)">
     <use xlink:href="#m5707a65822" x="113.536524" y="44.011002" style="fill: #4a6995; stroke: #4a6995"/>
    </g>
   </g>
   <g id="line2d_26">
    <path d="M 139.005234 321 
L 139.005234 67.04804 
" clip-path="url(#p773779964a)" style="fill: none; stroke: #7594c0; stroke-linecap: square"/>
   </g>
   <g id="line2d_27">
    <g clip-path="url(#p773779964a)">
     <use xlink:href="#m5707a65822" x="139.005234" y="67.04804" style="fill: #4a6995; stroke: #4a6995"/>
    </g>
   </g>
   <g id="line2d_28">
    <path d="M 164.473945 321 
L 164.473945 67.04804 
" clip-path="url(#p773779964a)" style="fill: none; stroke: #7594c0; stroke-linecap: square"/>
   </g>
   <g id="line2d_29">
    <g clip-path="url(#p773779964a)">
     <use xlink:href="#m5707a65822" x="164.473945" y="67.04804" style="fill: #4a6995; stroke: #4a6995"/>
    </g>
   </g>
   <g id="line2d_30">
    <path d="M 189.942655 321 
L 189.942655 67.895449 
" clip-path="url(#p773779964a)" style="fill: none; stroke: #7594c0; stroke-linecap: square"/>
   </g>
   <g id="line2d_31">
    <g clip-path="url(#p773779964a)">
     <use xlink:href="#m5707a65822" x="189.942655" y="67.895449" style="fill: #4a6995; stroke: #4a6995"/>
    </g>
   </g>
   <g id="line2d_32">
    <path d="M 215.411365 321 
L 215.411365 82.469953 
" clip-path="url(#p773779964a)" style="fill: none; stroke: #7594c0; stroke-linecap: square"/>
   </g>
   <g id="line2d_33">
    <g clip-path="url(#p773779964a)">
     <use xlink:href="#m5707a65822" x="215.411365" y="82.469953" style="fill: #4a6995; stroke: #4a6995"/>
    </g>
   </g>
   <g id="line2d_34">
    <path d="M 240.880075 321 
L 240.880075 96.063181 
" clip-path="url(#p773779964a)" style="fill: none; stroke: #7594c0; stroke-linecap: square"/>
   </g>
   <g id="line2d_35">
    <g clip-path="url(#p773779964a)">
     <use xlink:href="#m5707a65822" x="240.880075" y="96.063181" style="fill: #4a6995; stroke: #4a6995"/>
    </g>
   </g>
   <g id="line2d_36">
    <path d="M 266.348786 321 
L 266.348786 129.049457 
" clip-path="url(#p773779964a)" style="fill: none; stroke: #7594c0; stroke-linecap: square"/>
   </g>
   <g id="line2d_37">
    <g clip-path="url(#p773779964a)">
     <use xlink:href="#m5707a65822" x="266.348786" y="129.049457" style="fill: #4a6995; stroke: #4a6995"/>
    </g>
   </g>
   <g id="line2d_38">
    <path d="M 291.817496 321 
L 291.817496 135.82241 
" clip-path="url(#p773779964a)" style="fill: none; stroke: #7594c0; stroke-linecap: square"/>
   </g>
   <g id="line2d_39">
    <g clip-path="url(#p773779964a)">
     <use xlink:href="#m5707a65822" x="291.817496" y="135.82241" style="fill: #4a6995; stroke: #4a6995"/>
    </g>
   </g>
   <g id="line2d_40">
    <path d="M 317.286206 321 
L 317.286206 135.82241 
" clip-path="url(#p773779964a)" style="fill: none; stroke: #7594c0; stroke-linecap: square"/>
   </g>
   <g id="line2d_41">
    <g clip-path="url(#p773779964a)">
     <use xlink:href="#m5707a65822" x="317.286206" y="135.82241" style="fill: #4a6995; stroke: #4a6995"/>
    </g>
   </g>
   <g id="line2d_42">
    <path d="M 342.754916 321 
L 342.754916 147.714709 
" clip-path="url(#p773779964a)" style="fill: none; stroke: #7594c0; stroke-linecap: square"/>
   </g>
   <g id="line2d_43">
    <g clip-path="url(#p773779964a)">
     <use xlink:href="#m5707a65822" x="342.754916" y="147.714709" style="fill: #4a6995; stroke: #4a6995"/>
    </g>
   </g>
   <g id="line2d_44">
    <path d="M 368.223626 321 
L 368.223626 147.888421 
" clip-path="url(#p773779964a)" style="fill: none; stroke: #7594c0; stroke-linecap: square"/>
   </g>
   <g id="line2d_45">
    <g clip-path="url(#p773779964a)">
     <use xlink:href="#m5707a65822" x="368.223626" y="147.888421" style="fill: #4a6995; stroke: #4a6995"/>
    </g>
   </g>
   <g id="line2d_46">
    <path d="M 393.692337 321 
L 393.692337 147.888421 
" clip-path="url(#p773779964a)" style="fill: none; stroke: #7594c0; stroke-linecap: square"/>
   </g>
   <g id="line2d_47">
    <g clip-path="url(#p773779964a)">
     <use xlink:href="#m5707a65822" x="393.692337" y="147.888421" style="fill: #4a6995; stroke: #4a6995"/>
    </g>
   </g>
   <g id="line2d_48">
    <path d="M 419.161047 321 
L 419.161047 148.069874 
" clip-path="url(#p773779964a)" style="fill: none; stroke: #7594c0; stroke-linecap: square"/>
   </g>
   <g id="line2d_49">
    <g clip-path="url(#p773779964a)">
     <use xlink:href="#m5707a65822" x="419.161047" y="148.069874" style="fill: #4a6995; stroke: #4a6995"/>
    </g>
   </g>
   <g id="line2d_50">
    <path d="M 444.629757 321 
L 444.629757 150.004503 
" clip-path="url(#p773779964a)" style="fill: none; stroke: #7594c0; stroke-linecap: square"/>
   </g>
   <g id="line2d_51">
    <g clip-path="url(#p773779964a)">
     <use xlink:href="#m5707a65822" x="444.629757" y="150.004503" style="fill: #4a6995; stroke: #4a6995"/>
    </g>
   </g>
   <g id="line2d_52">
    <path d="M 470.098467 321 
L 470.098467 256.092403 
" clip-path="url(#p773779964a)" style="fill: none; stroke: #7594c0; stroke-linecap: square"/>
   </g>
   <g id="line2d_53">
    <g clip-path="url(#p773779964a)">
     <use xlink:href="#m5707a65822" x="470.098467" y="256.092403" style="fill: #4a6995; stroke: #4a6995"/>
    </g>
   </g>
   <g id="patch_3">
    <path d="M 68.966281 267.772994 
L 68.966281 10.8 
" style="fill: none; stroke: #000000; stroke-linejoin: miter; stroke-linecap: square"/>
   </g>
   <g id="patch_4">
    <path d="M 68.966281 267.772994 
L 489.2 267.772994 
" style="fill: none; stroke: #000000; stroke-linejoin: miter; stroke-linecap: square"/>
   </g>
  </g>
 </g>
 <defs>
  <clipPath id="p773779964a">
   <rect x="68.966281" y="10.8" width="420.233719" height="256.972994"/>
  </clipPath>
 </defs>
</svg>
