<?xml version="1.0" encoding="utf-8" standalone="no"?>
<!DOCTYPE svg PUBLIC "-//W3C//DTD SVG 1.1//EN"
  "http://www.w3.org/Graphics/SVG/1.1/DTD/svg11.dtd">
<svg xmlns:xlink="http://www.w3.org/1999/xlink" width="244.250676pt" height="197.8pt" viewBox="0 0 244.250676 197.8" xmlns="http://www.w3.org/2000/svg" version="1.1">
 <metadata>
  <rdf:RDF xmlns:dc="http://purl.org/dc/elements/1.1/" xmlns:cc="http://creativecommons.org/ns#" xmlns:rdf="http://www.w3.org/1999/02/22-rdf-syntax-ns#">
   <cc:Work>
    <dc:type rdf:resource="http://purl.org/dc/dcmitype/StillImage"/>
    <dc:date>2026-03-04T11:59:35.607847</dc:date>
    <dc:format>image/svg+xml</dc:format>
    <dc:creator>
     <cc:Agent>
      <dc:title>Matplotlib v3.10.8, https://matplotlib.org/</dc:title>
     </cc:Agent>
    </dc:creator>
   </cc:Work>
  </rdf:RDF>
 </metadata>
 <defs>
  <style type="text/css">*{stroke-linejoin: round; stroke-linecap: butt}</style>
 </defs>
 <g id="figure_1">
  <g id="patch_1">
   <path d="M 0 197.8 
L 244.250676 197.8 
L 244.250676 0 
L 0 0 
z
" style="fill: #ffffff"/>
  </g>
  <g id="axes_1">
   <g id="patch_2">
    <path d="M 63.877054 149.172994 
L 225.712191 149.172994 
L 225.712191 7.2 
L 63.877054 7.2 
z
" style="fill: #ffffff"/>
   </g>
   <g id="matplotlib.axis_1">
    <g id="xtick_1">
     <g id="line2d_1">
      <defs>
       <path id="mfe2a252e70" d="M 0 0 
L 0 3.5 
" style="stroke: #000000"/>
      </defs>
      <g>
       <use xlink:href="#mfe2a252e70" x="71.233197" y="149.172994" style="stroke: #000000"/>
      </g>
     </g>
     <g id="text_1">
      <!-- $\mathdefault{0.000}$ -->
      <g transform="translate(52.538569 166.820474) scale(0.15 -0.15)">
       <defs>
        <path id="NimbusSanL-Regu-30" d="M 1760 4544 
C 1338 4544 954 4358 717 4044 
C 422 3649 275 3043 275 2207 
C 275 683 787 -128 1760 -128 
C 2720 -128 3245 683 3245 2169 
C 3245 3049 3104 3636 2803 4044 
C 2566 4364 2189 4544 1760 4544 
z
M 1760 4044 
C 2368 4044 2669 3432 2669 2220 
C 2669 938 2374 339 1747 339 
C 1152 339 851 964 851 2201 
C 851 3438 1152 4044 1760 4044 
z
" transform="scale(0.015625)"/>
        <path id="NimbusSanL-Regu-2e" d="M 1222 665 
L 557 665 
L 557 0 
L 1222 0 
L 1222 665 
z
" transform="scale(0.015625)"/>
       </defs>
       <use xlink:href="#NimbusSanL-Regu-30" transform="scale(0.996264)"/>
       <use xlink:href="#NimbusSanL-Regu-2e" transform="translate(55.391677 0) scale(0.996264)"/>
       <use xlink:href="#NimbusSanL-Regu-30" transform="translate(83.086847 0) scale(0.996264)"/>
       <use xlink:href="#NimbusSanL-Regu-30" transform="translate(138.478524 0) scale(0.996264)"/>
       <use xlink:href="#NimbusSanL-Regu-30" transform="translate(193.8702 0) scale(0.996264)"/>
      </g>
     </g>
    </g>
    <g id="xtick_2">
     <g id="line2d_2">
      <g>
       <use xlink:href="#mfe2a252e70" x="144.794622" y="149.172994" style="stroke: #000000"/>
      </g>
     </g>
     <g id="text_2">
      <!-- $\mathdefault{0.005}$ -->
      <g transform="translate(126.099995 166.820474) scale(0.15 -0.15)">
       <defs>
        <path id="NimbusSanL-Regu-35" d="M 3046 4544 
L 704 4544 
L 365 2076 
L 883 2076 
C 1146 2387 1363 2496 1715 2496 
C 2323 2496 2707 2082 2707 1414 
C 2707 765 2330 371 1715 371 
C 1222 371 922 619 787 1128 
L 224 1128 
C 301 759 365 581 499 415 
C 755 70 1216 -128 1728 -128 
C 2643 -128 3283 536 3283 1490 
C 3283 2381 2688 2995 1818 2995 
C 1498 2995 1242 2912 979 2720 
L 1158 3987 
L 3046 3987 
L 3046 4544 
z
" transform="scale(0.015625)"/>
       </defs>
       <use xlink:href="#NimbusSanL-Regu-30" transform="scale(0.996264)"/>
       <use xlink:href="#NimbusSanL-Regu-2e" transform="translate(55.391677 0) scale(0.996264)"/>
       <use xlink:href="#NimbusSanL-Regu-30" transform="translate(83.086847 0) scale(0.996264)"/>
       <use xlink:href="#NimbusSanL-Regu-30" transform="translate(138.478524 0) scale(0.996264)"/>
       <use xlink:href="#NimbusSanL-Regu-35" transform="translate(193.8702 0) scale(0.996264)"/>
      </g>
     </g>
    </g>
    <g id="xtick_3">
     <g id="line2d_3">
      <g>
       <use xlink:href="#mfe2a252e70" x="218.356048" y="149.172994" style="stroke: #000000"/>
      </g>
     </g>
     <g id="text_3">
      <!-- $\mathdefault{0.010}$ -->
      <g transform="translate(199.661421 166.820474) scale(0.15 -0.15)">
       <defs>
        <path id="NimbusSanL-Regu-31" d="M 1658 3232 
L 1658 0 
L 2221 0 
L 2221 4537 
L 1850 4537 
C 1651 3840 1523 3744 653 3635 
L 653 3232 
L 1658 3232 
z
" transform="scale(0.015625)"/>
       </defs>
       <use xlink:href="#NimbusSanL-Regu-30" transform="scale(0.996264)"/>
       <use xlink:href="#NimbusSanL-Regu-2e" transform="translate(55.391677 0) scale(0.996264)"/>
       <use xlink:href="#NimbusSanL-Regu-30" transform="translate(83.086847 0) scale(0.996264)"/>
       <use xlink:href="#NimbusSanL-Regu-31" transform="translate(138.478524 0) scale(0.996264)"/>
       <use xlink:href="#NimbusSanL-Regu-30" transform="translate(193.8702 0) scale(0.996264)"/>
      </g>
     </g>
    </g>
    <g id="xtick_4">
     <g id="line2d_4">
      <defs>
       <path id="mb1867c5aa9" d="M 0 0 
L 0 2 
" style="stroke: #000000; stroke-width: 0.8"/>
      </defs>
      <g>
       <use xlink:href="#mb1867c5aa9" x="83.493434" y="149.172994" style="stroke: #000000; stroke-width: 0.8"/>
      </g>
     </g>
    </g>
    <g id="xtick_5">
     <g id="line2d_5">
      <g>
       <use xlink:href="#mb1867c5aa9" x="95.753672" y="149.172994" style="stroke: #000000; stroke-width: 0.8"/>
      </g>
     </g>
    </g>
    <g id="xtick_6">
     <g id="line2d_6">
      <g>
       <use xlink:href="#mb1867c5aa9" x="108.013909" y="149.172994" style="stroke: #000000; stroke-width: 0.8"/>
      </g>
     </g>
    </g>
    <g id="xtick_7">
     <g id="line2d_7">
      <g>
       <use xlink:href="#mb1867c5aa9" x="120.274147" y="149.172994" style="stroke: #000000; stroke-width: 0.8"/>
      </g>
     </g>
    </g>
    <g id="xtick_8">
     <g id="line2d_8">
      <g>
       <use xlink:href="#mb1867c5aa9" x="132.534385" y="149.172994" style="stroke: #000000; stroke-width: 0.8"/>
      </g>
     </g>
    </g>
    <g id="xtick_9">
     <g id="line2d_9">
      <g>
       <use xlink:href="#mb1867c5aa9" x="157.05486" y="149.172994" style="stroke: #000000; stroke-width: 0.8"/>
      </g>
     </g>
    </g>
    <g id="xtick_10">
     <g id="line2d_10">
      <g>
       <use xlink:href="#mb1867c5aa9" x="169.315098" y="149.172994" style="stroke: #000000; stroke-width: 0.8"/>
      </g>
     </g>
    </g>
    <g id="xtick_11">
     <g id="line2d_11">
      <g>
       <use xlink:href="#mb1867c5aa9" x="181.575335" y="149.172994" style="stroke: #000000; stroke-width: 0.8"/>
      </g>
     </g>
    </g>
    <g id="xtick_12">
     <g id="line2d_12">
      <g>
       <use xlink:href="#mb1867c5aa9" x="193.835573" y="149.172994" style="stroke: #000000; stroke-width: 0.8"/>
      </g>
     </g>
    </g>
    <g id="xtick_13">
     <g id="line2d_13">
      <g>
       <use xlink:href="#mb1867c5aa9" x="206.09581" y="149.172994" style="stroke: #000000; stroke-width: 0.8"/>
      </g>
     </g>
    </g>
    <g id="text_4">
     <!-- Error parameter $\delta$ -->
     <g transform="translate(75.228317 186.780431) scale(0.18 -0.18)">
      <defs>
       <path id="NimbusSanL-Regu-45" d="M 1171 2112 
L 3712 2112 
L 3712 2636 
L 1171 2636 
L 1171 4147 
L 3808 4147 
L 3808 4672 
L 576 4672 
L 576 0 
L 3923 0 
L 3923 524 
L 1171 524 
L 1171 2112 
z
" transform="scale(0.015625)"/>
       <path id="NimbusSanL-Regu-72" d="M 442 3328 
L 442 0 
L 979 0 
L 979 1727 
C 979 2203 1101 2514 1357 2698 
C 1523 2819 1683 2857 2054 2863 
L 2054 3404 
C 1965 3449 1920 3456 1850 3456 
C 1504 3456 1242 3251 934 2750 
L 934 3328 
L 442 3328 
z
" transform="scale(0.015625)"/>
       <path id="NimbusSanL-Regu-6f" d="M 1741 3456 
C 800 3456 230 2784 230 1663 
C 230 543 794 -128 1747 -128 
C 2688 -128 3264 543 3264 1638 
C 3264 2791 2707 3456 1741 3456 
z
M 1747 2963 
C 2349 2963 2707 2472 2707 1644 
C 2707 861 2336 364 1747 364 
C 1152 364 787 855 787 1663 
C 787 2466 1152 2963 1747 2963 
z
" transform="scale(0.015625)"/>
       <path id="NimbusSanL-Regu-70" d="M 346 -1408 
L 883 -1408 
L 883 371 
C 1165 25 1478 -128 1914 -128 
C 2778 -128 3347 568 3347 1632 
C 3347 2752 2797 3456 1907 3456 
C 1453 3456 1088 3251 838 2854 
L 838 3359 
L 346 3359 
L 346 -1408 
z
M 1818 2956 
C 2406 2956 2790 2440 2790 1644 
C 2790 887 2400 371 1818 371 
C 1254 371 883 880 883 1663 
C 883 2447 1254 2956 1818 2956 
z
" transform="scale(0.015625)"/>
       <path id="NimbusSanL-Regu-61" d="M 3424 332 
C 3366 320 3341 320 3309 320 
C 3123 320 3021 415 3021 581 
L 3021 2542 
C 3021 3135 2586 3456 1760 3456 
C 1274 3456 870 3315 646 3065 
C 493 2893 429 2702 416 2370 
L 954 2370 
C 998 2778 1242 2963 1741 2963 
C 2221 2963 2490 2784 2490 2466 
L 2490 2326 
C 2490 2103 2355 2007 1933 1956 
C 1178 1861 1062 1835 858 1753 
C 467 1593 269 1294 269 861 
C 269 256 691 -128 1370 -128 
C 1792 -128 2131 19 2509 364 
C 2547 25 2714 -128 3059 -128 
C 3168 -128 3251 -116 3424 -71 
L 3424 332 
z
M 2490 1071 
C 2490 893 2438 785 2278 638 
C 2061 441 1798 339 1485 339 
C 1069 339 826 536 826 874 
C 826 1224 1062 1402 1632 1485 
C 2195 1562 2310 1587 2490 1670 
L 2490 1071 
z
" transform="scale(0.015625)"/>
       <path id="NimbusSanL-Regu-6d" d="M 448 3328 
L 448 0 
L 986 0 
L 986 2089 
C 986 2597 1338 2988 1773 2988 
C 2170 2988 2394 2744 2394 2315 
L 2394 0 
L 2931 0 
L 2931 2109 
C 2931 2597 3283 2988 3718 2988 
C 4109 2988 4339 2738 4339 2315 
L 4339 0 
L 4877 0 
L 4877 2520 
C 4877 3123 4531 3456 3904 3456 
C 3456 3456 3187 3321 2874 2943 
C 2675 3302 2406 3456 1971 3456 
C 1523 3456 1229 3289 941 2886 
L 941 3328 
L 448 3328 
z
" transform="scale(0.015625)"/>
       <path id="NimbusSanL-Regu-65" d="M 3283 1484 
C 3283 1998 3245 2311 3149 2565 
C 2931 3123 2419 3456 1792 3456 
C 858 3456 256 2734 256 1619 
C 256 545 838 -128 1779 -128 
C 2547 -128 3078 307 3213 1018 
L 2675 1018 
C 2528 588 2227 364 1798 364 
C 1459 364 1171 514 992 787 
C 864 974 819 1161 813 1484 
L 3283 1484 
z
M 826 1920 
C 870 2552 1248 2963 1786 2963 
C 2310 2963 2714 2519 2714 1959 
C 2714 1946 2714 1933 2707 1920 
L 826 1920 
z
" transform="scale(0.015625)"/>
       <path id="NimbusSanL-Regu-74" d="M 1626 3328 
L 1075 3328 
L 1075 4249 
L 544 4249 
L 544 3328 
L 90 3328 
L 90 2892 
L 544 2892 
L 544 402 
C 544 64 774 -128 1190 -128 
C 1318 -128 1446 -116 1626 -84 
L 1626 364 
C 1555 345 1472 339 1370 339 
C 1139 339 1075 402 1075 634 
L 1075 2892 
L 1626 2892 
L 1626 3328 
z
" transform="scale(0.015625)"/>
       <path id="CMMI12-e" d="M 1664 2795 
C 845 2597 256 1748 256 1001 
C 256 319 717 -64 1229 -64 
C 1984 -64 2496 970 2496 1818 
C 2496 2393 2227 2743 2067 2954 
C 1830 3254 1446 3745 1446 4052 
C 1446 4160 1530 4352 1811 4352 
C 2010 4352 2131 4281 2323 4173 
C 2381 4134 2528 4052 2611 4052 
C 2746 4052 2842 4186 2842 4288 
C 2842 4409 2746 4428 2522 4480 
C 2221 4544 2131 4544 2022 4544 
C 1914 4544 1286 4544 1286 3892 
C 1286 3579 1446 3216 1664 2795 
z
M 1734 2673 
C 1978 2169 2074 1978 2074 1563 
C 2074 1065 1805 64 1235 64 
C 986 64 627 229 627 823 
C 627 1238 864 2444 1734 2673 
z
" transform="scale(0.015625)"/>
      </defs>
      <use xlink:href="#NimbusSanL-Regu-45" transform="scale(0.996264)"/>
      <use xlink:href="#NimbusSanL-Regu-72" transform="translate(66.450031 0) scale(0.996264)"/>
      <use xlink:href="#NimbusSanL-Regu-72" transform="translate(99.625261 0) scale(0.996264)"/>
      <use xlink:href="#NimbusSanL-Regu-6f" transform="translate(132.800491 0) scale(0.996264)"/>
      <use xlink:href="#NimbusSanL-Regu-72" transform="translate(188.192168 0) scale(0.996264)"/>
      <use xlink:href="#NimbusSanL-Regu-70" transform="translate(249.062567 0) scale(0.996264)"/>
      <use xlink:href="#NimbusSanL-Regu-61" transform="translate(304.454244 0) scale(0.996264)"/>
      <use xlink:href="#NimbusSanL-Regu-72" transform="translate(359.845921 0) scale(0.996264)"/>
      <use xlink:href="#NimbusSanL-Regu-61" transform="translate(392.025054 0) scale(0.996264)"/>
      <use xlink:href="#NimbusSanL-Regu-6d" transform="translate(447.416731 0) scale(0.996264)"/>
      <use xlink:href="#NimbusSanL-Regu-65" transform="translate(530.405161 0) scale(0.996264)"/>
      <use xlink:href="#NimbusSanL-Regu-74" transform="translate(585.796838 0) scale(0.996264)"/>
      <use xlink:href="#NimbusSanL-Regu-65" transform="translate(613.492008 0) scale(0.996264)"/>
      <use xlink:href="#NimbusSanL-Regu-72" transform="translate(668.883684 0) scale(0.996264)"/>
      <use xlink:href="#CMMI12-e" transform="translate(729.754084 0) scale(0.996264)"/>
     </g>
    </g>
   </g>
   <g id="matplotlib.axis_2">
    <g id="ytick_1">
     <g id="line2d_14">
      <defs>
       <path id="m51670040c7" d="M 0 0 
L -3.5 0 
" style="stroke: #000000"/>
      </defs>
      <g>
       <use xlink:href="#m51670040c7" x="63.877054" y="140.821642" style="stroke: #000000"/>
      </g>
     </g>
     <g id="text_5">
      <!-- $\mathdefault{0.00}$ -->
      <g transform="translate(27.796546 146.145382) scale(0.15 -0.15)">
       <use xlink:href="#NimbusSanL-Regu-30" transform="scale(0.996264)"/>
       <use xlink:href="#NimbusSanL-Regu-2e" transform="translate(55.391677 0) scale(0.996264)"/>
       <use xlink:href="#NimbusSanL-Regu-30" transform="translate(83.086847 0) scale(0.996264)"/>
       <use xlink:href="#NimbusSanL-Regu-30" transform="translate(138.478524 0) scale(0.996264)"/>
      </g>
     </g>
    </g>
    <g id="ytick_2">
     <g id="line2d_15">
      <g>
       <use xlink:href="#m51670040c7" x="63.877054" y="99.064879" style="stroke: #000000"/>
      </g>
     </g>
     <g id="text_6">
      <!-- $\mathdefault{0.01}$ -->
      <g transform="translate(27.796546 104.388619) scale(0.15 -0.15)">
       <use xlink:href="#NimbusSanL-Regu-30" transform="scale(0.996264)"/>
       <use xlink:href="#NimbusSanL-Regu-2e" transform="translate(55.391677 0) scale(0.996264)"/>
       <use xlink:href="#NimbusSanL-Regu-30" transform="translate(83.086847 0) scale(0.996264)"/>
       <use xlink:href="#NimbusSanL-Regu-31" transform="translate(138.478524 0) scale(0.996264)"/>
      </g>
     </g>
    </g>
    <g id="ytick_3">
     <g id="line2d_16">
      <g>
       <use xlink:href="#m51670040c7" x="63.877054" y="57.308116" style="stroke: #000000"/>
      </g>
     </g>
     <g id="text_7">
      <!-- $\mathdefault{0.02}$ -->
      <g transform="translate(27.796546 62.631856) scale(0.15 -0.15)">
       <defs>
        <path id="NimbusSanL-Regu-32" d="M 3238 556 
L 851 556 
C 909 928 1114 1165 1670 1493 
L 2310 1839 
C 2944 2185 3270 2653 3270 3211 
C 3270 3589 3117 3942 2848 4185 
C 2579 4428 2246 4544 1818 4544 
C 1242 4544 813 4339 563 3955 
C 403 3711 333 3429 320 2967 
L 883 2967 
C 902 3275 941 3461 1018 3608 
C 1165 3884 1459 4051 1798 4051 
C 2310 4051 2694 3685 2694 3198 
C 2694 2839 2483 2531 2080 2300 
L 1491 1967 
C 544 1428 269 999 218 0 
L 3238 0 
L 3238 556 
z
" transform="scale(0.015625)"/>
       </defs>
       <use xlink:href="#NimbusSanL-Regu-30" transform="scale(0.996264)"/>
       <use xlink:href="#NimbusSanL-Regu-2e" transform="translate(55.391677 0) scale(0.996264)"/>
       <use xlink:href="#NimbusSanL-Regu-30" transform="translate(83.086847 0) scale(0.996264)"/>
       <use xlink:href="#NimbusSanL-Regu-32" transform="translate(138.478524 0) scale(0.996264)"/>
      </g>
     </g>
    </g>
    <g id="ytick_4">
     <g id="line2d_17">
      <g>
       <use xlink:href="#m51670040c7" x="63.877054" y="15.551353" style="stroke: #000000"/>
      </g>
     </g>
     <g id="text_8">
      <!-- $\mathdefault{0.03}$ -->
      <g transform="translate(27.796546 20.875093) scale(0.15 -0.15)">
       <defs>
        <path id="NimbusSanL-Regu-33" d="M 1414 2093 
L 1485 2093 
L 1722 2099 
C 2342 2099 2662 1819 2662 1276 
C 2662 709 2310 371 1722 371 
C 1107 371 806 677 768 1334 
L 205 1334 
C 230 970 294 734 403 530 
C 634 96 1082 -128 1702 -128 
C 2637 -128 3238 428 3238 1283 
C 3238 1857 3014 2176 2470 2361 
C 2893 2526 3104 2845 3104 3298 
C 3104 4076 2586 4544 1722 4544 
C 806 4544 320 4044 301 3081 
L 864 3081 
C 870 3356 896 3509 966 3649 
C 1094 3898 1376 4051 1728 4051 
C 2227 4051 2528 3757 2528 3279 
C 2528 2960 2413 2769 2163 2667 
C 2010 2603 1811 2577 1414 2571 
L 1414 2093 
z
" transform="scale(0.015625)"/>
       </defs>
       <use xlink:href="#NimbusSanL-Regu-30" transform="scale(0.996264)"/>
       <use xlink:href="#NimbusSanL-Regu-2e" transform="translate(55.391677 0) scale(0.996264)"/>
       <use xlink:href="#NimbusSanL-Regu-30" transform="translate(83.086847 0) scale(0.996264)"/>
       <use xlink:href="#NimbusSanL-Regu-33" transform="translate(138.478524 0) scale(0.996264)"/>
      </g>
     </g>
    </g>
    <g id="ytick_5">
     <g id="line2d_18">
      <defs>
       <path id="mb058d52d45" d="M 0 0 
L -2 0 
" style="stroke: #000000; stroke-width: 0.8"/>
      </defs>
      <g>
       <use xlink:href="#mb058d52d45" x="63.877054" y="119.94326" style="stroke: #000000; stroke-width: 0.8"/>
      </g>
     </g>
    </g>
    <g id="ytick_6">
     <g id="line2d_19">
      <g>
       <use xlink:href="#mb058d52d45" x="63.877054" y="78.186497" style="stroke: #000000; stroke-width: 0.8"/>
      </g>
     </g>
    </g>
    <g id="ytick_7">
     <g id="line2d_20">
      <g>
       <use xlink:href="#mb058d52d45" x="63.877054" y="36.429734" style="stroke: #000000; stroke-width: 0.8"/>
      </g>
     </g>
    </g>
    <g id="text_9">
     <!-- $\Delta\mathcal{F}$ -->
     <g transform="translate(19.976976 89.114245) rotate(-90) scale(0.18 -0.18)">
      <defs>
       <path id="CMSY10-46" d="M 5312 4102 
C 5312 4396 4819 4352 4621 4352 
L 2208 4352 
C 1888 4352 1318 4166 1216 3820 
C 1229 3782 1242 3775 1280 3775 
C 1421 3775 1613 3891 1702 3987 
C 1901 3987 2093 3999 2291 3999 
L 2688 3999 
C 2688 3999 2662 3884 2662 3878 
C 2413 2707 2035 1721 1754 1112 
C 1715 1031 1370 243 1280 166 
C 998 166 787 320 672 569 
C 653 608 653 633 608 633 
C 461 633 109 428 109 320 
C 109 307 115 294 122 281 
C 237 -20 525 -192 838 -192 
C 1165 -192 1542 44 1747 281 
C 1958 524 2381 1547 2547 1920 
L 3782 1920 
C 3776 1913 3770 1907 3770 1900 
C 3770 1876 3808 1857 3834 1857 
C 3974 1857 4339 2035 4339 2233 
C 4339 2278 4294 2272 4218 2272 
L 2682 2272 
C 2848 2847 3066 3411 3181 3999 
L 4026 3999 
C 4186 3999 4634 4031 4749 3891 
C 4762 3852 4742 3788 4762 3756 
C 4774 3743 4794 3737 4813 3737 
C 4966 3737 5312 3929 5312 4102 
z
" transform="scale(0.015625)"/>
      </defs>
      <use xlink:href="#CMSY10-46" transform="translate(49.8132 0) scale(0.996264)"/>
      <path d="M 0 0 
L 49.8132 0 
L 49.8132 49.8132 
L 0 49.8132 
L 0 0 
z
"/>
     </g>
    </g>
   </g>
   <g id="line2d_21">
    <path d="M 71.233197 140.821642 
L 74.911268 132.571295 
L 78.589339 124.598195 
L 82.26741 116.703331 
L 85.945482 109.350259 
L 89.623553 102.252769 
L 93.301624 94.721553 
L 96.979696 90.854717 
L 100.657767 88.514017 
L 104.335838 85.252336 
L 108.013909 83.04058 
L 111.691981 77.72285 
L 115.370052 74.062523 
L 119.048123 73.319332 
L 122.726195 72.06755 
L 126.404266 70.64309 
L 130.082337 69.963663 
L 133.760408 69.063072 
L 137.43848 68.393762 
L 141.116551 66.9178 
L 144.794622 63.483212 
L 148.472694 61.310151 
L 152.150765 57.041391 
L 155.828836 55.380462 
L 159.506907 53.088704 
L 163.184979 52.161798 
L 166.86305 50.019497 
L 170.541121 47.433843 
L 174.219193 46.736718 
L 177.897264 45.995796 
L 181.575335 48.895328 
L 185.253406 49.904925 
L 188.931478 49.690096 
L 192.609549 52.048557 
L 196.28762 51.619805 
L 199.965692 53.760733 
L 203.643763 55.776362 
L 207.321834 56.368445 
L 210.999906 57.963821 
L 214.677977 57.53605 
L 218.356048 56.517785 
" clip-path="url(#pd69b9be636)" style="fill: none; stroke: #d78e20; stroke-width: 2; stroke-linecap: square"/>
    <defs>
     <path id="mcff973c04d" d="M 0 0.5 
C 0.132602 0.5 0.25979 0.447317 0.353553 0.353553 
C 0.447317 0.25979 0.5 0.132602 0.5 0 
C 0.5 -0.132602 0.447317 -0.25979 0.353553 -0.353553 
C 0.25979 -0.447317 0.132602 -0.5 0 -0.5 
C -0.132602 -0.5 -0.25979 -0.447317 -0.353553 -0.353553 
C -0.447317 -0.25979 -0.5 -0.132602 -0.5 0 
C -0.5 0.132602 -0.447317 0.25979 -0.353553 0.353553 
C -0.25979 0.447317 -0.132602 0.5 0 0.5 
z
" style="stroke: #d78e20"/>
    </defs>
    <g clip-path="url(#pd69b9be636)">
     <use xlink:href="#mcff973c04d" x="71.233197" y="140.821642" style="fill: #d78e20; stroke: #d78e20"/>
     <use xlink:href="#mcff973c04d" x="74.911268" y="132.571295" style="fill: #d78e20; stroke: #d78e20"/>
     <use xlink:href="#mcff973c04d" x="78.589339" y="124.598195" style="fill: #d78e20; stroke: #d78e20"/>
     <use xlink:href="#mcff973c04d" x="82.26741" y="116.703331" style="fill: #d78e20; stroke: #d78e20"/>
     <use xlink:href="#mcff973c04d" x="85.945482" y="109.350259" style="fill: #d78e20; stroke: #d78e20"/>
     <use xlink:href="#mcff973c04d" x="89.623553" y="102.252769" style="fill: #d78e20; stroke: #d78e20"/>
     <use xlink:href="#mcff973c04d" x="93.301624" y="94.721553" style="fill: #d78e20; stroke: #d78e20"/>
     <use xlink:href="#mcff973c04d" x="96.979696" y="90.854717" style="fill: #d78e20; stroke: #d78e20"/>
     <use xlink:href="#mcff973c04d" x="100.657767" y="88.514017" style="fill: #d78e20; stroke: #d78e20"/>
     <use xlink:href="#mcff973c04d" x="104.335838" y="85.252336" style="fill: #d78e20; stroke: #d78e20"/>
     <use xlink:href="#mcff973c04d" x="108.013909" y="83.04058" style="fill: #d78e20; stroke: #d78e20"/>
     <use xlink:href="#mcff973c04d" x="111.691981" y="77.72285" style="fill: #d78e20; stroke: #d78e20"/>
     <use xlink:href="#mcff973c04d" x="115.370052" y="74.062523" style="fill: #d78e20; stroke: #d78e20"/>
     <use xlink:href="#mcff973c04d" x="119.048123" y="73.319332" style="fill: #d78e20; stroke: #d78e20"/>
     <use xlink:href="#mcff973c04d" x="122.726195" y="72.06755" style="fill: #d78e20; stroke: #d78e20"/>
     <use xlink:href="#mcff973c04d" x="126.404266" y="70.64309" style="fill: #d78e20; stroke: #d78e20"/>
     <use xlink:href="#mcff973c04d" x="130.082337" y="69.963663" style="fill: #d78e20; stroke: #d78e20"/>
     <use xlink:href="#mcff973c04d" x="133.760408" y="69.063072" style="fill: #d78e20; stroke: #d78e20"/>
     <use xlink:href="#mcff973c04d" x="137.43848" y="68.393762" style="fill: #d78e20; stroke: #d78e20"/>
     <use xlink:href="#mcff973c04d" x="141.116551" y="66.9178" style="fill: #d78e20; stroke: #d78e20"/>
     <use xlink:href="#mcff973c04d" x="144.794622" y="63.483212" style="fill: #d78e20; stroke: #d78e20"/>
     <use xlink:href="#mcff973c04d" x="148.472694" y="61.310151" style="fill: #d78e20; stroke: #d78e20"/>
     <use xlink:href="#mcff973c04d" x="152.150765" y="57.041391" style="fill: #d78e20; stroke: #d78e20"/>
     <use xlink:href="#mcff973c04d" x="155.828836" y="55.380462" style="fill: #d78e20; stroke: #d78e20"/>
     <use xlink:href="#mcff973c04d" x="159.506907" y="53.088704" style="fill: #d78e20; stroke: #d78e20"/>
     <use xlink:href="#mcff973c04d" x="163.184979" y="52.161798" style="fill: #d78e20; stroke: #d78e20"/>
     <use xlink:href="#mcff973c04d" x="166.86305" y="50.019497" style="fill: #d78e20; stroke: #d78e20"/>
     <use xlink:href="#mcff973c04d" x="170.541121" y="47.433843" style="fill: #d78e20; stroke: #d78e20"/>
     <use xlink:href="#mcff973c04d" x="174.219193" y="46.736718" style="fill: #d78e20; stroke: #d78e20"/>
     <use xlink:href="#mcff973c04d" x="177.897264" y="45.995796" style="fill: #d78e20; stroke: #d78e20"/>
     <use xlink:href="#mcff973c04d" x="181.575335" y="48.895328" style="fill: #d78e20; stroke: #d78e20"/>
     <use xlink:href="#mcff973c04d" x="185.253406" y="49.904925" style="fill: #d78e20; stroke: #d78e20"/>
     <use xlink:href="#mcff973c04d" x="188.931478" y="49.690096" style="fill: #d78e20; stroke: #d78e20"/>
     <use xlink:href="#mcff973c04d" x="192.609549" y="52.048557" style="fill: #d78e20; stroke: #d78e20"/>
     <use xlink:href="#mcff973c04d" x="196.28762" y="51.619805" style="fill: #d78e20; stroke: #d78e20"/>
     <use xlink:href="#mcff973c04d" x="199.965692" y="53.760733" style="fill: #d78e20; stroke: #d78e20"/>
     <use xlink:href="#mcff973c04d" x="203.643763" y="55.776362" style="fill: #d78e20; stroke: #d78e20"/>
     <use xlink:href="#mcff973c04d" x="207.321834" y="56.368445" style="fill: #d78e20; stroke: #d78e20"/>
     <use xlink:href="#mcff973c04d" x="210.999906" y="57.963821" style="fill: #d78e20; stroke: #d78e20"/>
     <use xlink:href="#mcff973c04d" x="214.677977" y="57.53605" style="fill: #d78e20; stroke: #d78e20"/>
     <use xlink:href="#mcff973c04d" x="218.356048" y="56.517785" style="fill: #d78e20; stroke: #d78e20"/>
    </g>
   </g>
   <g id="line2d_22">
    <path d="M 71.233197 140.821642 
L 74.911268 131.038888 
L 78.589339 121.466957 
L 82.26741 112.118322 
L 85.945482 103.710695 
L 89.623553 95.283648 
L 93.301624 86.937579 
L 96.979696 81.336504 
L 100.657767 77.356256 
L 104.335838 73.117979 
L 108.013909 70.076641 
L 111.691981 65.722857 
L 115.370052 63.115707 
L 119.048123 60.998428 
L 122.726195 59.994533 
L 126.404266 57.990137 
L 130.082337 54.928821 
L 133.760408 54.827696 
L 137.43848 53.111148 
L 141.116551 52.114845 
L 144.794622 50.539585 
L 148.472694 48.64618 
L 152.150765 46.760604 
L 155.828836 42.922129 
L 159.506907 40.610309 
L 163.184979 37.838454 
L 166.86305 36.183267 
L 170.541121 34.65027 
L 174.219193 33.241326 
L 177.897264 33.571975 
L 181.575335 32.609797 
L 185.253406 34.217164 
L 188.931478 35.872906 
L 192.609549 35.807134 
L 196.28762 38.4327 
L 199.965692 37.954983 
L 203.643763 40.055932 
L 207.321834 42.915684 
L 210.999906 43.525075 
L 214.677977 45.525997 
L 218.356048 46.783835 
" clip-path="url(#pd69b9be636)" style="fill: none; stroke: #c459a1; stroke-width: 2; stroke-linecap: square"/>
    <defs>
     <path id="mefa9e0e54f" d="M -0.5 0.5 
L 0.5 0.5 
L 0.5 -0.5 
L -0.5 -0.5 
z
" style="stroke: #c459a1; stroke-linejoin: miter"/>
    </defs>
    <g clip-path="url(#pd69b9be636)">
     <use xlink:href="#mefa9e0e54f" x="71.233197" y="140.821642" style="fill: #c459a1; stroke: #c459a1; stroke-linejoin: miter"/>
     <use xlink:href="#mefa9e0e54f" x="74.911268" y="131.038888" style="fill: #c459a1; stroke: #c459a1; stroke-linejoin: miter"/>
     <use xlink:href="#mefa9e0e54f" x="78.589339" y="121.466957" style="fill: #c459a1; stroke: #c459a1; stroke-linejoin: miter"/>
     <use xlink:href="#mefa9e0e54f" x="82.26741" y="112.118322" style="fill: #c459a1; stroke: #c459a1; stroke-linejoin: miter"/>
     <use xlink:href="#mefa9e0e54f" x="85.945482" y="103.710695" style="fill: #c459a1; stroke: #c459a1; stroke-linejoin: miter"/>
     <use xlink:href="#mefa9e0e54f" x="89.623553" y="95.283648" style="fill: #c459a1; stroke: #c459a1; stroke-linejoin: miter"/>
     <use xlink:href="#mefa9e0e54f" x="93.301624" y="86.937579" style="fill: #c459a1; stroke: #c459a1; stroke-linejoin: miter"/>
     <use xlink:href="#mefa9e0e54f" x="96.979696" y="81.336504" style="fill: #c459a1; stroke: #c459a1; stroke-linejoin: miter"/>
     <use xlink:href="#mefa9e0e54f" x="100.657767" y="77.356256" style="fill: #c459a1; stroke: #c459a1; stroke-linejoin: miter"/>
     <use xlink:href="#mefa9e0e54f" x="104.335838" y="73.117979" style="fill: #c459a1; stroke: #c459a1; stroke-linejoin: miter"/>
     <use xlink:href="#mefa9e0e54f" x="108.013909" y="70.076641" style="fill: #c459a1; stroke: #c459a1; stroke-linejoin: miter"/>
     <use xlink:href="#mefa9e0e54f" x="111.691981" y="65.722857" style="fill: #c459a1; stroke: #c459a1; stroke-linejoin: miter"/>
     <use xlink:href="#mefa9e0e54f" x="115.370052" y="63.115707" style="fill: #c459a1; stroke: #c459a1; stroke-linejoin: miter"/>
     <use xlink:href="#mefa9e0e54f" x="119.048123" y="60.998428" style="fill: #c459a1; stroke: #c459a1; stroke-linejoin: miter"/>
     <use xlink:href="#mefa9e0e54f" x="122.726195" y="59.994533" style="fill: #c459a1; stroke: #c459a1; stroke-linejoin: miter"/>
     <use xlink:href="#mefa9e0e54f" x="126.404266" y="57.990137" style="fill: #c459a1; stroke: #c459a1; stroke-linejoin: miter"/>
     <use xlink:href="#mefa9e0e54f" x="130.082337" y="54.928821" style="fill: #c459a1; stroke: #c459a1; stroke-linejoin: miter"/>
     <use xlink:href="#mefa9e0e54f" x="133.760408" y="54.827696" style="fill: #c459a1; stroke: #c459a1; stroke-linejoin: miter"/>
     <use xlink:href="#mefa9e0e54f" x="137.43848" y="53.111148" style="fill: #c459a1; stroke: #c459a1; stroke-linejoin: miter"/>
     <use xlink:href="#mefa9e0e54f" x="141.116551" y="52.114845" style="fill: #c459a1; stroke: #c459a1; stroke-linejoin: miter"/>
     <use xlink:href="#mefa9e0e54f" x="144.794622" y="50.539585" style="fill: #c459a1; stroke: #c459a1; stroke-linejoin: miter"/>
     <use xlink:href="#mefa9e0e54f" x="148.472694" y="48.64618" style="fill: #c459a1; stroke: #c459a1; stroke-linejoin: miter"/>
     <use xlink:href="#mefa9e0e54f" x="152.150765" y="46.760604" style="fill: #c459a1; stroke: #c459a1; stroke-linejoin: miter"/>
     <use xlink:href="#mefa9e0e54f" x="155.828836" y="42.922129" style="fill: #c459a1; stroke: #c459a1; stroke-linejoin: miter"/>
     <use xlink:href="#mefa9e0e54f" x="159.506907" y="40.610309" style="fill: #c459a1; stroke: #c459a1; stroke-linejoin: miter"/>
     <use xlink:href="#mefa9e0e54f" x="163.184979" y="37.838454" style="fill: #c459a1; stroke: #c459a1; stroke-linejoin: miter"/>
     <use xlink:href="#mefa9e0e54f" x="166.86305" y="36.183267" style="fill: #c459a1; stroke: #c459a1; stroke-linejoin: miter"/>
     <use xlink:href="#mefa9e0e54f" x="170.541121" y="34.65027" style="fill: #c459a1; stroke: #c459a1; stroke-linejoin: miter"/>
     <use xlink:href="#mefa9e0e54f" x="174.219193" y="33.241326" style="fill: #c459a1; stroke: #c459a1; stroke-linejoin: miter"/>
     <use xlink:href="#mefa9e0e54f" x="177.897264" y="33.571975" style="fill: #c459a1; stroke: #c459a1; stroke-linejoin: miter"/>
     <use xlink:href="#mefa9e0e54f" x="181.575335" y="32.609797" style="fill: #c459a1; stroke: #c459a1; stroke-linejoin: miter"/>
     <use xlink:href="#mefa9e0e54f" x="185.253406" y="34.217164" style="fill: #c459a1; stroke: #c459a1; stroke-linejoin: miter"/>
     <use xlink:href="#mefa9e0e54f" x="188.931478" y="35.872906" style="fill: #c459a1; stroke: #c459a1; stroke-linejoin: miter"/>
     <use xlink:href="#mefa9e0e54f" x="192.609549" y="35.807134" style="fill: #c459a1; stroke: #c459a1; stroke-linejoin: miter"/>
     <use xlink:href="#mefa9e0e54f" x="196.28762" y="38.4327" style="fill: #c459a1; stroke: #c459a1; stroke-linejoin: miter"/>
     <use xlink:href="#mefa9e0e54f" x="199.965692" y="37.954983" style="fill: #c459a1; stroke: #c459a1; stroke-linejoin: miter"/>
     <use xlink:href="#mefa9e0e54f" x="203.643763" y="40.055932" style="fill: #c459a1; stroke: #c459a1; stroke-linejoin: miter"/>
     <use xlink:href="#mefa9e0e54f" x="207.321834" y="42.915684" style="fill: #c459a1; stroke: #c459a1; stroke-linejoin: miter"/>
     <use xlink:href="#mefa9e0e54f" x="210.999906" y="43.525075" style="fill: #c459a1; stroke: #c459a1; stroke-linejoin: miter"/>
     <use xlink:href="#mefa9e0e54f" x="214.677977" y="45.525997" style="fill: #c459a1; stroke: #c459a1; stroke-linejoin: miter"/>
     <use xlink:href="#mefa9e0e54f" x="218.356048" y="46.783835" style="fill: #c459a1; stroke: #c459a1; stroke-linejoin: miter"/>
    </g>
   </g>
   <g id="line2d_23">
    <path d="M 71.233197 140.821642 
L 74.911268 131.225879 
L 78.589339 121.995089 
L 82.26741 112.859363 
L 85.945482 105.008242 
L 89.623553 95.86169 
L 93.301624 88.392133 
L 96.979696 83.924694 
L 100.657767 80.679616 
L 104.335838 76.023141 
L 108.013909 72.200305 
L 111.691981 68.816315 
L 115.370052 66.956997 
L 119.048123 66.729309 
L 122.726195 64.124442 
L 126.404266 63.724351 
L 130.082337 62.897785 
L 133.760408 60.706331 
L 137.43848 60.175951 
L 141.116551 58.173507 
L 144.794622 57.906931 
L 148.472694 57.159162 
L 152.150765 55.629296 
L 155.828836 52.851682 
L 159.506907 50.92794 
L 163.184979 48.933771 
L 166.86305 45.227869 
L 170.541121 41.941341 
L 174.219193 44.20669 
L 177.897264 45.534999 
L 181.575335 44.956978 
L 185.253406 46.189118 
L 188.931478 46.243043 
L 192.609549 48.127781 
L 196.28762 49.147116 
L 199.965692 50.17791 
L 203.643763 52.717175 
L 207.321834 52.621656 
L 210.999906 56.31188 
L 214.677977 57.280308 
L 218.356048 58.619894 
" clip-path="url(#pd69b9be636)" style="fill: none; stroke: #498c41; stroke-width: 2; stroke-linecap: square"/>
    <defs>
     <path id="meafbb3ab9d" d="M -0 0.707107 
L 0.707107 0 
L 0 -0.707107 
L -0.707107 -0 
z
" style="stroke: #498c41; stroke-linejoin: miter"/>
    </defs>
    <g clip-path="url(#pd69b9be636)">
     <use xlink:href="#meafbb3ab9d" x="71.233197" y="140.821642" style="fill: #498c41; stroke: #498c41; stroke-linejoin: miter"/>
     <use xlink:href="#meafbb3ab9d" x="74.911268" y="131.225879" style="fill: #498c41; stroke: #498c41; stroke-linejoin: miter"/>
     <use xlink:href="#meafbb3ab9d" x="78.589339" y="121.995089" style="fill: #498c41; stroke: #498c41; stroke-linejoin: miter"/>
     <use xlink:href="#meafbb3ab9d" x="82.26741" y="112.859363" style="fill: #498c41; stroke: #498c41; stroke-linejoin: miter"/>
     <use xlink:href="#meafbb3ab9d" x="85.945482" y="105.008242" style="fill: #498c41; stroke: #498c41; stroke-linejoin: miter"/>
     <use xlink:href="#meafbb3ab9d" x="89.623553" y="95.86169" style="fill: #498c41; stroke: #498c41; stroke-linejoin: miter"/>
     <use xlink:href="#meafbb3ab9d" x="93.301624" y="88.392133" style="fill: #498c41; stroke: #498c41; stroke-linejoin: miter"/>
     <use xlink:href="#meafbb3ab9d" x="96.979696" y="83.924694" style="fill: #498c41; stroke: #498c41; stroke-linejoin: miter"/>
     <use xlink:href="#meafbb3ab9d" x="100.657767" y="80.679616" style="fill: #498c41; stroke: #498c41; stroke-linejoin: miter"/>
     <use xlink:href="#meafbb3ab9d" x="104.335838" y="76.023141" style="fill: #498c41; stroke: #498c41; stroke-linejoin: miter"/>
     <use xlink:href="#meafbb3ab9d" x="108.013909" y="72.200305" style="fill: #498c41; stroke: #498c41; stroke-linejoin: miter"/>
     <use xlink:href="#meafbb3ab9d" x="111.691981" y="68.816315" style="fill: #498c41; stroke: #498c41; stroke-linejoin: miter"/>
     <use xlink:href="#meafbb3ab9d" x="115.370052" y="66.956997" style="fill: #498c41; stroke: #498c41; stroke-linejoin: miter"/>
     <use xlink:href="#meafbb3ab9d" x="119.048123" y="66.729309" style="fill: #498c41; stroke: #498c41; stroke-linejoin: miter"/>
     <use xlink:href="#meafbb3ab9d" x="122.726195" y="64.124442" style="fill: #498c41; stroke: #498c41; stroke-linejoin: miter"/>
     <use xlink:href="#meafbb3ab9d" x="126.404266" y="63.724351" style="fill: #498c41; stroke: #498c41; stroke-linejoin: miter"/>
     <use xlink:href="#meafbb3ab9d" x="130.082337" y="62.897785" style="fill: #498c41; stroke: #498c41; stroke-linejoin: miter"/>
     <use xlink:href="#meafbb3ab9d" x="133.760408" y="60.706331" style="fill: #498c41; stroke: #498c41; stroke-linejoin: miter"/>
     <use xlink:href="#meafbb3ab9d" x="137.43848" y="60.175951" style="fill: #498c41; stroke: #498c41; stroke-linejoin: miter"/>
     <use xlink:href="#meafbb3ab9d" x="141.116551" y="58.173507" style="fill: #498c41; stroke: #498c41; stroke-linejoin: miter"/>
     <use xlink:href="#meafbb3ab9d" x="144.794622" y="57.906931" style="fill: #498c41; stroke: #498c41; stroke-linejoin: miter"/>
     <use xlink:href="#meafbb3ab9d" x="148.472694" y="57.159162" style="fill: #498c41; stroke: #498c41; stroke-linejoin: miter"/>
     <use xlink:href="#meafbb3ab9d" x="152.150765" y="55.629296" style="fill: #498c41; stroke: #498c41; stroke-linejoin: miter"/>
     <use xlink:href="#meafbb3ab9d" x="155.828836" y="52.851682" style="fill: #498c41; stroke: #498c41; stroke-linejoin: miter"/>
     <use xlink:href="#meafbb3ab9d" x="159.506907" y="50.92794" style="fill: #498c41; stroke: #498c41; stroke-linejoin: miter"/>
     <use xlink:href="#meafbb3ab9d" x="163.184979" y="48.933771" style="fill: #498c41; stroke: #498c41; stroke-linejoin: miter"/>
     <use xlink:href="#meafbb3ab9d" x="166.86305" y="45.227869" style="fill: #498c41; stroke: #498c41; stroke-linejoin: miter"/>
     <use xlink:href="#meafbb3ab9d" x="170.541121" y="41.941341" style="fill: #498c41; stroke: #498c41; stroke-linejoin: miter"/>
     <use xlink:href="#meafbb3ab9d" x="174.219193" y="44.20669" style="fill: #498c41; stroke: #498c41; stroke-linejoin: miter"/>
     <use xlink:href="#meafbb3ab9d" x="177.897264" y="45.534999" style="fill: #498c41; stroke: #498c41; stroke-linejoin: miter"/>
     <use xlink:href="#meafbb3ab9d" x="181.575335" y="44.956978" style="fill: #498c41; stroke: #498c41; stroke-linejoin: miter"/>
     <use xlink:href="#meafbb3ab9d" x="185.253406" y="46.189118" style="fill: #498c41; stroke: #498c41; stroke-linejoin: miter"/>
     <use xlink:href="#meafbb3ab9d" x="188.931478" y="46.243043" style="fill: #498c41; stroke: #498c41; stroke-linejoin: miter"/>
     <use xlink:href="#meafbb3ab9d" x="192.609549" y="48.127781" style="fill: #498c41; stroke: #498c41; stroke-linejoin: miter"/>
     <use xlink:href="#meafbb3ab9d" x="196.28762" y="49.147116" style="fill: #498c41; stroke: #498c41; stroke-linejoin: miter"/>
     <use xlink:href="#meafbb3ab9d" x="199.965692" y="50.17791" style="fill: #498c41; stroke: #498c41; stroke-linejoin: miter"/>
     <use xlink:href="#meafbb3ab9d" x="203.643763" y="52.717175" style="fill: #498c41; stroke: #498c41; stroke-linejoin: miter"/>
     <use xlink:href="#meafbb3ab9d" x="207.321834" y="52.621656" style="fill: #498c41; stroke: #498c41; stroke-linejoin: miter"/>
     <use xlink:href="#meafbb3ab9d" x="210.999906" y="56.31188" style="fill: #498c41; stroke: #498c41; stroke-linejoin: miter"/>
     <use xlink:href="#meafbb3ab9d" x="214.677977" y="57.280308" style="fill: #498c41; stroke: #498c41; stroke-linejoin: miter"/>
     <use xlink:href="#meafbb3ab9d" x="218.356048" y="58.619894" style="fill: #498c41; stroke: #498c41; stroke-linejoin: miter"/>
    </g>
   </g>
   <g id="patch_3">
    <path d="M 63.877054 149.172994 
L 63.877054 7.2 
" style="fill: none; stroke: #000000; stroke-linejoin: miter; stroke-linecap: square"/>
   </g>
   <g id="patch_4">
    <path d="M 63.877054 149.172994 
L 225.712191 149.172994 
" style="fill: none; stroke: #000000; stroke-linejoin: miter; stroke-linecap: square"/>
   </g>
  </g>
 </g>
 <defs>
  <clipPath id="pd69b9be636">
   <rect x="63.877054" y="7.2" width="161.835137" height="141.972994"/>
  </clipPath>
 </defs>
</svg>
