<?xml version="1.0" encoding="utf-8" standalone="no"?>
<!DOCTYPE svg PUBLIC "-//W3C//DTD SVG 1.1//EN"
  "http://www.w3.org/Graphics/SVG/1.1/DTD/svg11.dtd">
<svg xmlns:xlink="http://www.w3.org/1999/xlink" width="244.250676pt" height="197.8pt" viewBox="0 0 244.250676 197.8" xmlns="http://www.w3.org/2000/svg" version="1.1">
 <metadata>
  <rdf:RDF xmlns:dc="http://purl.org/dc/elements/1.1/" xmlns:cc="http://creativecommons.org/ns#" xmlns:rdf="http://www.w3.org/1999/02/22-rdf-syntax-ns#">
   <cc:Work>
    <dc:type rdf:resource="http://purl.org/dc/dcmitype/StillImage"/>
    <dc:date>2026-03-04T11:59:35.548175</dc:date>
    <dc:format>image/svg+xml</dc:format>
    <dc:creator>
     <cc:Agent>
      <dc:title>Matplotlib v3.10.8, https://matplotlib.org/</dc:title>
     </cc:Agent>
    </dc:creator>
   </cc:Work>
  </rdf:RDF>
 </metadata>
 <defs>
  <style type="text/css">*{stroke-linejoin: round; stroke-linecap: butt}</style>
 </defs>
 <g id="figure_1">
  <g id="patch_1">
   <path d="M 0 197.8 
L 244.250676 197.8 
L 244.250676 0 
L 0 0 
z
" style="fill: #ffffff"/>
  </g>
  <g id="axes_1">
   <g id="patch_2">
    <path d="M 63.877054 149.172994 
L 225.712191 149.172994 
L 225.712191 7.2 
L 63.877054 7.2 
z
" style="fill: #ffffff"/>
   </g>
   <g id="matplotlib.axis_1">
    <g id="xtick_1">
     <g id="line2d_1">
      <defs>
       <path id="mdd1e6f80a7" d="M 0 0 
L 0 3.5 
" style="stroke: #000000"/>
      </defs>
      <g>
       <use xlink:href="#mdd1e6f80a7" x="71.233197" y="149.172994" style="stroke: #000000"/>
      </g>
     </g>
     <g id="text_1">
      <!-- $\mathdefault{0.000}$ -->
      <g transform="translate(52.538569 166.820474) scale(0.15 -0.15)">
       <defs>
        <path id="NimbusSanL-Regu-30" d="M 1760 4544 
C 1338 4544 954 4358 717 4044 
C 422 3649 275 3043 275 2207 
C 275 683 787 -128 1760 -128 
C 2720 -128 3245 683 3245 2169 
C 3245 3049 3104 3636 2803 4044 
C 2566 4364 2189 4544 1760 4544 
z
M 1760 4044 
C 2368 4044 2669 3432 2669 2220 
C 2669 938 2374 339 1747 339 
C 1152 339 851 964 851 2201 
C 851 3438 1152 4044 1760 4044 
z
" transform="scale(0.015625)"/>
        <path id="NimbusSanL-Regu-2e" d="M 1222 665 
L 557 665 
L 557 0 
L 1222 0 
L 1222 665 
z
" transform="scale(0.015625)"/>
       </defs>
       <use xlink:href="#NimbusSanL-Regu-30" transform="scale(0.996264)"/>
       <use xlink:href="#NimbusSanL-Regu-2e" transform="translate(55.391677 0) scale(0.996264)"/>
       <use xlink:href="#NimbusSanL-Regu-30" transform="translate(83.086847 0) scale(0.996264)"/>
       <use xlink:href="#NimbusSanL-Regu-30" transform="translate(138.478524 0) scale(0.996264)"/>
       <use xlink:href="#NimbusSanL-Regu-30" transform="translate(193.8702 0) scale(0.996264)"/>
      </g>
     </g>
    </g>
    <g id="xtick_2">
     <g id="line2d_2">
      <g>
       <use xlink:href="#mdd1e6f80a7" x="144.794622" y="149.172994" style="stroke: #000000"/>
      </g>
     </g>
     <g id="text_2">
      <!-- $\mathdefault{0.005}$ -->
      <g transform="translate(126.099995 166.820474) scale(0.15 -0.15)">
       <defs>
        <path id="NimbusSanL-Regu-35" d="M 3046 4544 
L 704 4544 
L 365 2076 
L 883 2076 
C 1146 2387 1363 2496 1715 2496 
C 2323 2496 2707 2082 2707 1414 
C 2707 765 2330 371 1715 371 
C 1222 371 922 619 787 1128 
L 224 1128 
C 301 759 365 581 499 415 
C 755 70 1216 -128 1728 -128 
C 2643 -128 3283 536 3283 1490 
C 3283 2381 2688 2995 1818 2995 
C 1498 2995 1242 2912 979 2720 
L 1158 3987 
L 3046 3987 
L 3046 4544 
z
" transform="scale(0.015625)"/>
       </defs>
       <use xlink:href="#NimbusSanL-Regu-30" transform="scale(0.996264)"/>
       <use xlink:href="#NimbusSanL-Regu-2e" transform="translate(55.391677 0) scale(0.996264)"/>
       <use xlink:href="#NimbusSanL-Regu-30" transform="translate(83.086847 0) scale(0.996264)"/>
       <use xlink:href="#NimbusSanL-Regu-30" transform="translate(138.478524 0) scale(0.996264)"/>
       <use xlink:href="#NimbusSanL-Regu-35" transform="translate(193.8702 0) scale(0.996264)"/>
      </g>
     </g>
    </g>
    <g id="xtick_3">
     <g id="line2d_3">
      <g>
       <use xlink:href="#mdd1e6f80a7" x="218.356048" y="149.172994" style="stroke: #000000"/>
      </g>
     </g>
     <g id="text_3">
      <!-- $\mathdefault{0.010}$ -->
      <g transform="translate(199.661421 166.820474) scale(0.15 -0.15)">
       <defs>
        <path id="NimbusSanL-Regu-31" d="M 1658 3232 
L 1658 0 
L 2221 0 
L 2221 4537 
L 1850 4537 
C 1651 3840 1523 3744 653 3635 
L 653 3232 
L 1658 3232 
z
" transform="scale(0.015625)"/>
       </defs>
       <use xlink:href="#NimbusSanL-Regu-30" transform="scale(0.996264)"/>
       <use xlink:href="#NimbusSanL-Regu-2e" transform="translate(55.391677 0) scale(0.996264)"/>
       <use xlink:href="#NimbusSanL-Regu-30" transform="translate(83.086847 0) scale(0.996264)"/>
       <use xlink:href="#NimbusSanL-Regu-31" transform="translate(138.478524 0) scale(0.996264)"/>
       <use xlink:href="#NimbusSanL-Regu-30" transform="translate(193.8702 0) scale(0.996264)"/>
      </g>
     </g>
    </g>
    <g id="xtick_4">
     <g id="line2d_4">
      <defs>
       <path id="med922a178f" d="M 0 0 
L 0 2 
" style="stroke: #000000; stroke-width: 0.8"/>
      </defs>
      <g>
       <use xlink:href="#med922a178f" x="83.493434" y="149.172994" style="stroke: #000000; stroke-width: 0.8"/>
      </g>
     </g>
    </g>
    <g id="xtick_5">
     <g id="line2d_5">
      <g>
       <use xlink:href="#med922a178f" x="95.753672" y="149.172994" style="stroke: #000000; stroke-width: 0.8"/>
      </g>
     </g>
    </g>
    <g id="xtick_6">
     <g id="line2d_6">
      <g>
       <use xlink:href="#med922a178f" x="108.013909" y="149.172994" style="stroke: #000000; stroke-width: 0.8"/>
      </g>
     </g>
    </g>
    <g id="xtick_7">
     <g id="line2d_7">
      <g>
       <use xlink:href="#med922a178f" x="120.274147" y="149.172994" style="stroke: #000000; stroke-width: 0.8"/>
      </g>
     </g>
    </g>
    <g id="xtick_8">
     <g id="line2d_8">
      <g>
       <use xlink:href="#med922a178f" x="132.534385" y="149.172994" style="stroke: #000000; stroke-width: 0.8"/>
      </g>
     </g>
    </g>
    <g id="xtick_9">
     <g id="line2d_9">
      <g>
       <use xlink:href="#med922a178f" x="157.05486" y="149.172994" style="stroke: #000000; stroke-width: 0.8"/>
      </g>
     </g>
    </g>
    <g id="xtick_10">
     <g id="line2d_10">
      <g>
       <use xlink:href="#med922a178f" x="169.315098" y="149.172994" style="stroke: #000000; stroke-width: 0.8"/>
      </g>
     </g>
    </g>
    <g id="xtick_11">
     <g id="line2d_11">
      <g>
       <use xlink:href="#med922a178f" x="181.575335" y="149.172994" style="stroke: #000000; stroke-width: 0.8"/>
      </g>
     </g>
    </g>
    <g id="xtick_12">
     <g id="line2d_12">
      <g>
       <use xlink:href="#med922a178f" x="193.835573" y="149.172994" style="stroke: #000000; stroke-width: 0.8"/>
      </g>
     </g>
    </g>
    <g id="xtick_13">
     <g id="line2d_13">
      <g>
       <use xlink:href="#med922a178f" x="206.09581" y="149.172994" style="stroke: #000000; stroke-width: 0.8"/>
      </g>
     </g>
    </g>
    <g id="text_4">
     <!-- Error parameter $\delta$ -->
     <g transform="translate(75.228317 186.780431) scale(0.18 -0.18)">
      <defs>
       <path id="NimbusSanL-Regu-45" d="M 1171 2112 
L 3712 2112 
L 3712 2636 
L 1171 2636 
L 1171 4147 
L 3808 4147 
L 3808 4672 
L 576 4672 
L 576 0 
L 3923 0 
L 3923 524 
L 1171 524 
L 1171 2112 
z
" transform="scale(0.015625)"/>
       <path id="NimbusSanL-Regu-72" d="M 442 3328 
L 442 0 
L 979 0 
L 979 1727 
C 979 2203 1101 2514 1357 2698 
C 1523 2819 1683 2857 2054 2863 
L 2054 3404 
C 1965 3449 1920 3456 1850 3456 
C 1504 3456 1242 3251 934 2750 
L 934 3328 
L 442 3328 
z
" transform="scale(0.015625)"/>
       <path id="NimbusSanL-Regu-6f" d="M 1741 3456 
C 800 3456 230 2784 230 1663 
C 230 543 794 -128 1747 -128 
C 2688 -128 3264 543 3264 1638 
C 3264 2791 2707 3456 1741 3456 
z
M 1747 2963 
C 2349 2963 2707 2472 2707 1644 
C 2707 861 2336 364 1747 364 
C 1152 364 787 855 787 1663 
C 787 2466 1152 2963 1747 2963 
z
" transform="scale(0.015625)"/>
       <path id="NimbusSanL-Regu-70" d="M 346 -1408 
L 883 -1408 
L 883 371 
C 1165 25 1478 -128 1914 -128 
C 2778 -128 3347 568 3347 1632 
C 3347 2752 2797 3456 1907 3456 
C 1453 3456 1088 3251 838 2854 
L 838 3359 
L 346 3359 
L 346 -1408 
z
M 1818 2956 
C 2406 2956 2790 2440 2790 1644 
C 2790 887 2400 371 1818 371 
C 1254 371 883 880 883 1663 
C 883 2447 1254 2956 1818 2956 
z
" transform="scale(0.015625)"/>
       <path id="NimbusSanL-Regu-61" d="M 3424 332 
C 3366 320 3341 320 3309 320 
C 3123 320 3021 415 3021 581 
L 3021 2542 
C 3021 3135 2586 3456 1760 3456 
C 1274 3456 870 3315 646 3065 
C 493 2893 429 2702 416 2370 
L 954 2370 
C 998 2778 1242 2963 1741 2963 
C 2221 2963 2490 2784 2490 2466 
L 2490 2326 
C 2490 2103 2355 2007 1933 1956 
C 1178 1861 1062 1835 858 1753 
C 467 1593 269 1294 269 861 
C 269 256 691 -128 1370 -128 
C 1792 -128 2131 19 2509 364 
C 2547 25 2714 -128 3059 -128 
C 3168 -128 3251 -116 3424 -71 
L 3424 332 
z
M 2490 1071 
C 2490 893 2438 785 2278 638 
C 2061 441 1798 339 1485 339 
C 1069 339 826 536 826 874 
C 826 1224 1062 1402 1632 1485 
C 2195 1562 2310 1587 2490 1670 
L 2490 1071 
z
" transform="scale(0.015625)"/>
       <path id="NimbusSanL-Regu-6d" d="M 448 3328 
L 448 0 
L 986 0 
L 986 2089 
C 986 2597 1338 2988 1773 2988 
C 2170 2988 2394 2744 2394 2315 
L 2394 0 
L 2931 0 
L 2931 2109 
C 2931 2597 3283 2988 3718 2988 
C 4109 2988 4339 2738 4339 2315 
L 4339 0 
L 4877 0 
L 4877 2520 
C 4877 3123 4531 3456 3904 3456 
C 3456 3456 3187 3321 2874 2943 
C 2675 3302 2406 3456 1971 3456 
C 1523 3456 1229 3289 941 2886 
L 941 3328 
L 448 3328 
z
" transform="scale(0.015625)"/>
       <path id="NimbusSanL-Regu-65" d="M 3283 1484 
C 3283 1998 3245 2311 3149 2565 
C 2931 3123 2419 3456 1792 3456 
C 858 3456 256 2734 256 1619 
C 256 545 838 -128 1779 -128 
C 2547 -128 3078 307 3213 1018 
L 2675 1018 
C 2528 588 2227 364 1798 364 
C 1459 364 1171 514 992 787 
C 864 974 819 1161 813 1484 
L 3283 1484 
z
M 826 1920 
C 870 2552 1248 2963 1786 2963 
C 2310 2963 2714 2519 2714 1959 
C 2714 1946 2714 1933 2707 1920 
L 826 1920 
z
" transform="scale(0.015625)"/>
       <path id="NimbusSanL-Regu-74" d="M 1626 3328 
L 1075 3328 
L 1075 4249 
L 544 4249 
L 544 3328 
L 90 3328 
L 90 2892 
L 544 2892 
L 544 402 
C 544 64 774 -128 1190 -128 
C 1318 -128 1446 -116 1626 -84 
L 1626 364 
C 1555 345 1472 339 1370 339 
C 1139 339 1075 402 1075 634 
L 1075 2892 
L 1626 2892 
L 1626 3328 
z
" transform="scale(0.015625)"/>
       <path id="CMMI12-e" d="M 1664 2795 
C 845 2597 256 1748 256 1001 
C 256 319 717 -64 1229 -64 
C 1984 -64 2496 970 2496 1818 
C 2496 2393 2227 2743 2067 2954 
C 1830 3254 1446 3745 1446 4052 
C 1446 4160 1530 4352 1811 4352 
C 2010 4352 2131 4281 2323 4173 
C 2381 4134 2528 4052 2611 4052 
C 2746 4052 2842 4186 2842 4288 
C 2842 4409 2746 4428 2522 4480 
C 2221 4544 2131 4544 2022 4544 
C 1914 4544 1286 4544 1286 3892 
C 1286 3579 1446 3216 1664 2795 
z
M 1734 2673 
C 1978 2169 2074 1978 2074 1563 
C 2074 1065 1805 64 1235 64 
C 986 64 627 229 627 823 
C 627 1238 864 2444 1734 2673 
z
" transform="scale(0.015625)"/>
      </defs>
      <use xlink:href="#NimbusSanL-Regu-45" transform="scale(0.996264)"/>
      <use xlink:href="#NimbusSanL-Regu-72" transform="translate(66.450031 0) scale(0.996264)"/>
      <use xlink:href="#NimbusSanL-Regu-72" transform="translate(99.625261 0) scale(0.996264)"/>
      <use xlink:href="#NimbusSanL-Regu-6f" transform="translate(132.800491 0) scale(0.996264)"/>
      <use xlink:href="#NimbusSanL-Regu-72" transform="translate(188.192168 0) scale(0.996264)"/>
      <use xlink:href="#NimbusSanL-Regu-70" transform="translate(249.062567 0) scale(0.996264)"/>
      <use xlink:href="#NimbusSanL-Regu-61" transform="translate(304.454244 0) scale(0.996264)"/>
      <use xlink:href="#NimbusSanL-Regu-72" transform="translate(359.845921 0) scale(0.996264)"/>
      <use xlink:href="#NimbusSanL-Regu-61" transform="translate(392.025054 0) scale(0.996264)"/>
      <use xlink:href="#NimbusSanL-Regu-6d" transform="translate(447.416731 0) scale(0.996264)"/>
      <use xlink:href="#NimbusSanL-Regu-65" transform="translate(530.405161 0) scale(0.996264)"/>
      <use xlink:href="#NimbusSanL-Regu-74" transform="translate(585.796838 0) scale(0.996264)"/>
      <use xlink:href="#NimbusSanL-Regu-65" transform="translate(613.492008 0) scale(0.996264)"/>
      <use xlink:href="#NimbusSanL-Regu-72" transform="translate(668.883684 0) scale(0.996264)"/>
      <use xlink:href="#CMMI12-e" transform="translate(729.754084 0) scale(0.996264)"/>
     </g>
    </g>
   </g>
   <g id="matplotlib.axis_2">
    <g id="ytick_1">
     <g id="line2d_14">
      <defs>
       <path id="m26b3a30aef" d="M 0 0 
L -3.5 0 
" style="stroke: #000000"/>
      </defs>
      <g>
       <use xlink:href="#m26b3a30aef" x="63.877054" y="131.42637" style="stroke: #000000"/>
      </g>
     </g>
     <g id="text_5">
      <!-- $\mathdefault{0.00}$ -->
      <g transform="translate(27.796546 136.75011) scale(0.15 -0.15)">
       <use xlink:href="#NimbusSanL-Regu-30" transform="scale(0.996264)"/>
       <use xlink:href="#NimbusSanL-Regu-2e" transform="translate(55.391677 0) scale(0.996264)"/>
       <use xlink:href="#NimbusSanL-Regu-30" transform="translate(83.086847 0) scale(0.996264)"/>
       <use xlink:href="#NimbusSanL-Regu-30" transform="translate(138.478524 0) scale(0.996264)"/>
      </g>
     </g>
    </g>
    <g id="ytick_2">
     <g id="line2d_15">
      <g>
       <use xlink:href="#m26b3a30aef" x="63.877054" y="24.946624" style="stroke: #000000"/>
      </g>
     </g>
     <g id="text_6">
      <!-- $\mathdefault{0.03}$ -->
      <g transform="translate(27.796546 30.270364) scale(0.15 -0.15)">
       <defs>
        <path id="NimbusSanL-Regu-33" d="M 1414 2093 
L 1485 2093 
L 1722 2099 
C 2342 2099 2662 1819 2662 1276 
C 2662 709 2310 371 1722 371 
C 1107 371 806 677 768 1334 
L 205 1334 
C 230 970 294 734 403 530 
C 634 96 1082 -128 1702 -128 
C 2637 -128 3238 428 3238 1283 
C 3238 1857 3014 2176 2470 2361 
C 2893 2526 3104 2845 3104 3298 
C 3104 4076 2586 4544 1722 4544 
C 806 4544 320 4044 301 3081 
L 864 3081 
C 870 3356 896 3509 966 3649 
C 1094 3898 1376 4051 1728 4051 
C 2227 4051 2528 3757 2528 3279 
C 2528 2960 2413 2769 2163 2667 
C 2010 2603 1811 2577 1414 2571 
L 1414 2093 
z
" transform="scale(0.015625)"/>
       </defs>
       <use xlink:href="#NimbusSanL-Regu-30" transform="scale(0.996264)"/>
       <use xlink:href="#NimbusSanL-Regu-2e" transform="translate(55.391677 0) scale(0.996264)"/>
       <use xlink:href="#NimbusSanL-Regu-30" transform="translate(83.086847 0) scale(0.996264)"/>
       <use xlink:href="#NimbusSanL-Regu-33" transform="translate(138.478524 0) scale(0.996264)"/>
      </g>
     </g>
    </g>
    <g id="ytick_3">
     <g id="line2d_16">
      <defs>
       <path id="m618d3dab4a" d="M 0 0 
L -2 0 
" style="stroke: #000000; stroke-width: 0.8"/>
      </defs>
      <g>
       <use xlink:href="#m618d3dab4a" x="63.877054" y="149.172994" style="stroke: #000000; stroke-width: 0.8"/>
      </g>
     </g>
    </g>
    <g id="ytick_4">
     <g id="line2d_17">
      <g>
       <use xlink:href="#m618d3dab4a" x="63.877054" y="113.679746" style="stroke: #000000; stroke-width: 0.8"/>
      </g>
     </g>
    </g>
    <g id="ytick_5">
     <g id="line2d_18">
      <g>
       <use xlink:href="#m618d3dab4a" x="63.877054" y="95.933121" style="stroke: #000000; stroke-width: 0.8"/>
      </g>
     </g>
    </g>
    <g id="ytick_6">
     <g id="line2d_19">
      <g>
       <use xlink:href="#m618d3dab4a" x="63.877054" y="78.186497" style="stroke: #000000; stroke-width: 0.8"/>
      </g>
     </g>
    </g>
    <g id="ytick_7">
     <g id="line2d_20">
      <g>
       <use xlink:href="#m618d3dab4a" x="63.877054" y="60.439873" style="stroke: #000000; stroke-width: 0.8"/>
      </g>
     </g>
    </g>
    <g id="ytick_8">
     <g id="line2d_21">
      <g>
       <use xlink:href="#m618d3dab4a" x="63.877054" y="42.693249" style="stroke: #000000; stroke-width: 0.8"/>
      </g>
     </g>
    </g>
    <g id="ytick_9">
     <g id="line2d_22">
      <g>
       <use xlink:href="#m618d3dab4a" x="63.877054" y="7.2" style="stroke: #000000; stroke-width: 0.8"/>
      </g>
     </g>
    </g>
    <g id="text_7">
     <!-- $\Delta\mathcal{F}$ -->
     <g transform="translate(19.976976 89.114245) rotate(-90) scale(0.18 -0.18)">
      <defs>
       <path id="CMSY10-46" d="M 5312 4102 
C 5312 4396 4819 4352 4621 4352 
L 2208 4352 
C 1888 4352 1318 4166 1216 3820 
C 1229 3782 1242 3775 1280 3775 
C 1421 3775 1613 3891 1702 3987 
C 1901 3987 2093 3999 2291 3999 
L 2688 3999 
C 2688 3999 2662 3884 2662 3878 
C 2413 2707 2035 1721 1754 1112 
C 1715 1031 1370 243 1280 166 
C 998 166 787 320 672 569 
C 653 608 653 633 608 633 
C 461 633 109 428 109 320 
C 109 307 115 294 122 281 
C 237 -20 525 -192 838 -192 
C 1165 -192 1542 44 1747 281 
C 1958 524 2381 1547 2547 1920 
L 3782 1920 
C 3776 1913 3770 1907 3770 1900 
C 3770 1876 3808 1857 3834 1857 
C 3974 1857 4339 2035 4339 2233 
C 4339 2278 4294 2272 4218 2272 
L 2682 2272 
C 2848 2847 3066 3411 3181 3999 
L 4026 3999 
C 4186 3999 4634 4031 4749 3891 
C 4762 3852 4742 3788 4762 3756 
C 4774 3743 4794 3737 4813 3737 
C 4966 3737 5312 3929 5312 4102 
z
" transform="scale(0.015625)"/>
      </defs>
      <use xlink:href="#CMSY10-46" transform="translate(49.8132 0) scale(0.996264)"/>
      <path d="M 0 0 
L 49.8132 0 
L 49.8132 49.8132 
L 0 49.8132 
L 0 0 
z
"/>
     </g>
    </g>
   </g>
   <g id="line2d_23">
    <path d="M 71.233197 131.42637 
L 74.911268 120.63884 
L 78.589339 111.719057 
L 82.26741 102.141337 
L 85.945482 93.678903 
L 89.623553 84.952744 
L 93.301624 79.142104 
L 96.979696 74.706607 
L 100.657767 72.698164 
L 104.335838 69.168126 
L 108.013909 65.388194 
L 111.691981 59.55308 
L 115.370052 58.467706 
L 119.048123 56.855351 
L 122.726195 54.528607 
L 126.404266 54.841435 
L 130.082337 50.361635 
L 133.760408 55.373378 
L 137.43848 51.582687 
L 141.116551 47.932439 
L 144.794622 47.259437 
L 148.472694 46.919097 
L 152.150765 41.701004 
L 155.828836 41.581395 
L 159.506907 38.481045 
L 163.184979 34.622737 
L 166.86305 33.769717 
L 170.541121 32.344365 
L 174.219193 30.95897 
L 177.897264 36.423714 
L 181.575335 28.429046 
L 185.253406 33.825677 
L 188.931478 40.914888 
L 192.609549 39.890262 
L 196.28762 42.834297 
L 199.965692 48.496503 
L 203.643763 50.240706 
L 207.321834 49.431538 
L 210.999906 53.473551 
L 214.677977 47.565028 
L 218.356048 45.410952 
" clip-path="url(#p5a2d4fb3d9)" style="fill: none; stroke: #d78e20; stroke-width: 2; stroke-linecap: square"/>
    <defs>
     <path id="md52175a8d5" d="M 0 0.5 
C 0.132602 0.5 0.25979 0.447317 0.353553 0.353553 
C 0.447317 0.25979 0.5 0.132602 0.5 0 
C 0.5 -0.132602 0.447317 -0.25979 0.353553 -0.353553 
C 0.25979 -0.447317 0.132602 -0.5 0 -0.5 
C -0.132602 -0.5 -0.25979 -0.447317 -0.353553 -0.353553 
C -0.447317 -0.25979 -0.5 -0.132602 -0.5 0 
C -0.5 0.132602 -0.447317 0.25979 -0.353553 0.353553 
C -0.25979 0.447317 -0.132602 0.5 0 0.5 
z
" style="stroke: #d78e20"/>
    </defs>
    <g clip-path="url(#p5a2d4fb3d9)">
     <use xlink:href="#md52175a8d5" x="71.233197" y="131.42637" style="fill: #d78e20; stroke: #d78e20"/>
     <use xlink:href="#md52175a8d5" x="74.911268" y="120.63884" style="fill: #d78e20; stroke: #d78e20"/>
     <use xlink:href="#md52175a8d5" x="78.589339" y="111.719057" style="fill: #d78e20; stroke: #d78e20"/>
     <use xlink:href="#md52175a8d5" x="82.26741" y="102.141337" style="fill: #d78e20; stroke: #d78e20"/>
     <use xlink:href="#md52175a8d5" x="85.945482" y="93.678903" style="fill: #d78e20; stroke: #d78e20"/>
     <use xlink:href="#md52175a8d5" x="89.623553" y="84.952744" style="fill: #d78e20; stroke: #d78e20"/>
     <use xlink:href="#md52175a8d5" x="93.301624" y="79.142104" style="fill: #d78e20; stroke: #d78e20"/>
     <use xlink:href="#md52175a8d5" x="96.979696" y="74.706607" style="fill: #d78e20; stroke: #d78e20"/>
     <use xlink:href="#md52175a8d5" x="100.657767" y="72.698164" style="fill: #d78e20; stroke: #d78e20"/>
     <use xlink:href="#md52175a8d5" x="104.335838" y="69.168126" style="fill: #d78e20; stroke: #d78e20"/>
     <use xlink:href="#md52175a8d5" x="108.013909" y="65.388194" style="fill: #d78e20; stroke: #d78e20"/>
     <use xlink:href="#md52175a8d5" x="111.691981" y="59.55308" style="fill: #d78e20; stroke: #d78e20"/>
     <use xlink:href="#md52175a8d5" x="115.370052" y="58.467706" style="fill: #d78e20; stroke: #d78e20"/>
     <use xlink:href="#md52175a8d5" x="119.048123" y="56.855351" style="fill: #d78e20; stroke: #d78e20"/>
     <use xlink:href="#md52175a8d5" x="122.726195" y="54.528607" style="fill: #d78e20; stroke: #d78e20"/>
     <use xlink:href="#md52175a8d5" x="126.404266" y="54.841435" style="fill: #d78e20; stroke: #d78e20"/>
     <use xlink:href="#md52175a8d5" x="130.082337" y="50.361635" style="fill: #d78e20; stroke: #d78e20"/>
     <use xlink:href="#md52175a8d5" x="133.760408" y="55.373378" style="fill: #d78e20; stroke: #d78e20"/>
     <use xlink:href="#md52175a8d5" x="137.43848" y="51.582687" style="fill: #d78e20; stroke: #d78e20"/>
     <use xlink:href="#md52175a8d5" x="141.116551" y="47.932439" style="fill: #d78e20; stroke: #d78e20"/>
     <use xlink:href="#md52175a8d5" x="144.794622" y="47.259437" style="fill: #d78e20; stroke: #d78e20"/>
     <use xlink:href="#md52175a8d5" x="148.472694" y="46.919097" style="fill: #d78e20; stroke: #d78e20"/>
     <use xlink:href="#md52175a8d5" x="152.150765" y="41.701004" style="fill: #d78e20; stroke: #d78e20"/>
     <use xlink:href="#md52175a8d5" x="155.828836" y="41.581395" style="fill: #d78e20; stroke: #d78e20"/>
     <use xlink:href="#md52175a8d5" x="159.506907" y="38.481045" style="fill: #d78e20; stroke: #d78e20"/>
     <use xlink:href="#md52175a8d5" x="163.184979" y="34.622737" style="fill: #d78e20; stroke: #d78e20"/>
     <use xlink:href="#md52175a8d5" x="166.86305" y="33.769717" style="fill: #d78e20; stroke: #d78e20"/>
     <use xlink:href="#md52175a8d5" x="170.541121" y="32.344365" style="fill: #d78e20; stroke: #d78e20"/>
     <use xlink:href="#md52175a8d5" x="174.219193" y="30.95897" style="fill: #d78e20; stroke: #d78e20"/>
     <use xlink:href="#md52175a8d5" x="177.897264" y="36.423714" style="fill: #d78e20; stroke: #d78e20"/>
     <use xlink:href="#md52175a8d5" x="181.575335" y="28.429046" style="fill: #d78e20; stroke: #d78e20"/>
     <use xlink:href="#md52175a8d5" x="185.253406" y="33.825677" style="fill: #d78e20; stroke: #d78e20"/>
     <use xlink:href="#md52175a8d5" x="188.931478" y="40.914888" style="fill: #d78e20; stroke: #d78e20"/>
     <use xlink:href="#md52175a8d5" x="192.609549" y="39.890262" style="fill: #d78e20; stroke: #d78e20"/>
     <use xlink:href="#md52175a8d5" x="196.28762" y="42.834297" style="fill: #d78e20; stroke: #d78e20"/>
     <use xlink:href="#md52175a8d5" x="199.965692" y="48.496503" style="fill: #d78e20; stroke: #d78e20"/>
     <use xlink:href="#md52175a8d5" x="203.643763" y="50.240706" style="fill: #d78e20; stroke: #d78e20"/>
     <use xlink:href="#md52175a8d5" x="207.321834" y="49.431538" style="fill: #d78e20; stroke: #d78e20"/>
     <use xlink:href="#md52175a8d5" x="210.999906" y="53.473551" style="fill: #d78e20; stroke: #d78e20"/>
     <use xlink:href="#md52175a8d5" x="214.677977" y="47.565028" style="fill: #d78e20; stroke: #d78e20"/>
     <use xlink:href="#md52175a8d5" x="218.356048" y="45.410952" style="fill: #d78e20; stroke: #d78e20"/>
    </g>
   </g>
   <g id="line2d_24">
    <path d="M 71.233197 131.42637 
L 74.911268 120.073139 
L 78.589339 108.24247 
L 82.26741 98.076867 
L 85.945482 87.216264 
L 89.623553 78.546267 
L 93.301624 69.041179 
L 96.979696 64.83817 
L 100.657767 62.448932 
L 104.335838 55.69742 
L 108.013909 53.194985 
L 111.691981 45.958896 
L 115.370052 42.971722 
L 119.048123 42.230059 
L 122.726195 43.736701 
L 126.404266 41.37916 
L 130.082337 35.640857 
L 133.760408 37.263233 
L 137.43848 36.018192 
L 141.116551 36.946099 
L 144.794622 33.776338 
L 148.472694 28.85857 
L 152.150765 30.152569 
L 155.828836 27.840217 
L 159.506907 24.571589 
L 163.184979 21.545858 
L 166.86305 18.785519 
L 170.541121 14.729157 
L 174.219193 12.592076 
L 177.897264 15.617255 
L 181.575335 19.052279 
L 185.253406 22.619725 
L 188.931478 24.943801 
L 192.609549 27.847681 
L 196.28762 28.680295 
L 199.965692 28.241345 
L 203.643763 36.529901 
L 207.321834 33.270197 
L 210.999906 37.688837 
L 214.677977 36.771068 
L 218.356048 36.909027 
" clip-path="url(#p5a2d4fb3d9)" style="fill: none; stroke: #c459a1; stroke-width: 2; stroke-linecap: square"/>
    <defs>
     <path id="m0ac95f8594" d="M -0.5 0.5 
L 0.5 0.5 
L 0.5 -0.5 
L -0.5 -0.5 
z
" style="stroke: #c459a1; stroke-linejoin: miter"/>
    </defs>
    <g clip-path="url(#p5a2d4fb3d9)">
     <use xlink:href="#m0ac95f8594" x="71.233197" y="131.42637" style="fill: #c459a1; stroke: #c459a1; stroke-linejoin: miter"/>
     <use xlink:href="#m0ac95f8594" x="74.911268" y="120.073139" style="fill: #c459a1; stroke: #c459a1; stroke-linejoin: miter"/>
     <use xlink:href="#m0ac95f8594" x="78.589339" y="108.24247" style="fill: #c459a1; stroke: #c459a1; stroke-linejoin: miter"/>
     <use xlink:href="#m0ac95f8594" x="82.26741" y="98.076867" style="fill: #c459a1; stroke: #c459a1; stroke-linejoin: miter"/>
     <use xlink:href="#m0ac95f8594" x="85.945482" y="87.216264" style="fill: #c459a1; stroke: #c459a1; stroke-linejoin: miter"/>
     <use xlink:href="#m0ac95f8594" x="89.623553" y="78.546267" style="fill: #c459a1; stroke: #c459a1; stroke-linejoin: miter"/>
     <use xlink:href="#m0ac95f8594" x="93.301624" y="69.041179" style="fill: #c459a1; stroke: #c459a1; stroke-linejoin: miter"/>
     <use xlink:href="#m0ac95f8594" x="96.979696" y="64.83817" style="fill: #c459a1; stroke: #c459a1; stroke-linejoin: miter"/>
     <use xlink:href="#m0ac95f8594" x="100.657767" y="62.448932" style="fill: #c459a1; stroke: #c459a1; stroke-linejoin: miter"/>
     <use xlink:href="#m0ac95f8594" x="104.335838" y="55.69742" style="fill: #c459a1; stroke: #c459a1; stroke-linejoin: miter"/>
     <use xlink:href="#m0ac95f8594" x="108.013909" y="53.194985" style="fill: #c459a1; stroke: #c459a1; stroke-linejoin: miter"/>
     <use xlink:href="#m0ac95f8594" x="111.691981" y="45.958896" style="fill: #c459a1; stroke: #c459a1; stroke-linejoin: miter"/>
     <use xlink:href="#m0ac95f8594" x="115.370052" y="42.971722" style="fill: #c459a1; stroke: #c459a1; stroke-linejoin: miter"/>
     <use xlink:href="#m0ac95f8594" x="119.048123" y="42.230059" style="fill: #c459a1; stroke: #c459a1; stroke-linejoin: miter"/>
     <use xlink:href="#m0ac95f8594" x="122.726195" y="43.736701" style="fill: #c459a1; stroke: #c459a1; stroke-linejoin: miter"/>
     <use xlink:href="#m0ac95f8594" x="126.404266" y="41.37916" style="fill: #c459a1; stroke: #c459a1; stroke-linejoin: miter"/>
     <use xlink:href="#m0ac95f8594" x="130.082337" y="35.640857" style="fill: #c459a1; stroke: #c459a1; stroke-linejoin: miter"/>
     <use xlink:href="#m0ac95f8594" x="133.760408" y="37.263233" style="fill: #c459a1; stroke: #c459a1; stroke-linejoin: miter"/>
     <use xlink:href="#m0ac95f8594" x="137.43848" y="36.018192" style="fill: #c459a1; stroke: #c459a1; stroke-linejoin: miter"/>
     <use xlink:href="#m0ac95f8594" x="141.116551" y="36.946099" style="fill: #c459a1; stroke: #c459a1; stroke-linejoin: miter"/>
     <use xlink:href="#m0ac95f8594" x="144.794622" y="33.776338" style="fill: #c459a1; stroke: #c459a1; stroke-linejoin: miter"/>
     <use xlink:href="#m0ac95f8594" x="148.472694" y="28.85857" style="fill: #c459a1; stroke: #c459a1; stroke-linejoin: miter"/>
     <use xlink:href="#m0ac95f8594" x="152.150765" y="30.152569" style="fill: #c459a1; stroke: #c459a1; stroke-linejoin: miter"/>
     <use xlink:href="#m0ac95f8594" x="155.828836" y="27.840217" style="fill: #c459a1; stroke: #c459a1; stroke-linejoin: miter"/>
     <use xlink:href="#m0ac95f8594" x="159.506907" y="24.571589" style="fill: #c459a1; stroke: #c459a1; stroke-linejoin: miter"/>
     <use xlink:href="#m0ac95f8594" x="163.184979" y="21.545858" style="fill: #c459a1; stroke: #c459a1; stroke-linejoin: miter"/>
     <use xlink:href="#m0ac95f8594" x="166.86305" y="18.785519" style="fill: #c459a1; stroke: #c459a1; stroke-linejoin: miter"/>
     <use xlink:href="#m0ac95f8594" x="170.541121" y="14.729157" style="fill: #c459a1; stroke: #c459a1; stroke-linejoin: miter"/>
     <use xlink:href="#m0ac95f8594" x="174.219193" y="12.592076" style="fill: #c459a1; stroke: #c459a1; stroke-linejoin: miter"/>
     <use xlink:href="#m0ac95f8594" x="177.897264" y="15.617255" style="fill: #c459a1; stroke: #c459a1; stroke-linejoin: miter"/>
     <use xlink:href="#m0ac95f8594" x="181.575335" y="19.052279" style="fill: #c459a1; stroke: #c459a1; stroke-linejoin: miter"/>
     <use xlink:href="#m0ac95f8594" x="185.253406" y="22.619725" style="fill: #c459a1; stroke: #c459a1; stroke-linejoin: miter"/>
     <use xlink:href="#m0ac95f8594" x="188.931478" y="24.943801" style="fill: #c459a1; stroke: #c459a1; stroke-linejoin: miter"/>
     <use xlink:href="#m0ac95f8594" x="192.609549" y="27.847681" style="fill: #c459a1; stroke: #c459a1; stroke-linejoin: miter"/>
     <use xlink:href="#m0ac95f8594" x="196.28762" y="28.680295" style="fill: #c459a1; stroke: #c459a1; stroke-linejoin: miter"/>
     <use xlink:href="#m0ac95f8594" x="199.965692" y="28.241345" style="fill: #c459a1; stroke: #c459a1; stroke-linejoin: miter"/>
     <use xlink:href="#m0ac95f8594" x="203.643763" y="36.529901" style="fill: #c459a1; stroke: #c459a1; stroke-linejoin: miter"/>
     <use xlink:href="#m0ac95f8594" x="207.321834" y="33.270197" style="fill: #c459a1; stroke: #c459a1; stroke-linejoin: miter"/>
     <use xlink:href="#m0ac95f8594" x="210.999906" y="37.688837" style="fill: #c459a1; stroke: #c459a1; stroke-linejoin: miter"/>
     <use xlink:href="#m0ac95f8594" x="214.677977" y="36.771068" style="fill: #c459a1; stroke: #c459a1; stroke-linejoin: miter"/>
     <use xlink:href="#m0ac95f8594" x="218.356048" y="36.909027" style="fill: #c459a1; stroke: #c459a1; stroke-linejoin: miter"/>
    </g>
   </g>
   <g id="line2d_25">
    <path d="M 71.233197 131.42637 
L 74.911268 119.630271 
L 78.589339 109.549083 
L 82.26741 99.608202 
L 85.945482 90.332458 
L 89.623553 76.893269 
L 93.301624 70.562673 
L 96.979696 65.566253 
L 100.657767 60.469832 
L 104.335838 57.56448 
L 108.013909 55.53806 
L 111.691981 48.671967 
L 115.370052 47.976675 
L 119.048123 46.078408 
L 122.726195 44.06471 
L 126.404266 44.502579 
L 130.082337 43.937512 
L 133.760408 42.972399 
L 137.43848 42.58775 
L 141.116551 38.182611 
L 144.794622 41.26853 
L 148.472694 39.86992 
L 152.150765 36.603927 
L 155.828836 32.116174 
L 159.506907 33.001427 
L 163.184979 33.784436 
L 166.86305 28.116449 
L 170.541121 26.647963 
L 174.219193 24.576636 
L 177.897264 29.602545 
L 181.575335 31.161244 
L 185.253406 30.891421 
L 188.931478 35.085188 
L 192.609549 35.557632 
L 196.28762 37.005703 
L 199.965692 41.7618 
L 203.643763 42.49933 
L 207.321834 46.581643 
L 210.999906 51.421136 
L 214.677977 48.872661 
L 218.356048 53.028987 
" clip-path="url(#p5a2d4fb3d9)" style="fill: none; stroke: #498c41; stroke-width: 2; stroke-linecap: square"/>
    <defs>
     <path id="m35476b1cb1" d="M -0 0.707107 
L 0.707107 0 
L 0 -0.707107 
L -0.707107 -0 
z
" style="stroke: #498c41; stroke-linejoin: miter"/>
    </defs>
    <g clip-path="url(#p5a2d4fb3d9)">
     <use xlink:href="#m35476b1cb1" x="71.233197" y="131.42637" style="fill: #498c41; stroke: #498c41; stroke-linejoin: miter"/>
     <use xlink:href="#m35476b1cb1" x="74.911268" y="119.630271" style="fill: #498c41; stroke: #498c41; stroke-linejoin: miter"/>
     <use xlink:href="#m35476b1cb1" x="78.589339" y="109.549083" style="fill: #498c41; stroke: #498c41; stroke-linejoin: miter"/>
     <use xlink:href="#m35476b1cb1" x="82.26741" y="99.608202" style="fill: #498c41; stroke: #498c41; stroke-linejoin: miter"/>
     <use xlink:href="#m35476b1cb1" x="85.945482" y="90.332458" style="fill: #498c41; stroke: #498c41; stroke-linejoin: miter"/>
     <use xlink:href="#m35476b1cb1" x="89.623553" y="76.893269" style="fill: #498c41; stroke: #498c41; stroke-linejoin: miter"/>
     <use xlink:href="#m35476b1cb1" x="93.301624" y="70.562673" style="fill: #498c41; stroke: #498c41; stroke-linejoin: miter"/>
     <use xlink:href="#m35476b1cb1" x="96.979696" y="65.566253" style="fill: #498c41; stroke: #498c41; stroke-linejoin: miter"/>
     <use xlink:href="#m35476b1cb1" x="100.657767" y="60.469832" style="fill: #498c41; stroke: #498c41; stroke-linejoin: miter"/>
     <use xlink:href="#m35476b1cb1" x="104.335838" y="57.56448" style="fill: #498c41; stroke: #498c41; stroke-linejoin: miter"/>
     <use xlink:href="#m35476b1cb1" x="108.013909" y="55.53806" style="fill: #498c41; stroke: #498c41; stroke-linejoin: miter"/>
     <use xlink:href="#m35476b1cb1" x="111.691981" y="48.671967" style="fill: #498c41; stroke: #498c41; stroke-linejoin: miter"/>
     <use xlink:href="#m35476b1cb1" x="115.370052" y="47.976675" style="fill: #498c41; stroke: #498c41; stroke-linejoin: miter"/>
     <use xlink:href="#m35476b1cb1" x="119.048123" y="46.078408" style="fill: #498c41; stroke: #498c41; stroke-linejoin: miter"/>
     <use xlink:href="#m35476b1cb1" x="122.726195" y="44.06471" style="fill: #498c41; stroke: #498c41; stroke-linejoin: miter"/>
     <use xlink:href="#m35476b1cb1" x="126.404266" y="44.502579" style="fill: #498c41; stroke: #498c41; stroke-linejoin: miter"/>
     <use xlink:href="#m35476b1cb1" x="130.082337" y="43.937512" style="fill: #498c41; stroke: #498c41; stroke-linejoin: miter"/>
     <use xlink:href="#m35476b1cb1" x="133.760408" y="42.972399" style="fill: #498c41; stroke: #498c41; stroke-linejoin: miter"/>
     <use xlink:href="#m35476b1cb1" x="137.43848" y="42.58775" style="fill: #498c41; stroke: #498c41; stroke-linejoin: miter"/>
     <use xlink:href="#m35476b1cb1" x="141.116551" y="38.182611" style="fill: #498c41; stroke: #498c41; stroke-linejoin: miter"/>
     <use xlink:href="#m35476b1cb1" x="144.794622" y="41.26853" style="fill: #498c41; stroke: #498c41; stroke-linejoin: miter"/>
     <use xlink:href="#m35476b1cb1" x="148.472694" y="39.86992" style="fill: #498c41; stroke: #498c41; stroke-linejoin: miter"/>
     <use xlink:href="#m35476b1cb1" x="152.150765" y="36.603927" style="fill: #498c41; stroke: #498c41; stroke-linejoin: miter"/>
     <use xlink:href="#m35476b1cb1" x="155.828836" y="32.116174" style="fill: #498c41; stroke: #498c41; stroke-linejoin: miter"/>
     <use xlink:href="#m35476b1cb1" x="159.506907" y="33.001427" style="fill: #498c41; stroke: #498c41; stroke-linejoin: miter"/>
     <use xlink:href="#m35476b1cb1" x="163.184979" y="33.784436" style="fill: #498c41; stroke: #498c41; stroke-linejoin: miter"/>
     <use xlink:href="#m35476b1cb1" x="166.86305" y="28.116449" style="fill: #498c41; stroke: #498c41; stroke-linejoin: miter"/>
     <use xlink:href="#m35476b1cb1" x="170.541121" y="26.647963" style="fill: #498c41; stroke: #498c41; stroke-linejoin: miter"/>
     <use xlink:href="#m35476b1cb1" x="174.219193" y="24.576636" style="fill: #498c41; stroke: #498c41; stroke-linejoin: miter"/>
     <use xlink:href="#m35476b1cb1" x="177.897264" y="29.602545" style="fill: #498c41; stroke: #498c41; stroke-linejoin: miter"/>
     <use xlink:href="#m35476b1cb1" x="181.575335" y="31.161244" style="fill: #498c41; stroke: #498c41; stroke-linejoin: miter"/>
     <use xlink:href="#m35476b1cb1" x="185.253406" y="30.891421" style="fill: #498c41; stroke: #498c41; stroke-linejoin: miter"/>
     <use xlink:href="#m35476b1cb1" x="188.931478" y="35.085188" style="fill: #498c41; stroke: #498c41; stroke-linejoin: miter"/>
     <use xlink:href="#m35476b1cb1" x="192.609549" y="35.557632" style="fill: #498c41; stroke: #498c41; stroke-linejoin: miter"/>
     <use xlink:href="#m35476b1cb1" x="196.28762" y="37.005703" style="fill: #498c41; stroke: #498c41; stroke-linejoin: miter"/>
     <use xlink:href="#m35476b1cb1" x="199.965692" y="41.7618" style="fill: #498c41; stroke: #498c41; stroke-linejoin: miter"/>
     <use xlink:href="#m35476b1cb1" x="203.643763" y="42.49933" style="fill: #498c41; stroke: #498c41; stroke-linejoin: miter"/>
     <use xlink:href="#m35476b1cb1" x="207.321834" y="46.581643" style="fill: #498c41; stroke: #498c41; stroke-linejoin: miter"/>
     <use xlink:href="#m35476b1cb1" x="210.999906" y="51.421136" style="fill: #498c41; stroke: #498c41; stroke-linejoin: miter"/>
     <use xlink:href="#m35476b1cb1" x="214.677977" y="48.872661" style="fill: #498c41; stroke: #498c41; stroke-linejoin: miter"/>
     <use xlink:href="#m35476b1cb1" x="218.356048" y="53.028987" style="fill: #498c41; stroke: #498c41; stroke-linejoin: miter"/>
    </g>
   </g>
   <g id="patch_3">
    <path d="M 63.877054 149.172994 
L 63.877054 7.2 
" style="fill: none; stroke: #000000; stroke-linejoin: miter; stroke-linecap: square"/>
   </g>
   <g id="patch_4">
    <path d="M 63.877054 149.172994 
L 225.712191 149.172994 
" style="fill: none; stroke: #000000; stroke-linejoin: miter; stroke-linecap: square"/>
   </g>
  </g>
 </g>
 <defs>
  <clipPath id="p5a2d4fb3d9">
   <rect x="63.877054" y="7.2" width="161.835137" height="141.972994"/>
  </clipPath>
 </defs>
</svg>
