<?xml version="1.0" encoding="utf-8" standalone="no"?>
<!DOCTYPE svg PUBLIC "-//W3C//DTD SVG 1.1//EN"
  "http://www.w3.org/Graphics/SVG/1.1/DTD/svg11.dtd">
<svg xmlns:xlink="http://www.w3.org/1999/xlink" width="216pt" height="158.4pt" viewBox="0 0 216 158.4" xmlns="http://www.w3.org/2000/svg" version="1.1">
 <metadata>
  <rdf:RDF xmlns:dc="http://purl.org/dc/elements/1.1/" xmlns:cc="http://creativecommons.org/ns#" xmlns:rdf="http://www.w3.org/1999/02/22-rdf-syntax-ns#">
   <cc:Work>
    <dc:type rdf:resource="http://purl.org/dc/dcmitype/StillImage"/>
    <dc:date>2026-03-05T23:30:06.318006</dc:date>
    <dc:format>image/svg+xml</dc:format>
    <dc:creator>
     <cc:Agent>
      <dc:title>Matplotlib v3.10.8, https://matplotlib.org/</dc:title>
     </cc:Agent>
    </dc:creator>
   </cc:Work>
  </rdf:RDF>
 </metadata>
 <defs>
  <style type="text/css">*{stroke-linejoin: round; stroke-linecap: butt}</style>
 </defs>
 <g id="figure_1">
  <g id="patch_1">
   <path d="M 0 158.4 
L 216 158.4 
L 216 0 
L 0 0 
z
" style="fill: #ffffff"/>
  </g>
  <g id="axes_1">
   <g id="patch_2">
    <path d="M 83.42017 122.44954 
L 198.10321 122.44954 
L 198.10321 15.12 
L 83.42017 15.12 
z
" style="fill: #ffffff"/>
   </g>
   <g id="matplotlib.axis_1">
    <g id="xtick_1">
     <g id="line2d_1">
      <defs>
       <path id="mb31932d05a" d="M 0 0 
L 0 3.5 
" style="stroke: #000000; stroke-width: 0.8"/>
      </defs>
      <g>
       <use xlink:href="#mb31932d05a" x="88.633035" y="122.44954" style="stroke: #000000; stroke-width: 0.8"/>
      </g>
     </g>
     <g id="text_1">
      <!-- $\mathdefault{0}$ -->
      <g transform="translate(84.478662 140.09702) scale(0.15 -0.15)">
       <defs>
        <path id="NimbusSanL-Regu-30" d="M 1760 4544 
C 1338 4544 954 4358 717 4044 
C 422 3649 275 3043 275 2207 
C 275 683 787 -128 1760 -128 
C 2720 -128 3245 683 3245 2169 
C 3245 3049 3104 3636 2803 4044 
C 2566 4364 2189 4544 1760 4544 
z
M 1760 4044 
C 2368 4044 2669 3432 2669 2220 
C 2669 938 2374 339 1747 339 
C 1152 339 851 964 851 2201 
C 851 3438 1152 4044 1760 4044 
z
" transform="scale(0.015625)"/>
       </defs>
       <use xlink:href="#NimbusSanL-Regu-30" transform="scale(0.996264)"/>
      </g>
     </g>
    </g>
    <g id="xtick_2">
     <g id="line2d_2">
      <g>
       <use xlink:href="#mb31932d05a" x="192.890345" y="122.44954" style="stroke: #000000; stroke-width: 0.8"/>
      </g>
     </g>
     <g id="text_2">
      <!-- $\mathdefault{1}$ -->
      <g transform="translate(188.735971 140.09702) scale(0.15 -0.15)">
       <defs>
        <path id="NimbusSanL-Regu-31" d="M 1658 3232 
L 1658 0 
L 2221 0 
L 2221 4537 
L 1850 4537 
C 1651 3840 1523 3744 653 3635 
L 653 3232 
L 1658 3232 
z
" transform="scale(0.015625)"/>
       </defs>
       <use xlink:href="#NimbusSanL-Regu-31" transform="scale(0.996264)"/>
      </g>
     </g>
    </g>
    <g id="xtick_3">
     <g id="line2d_3">
      <defs>
       <path id="mb913a73683" d="M 0 0 
L 0 2 
" style="stroke: #000000; stroke-width: 0.6"/>
      </defs>
      <g>
       <use xlink:href="#mb913a73683" x="109.484497" y="122.44954" style="stroke: #000000; stroke-width: 0.6"/>
      </g>
     </g>
    </g>
    <g id="xtick_4">
     <g id="line2d_4">
      <g>
       <use xlink:href="#mb913a73683" x="130.335959" y="122.44954" style="stroke: #000000; stroke-width: 0.6"/>
      </g>
     </g>
    </g>
    <g id="xtick_5">
     <g id="line2d_5">
      <g>
       <use xlink:href="#mb913a73683" x="151.187421" y="122.44954" style="stroke: #000000; stroke-width: 0.6"/>
      </g>
     </g>
    </g>
    <g id="xtick_6">
     <g id="line2d_6">
      <g>
       <use xlink:href="#mb913a73683" x="172.038883" y="122.44954" style="stroke: #000000; stroke-width: 0.6"/>
      </g>
     </g>
    </g>
   </g>
   <g id="matplotlib.axis_2">
    <g id="ytick_1">
     <g id="line2d_7">
      <defs>
       <path id="me33d33d2d9" d="M 0 0 
L -3.5 0 
" style="stroke: #000000; stroke-width: 0.8"/>
      </defs>
      <g>
       <use xlink:href="#me33d33d2d9" x="83.42017" y="122.44954" style="stroke: #000000; stroke-width: 0.8"/>
      </g>
     </g>
     <g id="text_3">
      <!-- $\mathdefault{−0.08}$ -->
      <g transform="translate(35.716546 127.77328) scale(0.15 -0.15)">
       <defs>
        <path id="CMSY10-0" d="M 4218 1472 
C 4326 1472 4442 1472 4442 1600 
C 4442 1728 4326 1728 4218 1728 
L 755 1728 
C 646 1728 531 1728 531 1600 
C 531 1472 646 1472 755 1472 
L 4218 1472 
z
" transform="scale(0.015625)"/>
        <path id="NimbusSanL-Regu-2e" d="M 1222 665 
L 557 665 
L 557 0 
L 1222 0 
L 1222 665 
z
" transform="scale(0.015625)"/>
        <path id="NimbusSanL-Regu-38" d="M 2502 2399 
C 2970 2681 3123 2910 3123 3337 
C 3123 4044 2566 4544 1760 4544 
C 960 4544 397 4044 397 3337 
C 397 2917 550 2687 1011 2399 
C 493 2150 237 1774 237 1276 
C 237 447 864 -128 1760 -128 
C 2656 -128 3283 447 3283 1270 
C 3283 1774 3027 2150 2502 2399 
z
M 1760 4044 
C 2240 4044 2547 3764 2547 3324 
C 2547 2904 2234 2624 1760 2624 
C 1286 2624 973 2904 973 3331 
C 973 3764 1286 4044 1760 4044 
z
M 1760 2150 
C 2323 2150 2707 1793 2707 1264 
C 2707 728 2323 371 1747 371 
C 1197 371 813 734 813 1264 
C 813 1793 1197 2150 1760 2150 
z
" transform="scale(0.015625)"/>
       </defs>
       <use xlink:href="#CMSY10-0" transform="scale(0.996264)"/>
       <use xlink:href="#NimbusSanL-Regu-30" transform="translate(77.487468 0) scale(0.996264)"/>
       <use xlink:href="#NimbusSanL-Regu-2e" transform="translate(132.879145 0) scale(0.996264)"/>
       <use xlink:href="#NimbusSanL-Regu-30" transform="translate(160.574314 0) scale(0.996264)"/>
       <use xlink:href="#NimbusSanL-Regu-38" transform="translate(215.965991 0) scale(0.996264)"/>
      </g>
     </g>
    </g>
    <g id="ytick_2">
     <g id="line2d_8">
      <g>
       <use xlink:href="#me33d33d2d9" x="83.42017" y="72.442507" style="stroke: #000000; stroke-width: 0.8"/>
      </g>
     </g>
     <g id="text_4">
      <!-- $\mathdefault{0.00}$ -->
      <g transform="translate(47.339661 77.766247) scale(0.15 -0.15)">
       <use xlink:href="#NimbusSanL-Regu-30" transform="scale(0.996264)"/>
       <use xlink:href="#NimbusSanL-Regu-2e" transform="translate(55.391677 0) scale(0.996264)"/>
       <use xlink:href="#NimbusSanL-Regu-30" transform="translate(83.086847 0) scale(0.996264)"/>
       <use xlink:href="#NimbusSanL-Regu-30" transform="translate(138.478524 0) scale(0.996264)"/>
      </g>
     </g>
    </g>
    <g id="ytick_3">
     <g id="line2d_9">
      <g>
       <use xlink:href="#me33d33d2d9" x="83.42017" y="22.435475" style="stroke: #000000; stroke-width: 0.8"/>
      </g>
     </g>
     <g id="text_5">
      <!-- $\mathdefault{0.08}$ -->
      <g transform="translate(47.339661 27.759215) scale(0.15 -0.15)">
       <use xlink:href="#NimbusSanL-Regu-30" transform="scale(0.996264)"/>
       <use xlink:href="#NimbusSanL-Regu-2e" transform="translate(55.391677 0) scale(0.996264)"/>
       <use xlink:href="#NimbusSanL-Regu-30" transform="translate(83.086847 0) scale(0.996264)"/>
       <use xlink:href="#NimbusSanL-Regu-38" transform="translate(138.478524 0) scale(0.996264)"/>
      </g>
     </g>
    </g>
    <g id="ytick_4">
     <g id="line2d_10">
      <defs>
       <path id="m0aae7b190f" d="M 0 0 
L -2 0 
" style="stroke: #000000; stroke-width: 0.6"/>
      </defs>
      <g>
       <use xlink:href="#m0aae7b190f" x="83.42017" y="109.947782" style="stroke: #000000; stroke-width: 0.6"/>
      </g>
     </g>
    </g>
    <g id="ytick_5">
     <g id="line2d_11">
      <g>
       <use xlink:href="#m0aae7b190f" x="83.42017" y="97.446024" style="stroke: #000000; stroke-width: 0.6"/>
      </g>
     </g>
    </g>
    <g id="ytick_6">
     <g id="line2d_12">
      <g>
       <use xlink:href="#m0aae7b190f" x="83.42017" y="84.944265" style="stroke: #000000; stroke-width: 0.6"/>
      </g>
     </g>
    </g>
    <g id="ytick_7">
     <g id="line2d_13">
      <g>
       <use xlink:href="#m0aae7b190f" x="83.42017" y="59.940749" style="stroke: #000000; stroke-width: 0.6"/>
      </g>
     </g>
    </g>
    <g id="ytick_8">
     <g id="line2d_14">
      <g>
       <use xlink:href="#m0aae7b190f" x="83.42017" y="47.438991" style="stroke: #000000; stroke-width: 0.6"/>
      </g>
     </g>
    </g>
    <g id="ytick_9">
     <g id="line2d_15">
      <g>
       <use xlink:href="#m0aae7b190f" x="83.42017" y="34.937233" style="stroke: #000000; stroke-width: 0.6"/>
      </g>
     </g>
    </g>
    <g id="text_6">
     <!-- $\Delta\mathcal{F}$ -->
     <g transform="translate(27.896976 79.712518) rotate(-90) scale(0.18 -0.18)">
      <defs>
       <path id="CMSY10-46" d="M 5312 4102 
C 5312 4396 4819 4352 4621 4352 
L 2208 4352 
C 1888 4352 1318 4166 1216 3820 
C 1229 3782 1242 3775 1280 3775 
C 1421 3775 1613 3891 1702 3987 
C 1901 3987 2093 3999 2291 3999 
L 2688 3999 
C 2688 3999 2662 3884 2662 3878 
C 2413 2707 2035 1721 1754 1112 
C 1715 1031 1370 243 1280 166 
C 998 166 787 320 672 569 
C 653 608 653 633 608 633 
C 461 633 109 428 109 320 
C 109 307 115 294 122 281 
C 237 -20 525 -192 838 -192 
C 1165 -192 1542 44 1747 281 
C 1958 524 2381 1547 2547 1920 
L 3782 1920 
C 3776 1913 3770 1907 3770 1900 
C 3770 1876 3808 1857 3834 1857 
C 3974 1857 4339 2035 4339 2233 
C 4339 2278 4294 2272 4218 2272 
L 2682 2272 
C 2848 2847 3066 3411 3181 3999 
L 4026 3999 
C 4186 3999 4634 4031 4749 3891 
C 4762 3852 4742 3788 4762 3756 
C 4774 3743 4794 3737 4813 3737 
C 4966 3737 5312 3929 5312 4102 
z
" transform="scale(0.015625)"/>
      </defs>
      <use xlink:href="#CMSY10-46" transform="translate(49.8132 0) scale(0.996264)"/>
      <path d="M 0 0 
L 49.8132 0 
L 49.8132 49.8132 
L 0 49.8132 
L 0 0 
z
"/>
     </g>
    </g>
   </g>
   <g id="line2d_16">
    <path d="M 88.633035 85.615415 
L 94.120262 73.340654 
L 99.607489 63.816324 
L 105.094716 56.578433 
L 110.581942 50.77158 
L 116.069169 44.435226 
L 121.556396 42.908544 
L 127.043623 41.230824 
L 132.53085 39.832815 
L 138.018077 41.843035 
L 143.505303 42.833098 
L 148.99253 45.247914 
L 154.479757 48.011386 
L 159.966984 50.758512 
L 165.454211 55.709891 
L 170.941438 59.266362 
L 176.428664 61.884921 
L 181.915891 65.316462 
L 187.403118 67.346288 
L 192.890345 71.21539 
" clip-path="url(#pcb07c12344)" style="fill: none; stroke: #efd2a6; stroke-width: 1.5; stroke-linecap: square"/>
    <defs>
     <path id="m888076c3a7" d="M 0 2.5 
C 0.663008 2.5 1.29895 2.236584 1.767767 1.767767 
C 2.236584 1.29895 2.5 0.663008 2.5 0 
C 2.5 -0.663008 2.236584 -1.29895 1.767767 -1.767767 
C 1.29895 -2.236584 0.663008 -2.5 0 -2.5 
C -0.663008 -2.5 -1.29895 -2.236584 -1.767767 -1.767767 
C -2.236584 -1.29895 -2.5 -0.663008 -2.5 0 
C -2.5 0.663008 -2.236584 1.29895 -1.767767 1.767767 
C -1.29895 2.236584 -0.663008 2.5 0 2.5 
z
" style="stroke: #efd2a6"/>
    </defs>
    <g clip-path="url(#pcb07c12344)">
     <use xlink:href="#m888076c3a7" x="88.633035" y="85.615415" style="fill: #efd2a6; stroke: #efd2a6"/>
     <use xlink:href="#m888076c3a7" x="94.120262" y="73.340654" style="fill: #efd2a6; stroke: #efd2a6"/>
     <use xlink:href="#m888076c3a7" x="99.607489" y="63.816324" style="fill: #efd2a6; stroke: #efd2a6"/>
     <use xlink:href="#m888076c3a7" x="105.094716" y="56.578433" style="fill: #efd2a6; stroke: #efd2a6"/>
     <use xlink:href="#m888076c3a7" x="110.581942" y="50.77158" style="fill: #efd2a6; stroke: #efd2a6"/>
     <use xlink:href="#m888076c3a7" x="116.069169" y="44.435226" style="fill: #efd2a6; stroke: #efd2a6"/>
     <use xlink:href="#m888076c3a7" x="121.556396" y="42.908544" style="fill: #efd2a6; stroke: #efd2a6"/>
     <use xlink:href="#m888076c3a7" x="127.043623" y="41.230824" style="fill: #efd2a6; stroke: #efd2a6"/>
     <use xlink:href="#m888076c3a7" x="132.53085" y="39.832815" style="fill: #efd2a6; stroke: #efd2a6"/>
     <use xlink:href="#m888076c3a7" x="138.018077" y="41.843035" style="fill: #efd2a6; stroke: #efd2a6"/>
     <use xlink:href="#m888076c3a7" x="143.505303" y="42.833098" style="fill: #efd2a6; stroke: #efd2a6"/>
     <use xlink:href="#m888076c3a7" x="148.99253" y="45.247914" style="fill: #efd2a6; stroke: #efd2a6"/>
     <use xlink:href="#m888076c3a7" x="154.479757" y="48.011386" style="fill: #efd2a6; stroke: #efd2a6"/>
     <use xlink:href="#m888076c3a7" x="159.966984" y="50.758512" style="fill: #efd2a6; stroke: #efd2a6"/>
     <use xlink:href="#m888076c3a7" x="165.454211" y="55.709891" style="fill: #efd2a6; stroke: #efd2a6"/>
     <use xlink:href="#m888076c3a7" x="170.941438" y="59.266362" style="fill: #efd2a6; stroke: #efd2a6"/>
     <use xlink:href="#m888076c3a7" x="176.428664" y="61.884921" style="fill: #efd2a6; stroke: #efd2a6"/>
     <use xlink:href="#m888076c3a7" x="181.915891" y="65.316462" style="fill: #efd2a6; stroke: #efd2a6"/>
     <use xlink:href="#m888076c3a7" x="187.403118" y="67.346288" style="fill: #efd2a6; stroke: #efd2a6"/>
     <use xlink:href="#m888076c3a7" x="192.890345" y="71.21539" style="fill: #efd2a6; stroke: #efd2a6"/>
    </g>
   </g>
   <g id="line2d_17">
    <path d="M 88.633035 96.064257 
L 94.120262 81.647767 
L 99.607489 69.007872 
L 105.094716 60.243506 
L 110.581942 51.106007 
L 116.069169 46.857936 
L 121.556396 43.609592 
L 127.043623 39.835599 
L 132.53085 37.723892 
L 138.018077 37.000044 
L 143.505303 39.974123 
L 148.99253 41.931583 
L 154.479757 45.205348 
L 159.966984 48.133214 
L 165.454211 53.462762 
L 170.941438 57.029307 
L 176.428664 59.871718 
L 181.915891 64.182817 
L 187.403118 67.840085 
L 192.890345 70.015203 
" clip-path="url(#pcb07c12344)" style="fill: none; stroke: #e7bb79; stroke-width: 1.5; stroke-linecap: square"/>
    <defs>
     <path id="m0bb062c38c" d="M -2.5 2.5 
L 2.5 2.5 
L 2.5 -2.5 
L -2.5 -2.5 
z
" style="stroke: #e7bb79; stroke-linejoin: miter"/>
    </defs>
    <g clip-path="url(#pcb07c12344)">
     <use xlink:href="#m0bb062c38c" x="88.633035" y="96.064257" style="fill: #e7bb79; stroke: #e7bb79; stroke-linejoin: miter"/>
     <use xlink:href="#m0bb062c38c" x="94.120262" y="81.647767" style="fill: #e7bb79; stroke: #e7bb79; stroke-linejoin: miter"/>
     <use xlink:href="#m0bb062c38c" x="99.607489" y="69.007872" style="fill: #e7bb79; stroke: #e7bb79; stroke-linejoin: miter"/>
     <use xlink:href="#m0bb062c38c" x="105.094716" y="60.243506" style="fill: #e7bb79; stroke: #e7bb79; stroke-linejoin: miter"/>
     <use xlink:href="#m0bb062c38c" x="110.581942" y="51.106007" style="fill: #e7bb79; stroke: #e7bb79; stroke-linejoin: miter"/>
     <use xlink:href="#m0bb062c38c" x="116.069169" y="46.857936" style="fill: #e7bb79; stroke: #e7bb79; stroke-linejoin: miter"/>
     <use xlink:href="#m0bb062c38c" x="121.556396" y="43.609592" style="fill: #e7bb79; stroke: #e7bb79; stroke-linejoin: miter"/>
     <use xlink:href="#m0bb062c38c" x="127.043623" y="39.835599" style="fill: #e7bb79; stroke: #e7bb79; stroke-linejoin: miter"/>
     <use xlink:href="#m0bb062c38c" x="132.53085" y="37.723892" style="fill: #e7bb79; stroke: #e7bb79; stroke-linejoin: miter"/>
     <use xlink:href="#m0bb062c38c" x="138.018077" y="37.000044" style="fill: #e7bb79; stroke: #e7bb79; stroke-linejoin: miter"/>
     <use xlink:href="#m0bb062c38c" x="143.505303" y="39.974123" style="fill: #e7bb79; stroke: #e7bb79; stroke-linejoin: miter"/>
     <use xlink:href="#m0bb062c38c" x="148.99253" y="41.931583" style="fill: #e7bb79; stroke: #e7bb79; stroke-linejoin: miter"/>
     <use xlink:href="#m0bb062c38c" x="154.479757" y="45.205348" style="fill: #e7bb79; stroke: #e7bb79; stroke-linejoin: miter"/>
     <use xlink:href="#m0bb062c38c" x="159.966984" y="48.133214" style="fill: #e7bb79; stroke: #e7bb79; stroke-linejoin: miter"/>
     <use xlink:href="#m0bb062c38c" x="165.454211" y="53.462762" style="fill: #e7bb79; stroke: #e7bb79; stroke-linejoin: miter"/>
     <use xlink:href="#m0bb062c38c" x="170.941438" y="57.029307" style="fill: #e7bb79; stroke: #e7bb79; stroke-linejoin: miter"/>
     <use xlink:href="#m0bb062c38c" x="176.428664" y="59.871718" style="fill: #e7bb79; stroke: #e7bb79; stroke-linejoin: miter"/>
     <use xlink:href="#m0bb062c38c" x="181.915891" y="64.182817" style="fill: #e7bb79; stroke: #e7bb79; stroke-linejoin: miter"/>
     <use xlink:href="#m0bb062c38c" x="187.403118" y="67.840085" style="fill: #e7bb79; stroke: #e7bb79; stroke-linejoin: miter"/>
     <use xlink:href="#m0bb062c38c" x="192.890345" y="70.015203" style="fill: #e7bb79; stroke: #e7bb79; stroke-linejoin: miter"/>
    </g>
   </g>
   <g id="line2d_18">
    <path d="M 88.633035 113.665416 
L 94.120262 97.603951 
L 99.607489 83.129608 
L 105.094716 69.642535 
L 110.581942 63.638748 
L 116.069169 55.032287 
L 121.556396 47.981822 
L 127.043623 45.17873 
L 132.53085 43.056491 
L 138.018077 44.300666 
L 143.505303 41.431346 
L 148.99253 43.566667 
L 154.479757 45.731578 
L 159.966984 50.435952 
L 165.454211 53.406797 
L 170.941438 57.397751 
L 176.428664 59.856566 
L 181.915891 63.280118 
L 187.403118 67.800442 
L 192.890345 70.228397 
" clip-path="url(#pcb07c12344)" style="fill: none; stroke: #dfa54d; stroke-width: 1.5; stroke-linecap: square"/>
    <defs>
     <path id="m1dd972ce12" d="M -0 3.535534 
L 3.535534 0 
L 0 -3.535534 
L -3.535534 -0 
z
" style="stroke: #dfa54d; stroke-linejoin: miter"/>
    </defs>
    <g clip-path="url(#pcb07c12344)">
     <use xlink:href="#m1dd972ce12" x="88.633035" y="113.665416" style="fill: #dfa54d; stroke: #dfa54d; stroke-linejoin: miter"/>
     <use xlink:href="#m1dd972ce12" x="94.120262" y="97.603951" style="fill: #dfa54d; stroke: #dfa54d; stroke-linejoin: miter"/>
     <use xlink:href="#m1dd972ce12" x="99.607489" y="83.129608" style="fill: #dfa54d; stroke: #dfa54d; stroke-linejoin: miter"/>
     <use xlink:href="#m1dd972ce12" x="105.094716" y="69.642535" style="fill: #dfa54d; stroke: #dfa54d; stroke-linejoin: miter"/>
     <use xlink:href="#m1dd972ce12" x="110.581942" y="63.638748" style="fill: #dfa54d; stroke: #dfa54d; stroke-linejoin: miter"/>
     <use xlink:href="#m1dd972ce12" x="116.069169" y="55.032287" style="fill: #dfa54d; stroke: #dfa54d; stroke-linejoin: miter"/>
     <use xlink:href="#m1dd972ce12" x="121.556396" y="47.981822" style="fill: #dfa54d; stroke: #dfa54d; stroke-linejoin: miter"/>
     <use xlink:href="#m1dd972ce12" x="127.043623" y="45.17873" style="fill: #dfa54d; stroke: #dfa54d; stroke-linejoin: miter"/>
     <use xlink:href="#m1dd972ce12" x="132.53085" y="43.056491" style="fill: #dfa54d; stroke: #dfa54d; stroke-linejoin: miter"/>
     <use xlink:href="#m1dd972ce12" x="138.018077" y="44.300666" style="fill: #dfa54d; stroke: #dfa54d; stroke-linejoin: miter"/>
     <use xlink:href="#m1dd972ce12" x="143.505303" y="41.431346" style="fill: #dfa54d; stroke: #dfa54d; stroke-linejoin: miter"/>
     <use xlink:href="#m1dd972ce12" x="148.99253" y="43.566667" style="fill: #dfa54d; stroke: #dfa54d; stroke-linejoin: miter"/>
     <use xlink:href="#m1dd972ce12" x="154.479757" y="45.731578" style="fill: #dfa54d; stroke: #dfa54d; stroke-linejoin: miter"/>
     <use xlink:href="#m1dd972ce12" x="159.966984" y="50.435952" style="fill: #dfa54d; stroke: #dfa54d; stroke-linejoin: miter"/>
     <use xlink:href="#m1dd972ce12" x="165.454211" y="53.406797" style="fill: #dfa54d; stroke: #dfa54d; stroke-linejoin: miter"/>
     <use xlink:href="#m1dd972ce12" x="170.941438" y="57.397751" style="fill: #dfa54d; stroke: #dfa54d; stroke-linejoin: miter"/>
     <use xlink:href="#m1dd972ce12" x="176.428664" y="59.856566" style="fill: #dfa54d; stroke: #dfa54d; stroke-linejoin: miter"/>
     <use xlink:href="#m1dd972ce12" x="181.915891" y="63.280118" style="fill: #dfa54d; stroke: #dfa54d; stroke-linejoin: miter"/>
     <use xlink:href="#m1dd972ce12" x="187.403118" y="67.800442" style="fill: #dfa54d; stroke: #dfa54d; stroke-linejoin: miter"/>
     <use xlink:href="#m1dd972ce12" x="192.890345" y="70.228397" style="fill: #dfa54d; stroke: #dfa54d; stroke-linejoin: miter"/>
    </g>
   </g>
   <g id="line2d_19">
    <path d="M 88.633035 72.442507 
L 94.120262 57.473752 
L 99.607489 45.330151 
L 105.094716 35.806651 
L 110.581942 28.698201 
L 116.069169 23.79975 
L 121.556396 20.906246 
L 127.043623 19.812639 
L 132.53085 20.313876 
L 138.018077 22.204906 
L 143.505303 25.280677 
L 148.99253 29.336139 
L 154.479757 34.166239 
L 159.966984 39.565927 
L 165.454211 45.330151 
L 170.941438 51.253859 
L 176.428664 57.132 
L 181.915891 62.759523 
L 187.403118 67.931376 
L 192.890345 72.442507 
" clip-path="url(#pcb07c12344)" style="fill: none; stroke-dasharray: 7.4,3.2; stroke-dashoffset: 0; stroke: #e7bb79; stroke-width: 2"/>
   </g>
   <g id="line2d_20">
    <path d="M 83.42017 72.442507 
L 198.10321 72.442507 
" clip-path="url(#pcb07c12344)" style="fill: none; stroke-dasharray: 3.7,1.6; stroke-dashoffset: 0; stroke: #808080"/>
   </g>
   <g id="patch_3">
    <path d="M 83.42017 122.44954 
L 83.42017 15.12 
" style="fill: none; stroke: #000000; stroke-linejoin: miter; stroke-linecap: square"/>
   </g>
   <g id="patch_4">
    <path d="M 83.42017 122.44954 
L 198.10321 122.44954 
" style="fill: none; stroke: #000000; stroke-linejoin: miter; stroke-linecap: square"/>
   </g>
  </g>
 </g>
 <defs>
  <clipPath id="pcb07c12344">
   <rect x="83.42017" y="15.12" width="114.683041" height="107.32954"/>
  </clipPath>
 </defs>
</svg>
